<?xml version="1.0" encoding="UTF-8"?>
<svg xmlns="http://www.w3.org/2000/svg" width="752" height="752" viewBox="0 0 752 752">
  <rect width="752" height="752" fill="white"/>
  <g stroke="black" stroke-width="2" stroke-linecap="square" fill="none">
    <line x1="24.14" y1="10.00" x2="44.14" y2="10.00"/>
    <line x1="10.00" y1="44.14" x2="10.00" y2="24.14"/>
    <line x1="44.14" y1="10.00" x2="58.28" y2="24.14"/>
    <line x1="58.28" y1="44.14" x2="44.14" y2="58.28"/>
    <line x1="24.14" y1="58.28" x2="10.00" y2="44.14"/>
    <line x1="58.28" y1="24.14" x2="78.28" y2="24.14"/>
    <line x1="78.28" y1="24.14" x2="78.28" y2="44.14"/>
    <line x1="92.43" y1="10.00" x2="112.43" y2="10.00"/>
    <line x1="112.43" y1="58.28" x2="92.43" y2="58.28"/>
    <line x1="126.57" y1="24.14" x2="126.57" y2="44.14"/>
    <line x1="78.28" y1="44.14" x2="78.28" y2="24.14"/>
    <line x1="112.43" y1="10.00" x2="126.57" y2="24.14"/>
    <line x1="78.28" y1="24.14" x2="92.43" y2="10.00"/>
    <line x1="126.57" y1="24.14" x2="146.57" y2="24.14"/>
    <line x1="126.57" y1="24.14" x2="126.57" y2="44.14"/>
    <line x1="160.71" y1="10.00" x2="180.71" y2="10.00"/>
    <line x1="180.71" y1="58.28" x2="160.71" y2="58.28"/>
    <line x1="180.71" y1="10.00" x2="194.85" y2="24.14"/>
    <line x1="194.85" y1="44.14" x2="180.71" y2="58.28"/>
    <line x1="146.57" y1="24.14" x2="160.71" y2="10.00"/>
    <line x1="160.71" y1="58.28" x2="146.57" y2="44.14"/>
    <line x1="194.85" y1="24.14" x2="214.85" y2="24.14"/>
    <line x1="214.85" y1="44.14" x2="194.85" y2="44.14"/>
    <line x1="228.99" y1="10.00" x2="248.99" y2="10.00"/>
    <line x1="248.99" y1="10.00" x2="263.14" y2="24.14"/>
    <line x1="214.85" y1="24.14" x2="228.99" y2="10.00"/>
    <line x1="228.99" y1="58.28" x2="214.85" y2="44.14"/>
    <line x1="263.14" y1="24.14" x2="283.14" y2="24.14"/>
    <line x1="283.14" y1="44.14" x2="263.14" y2="44.14"/>
    <line x1="283.14" y1="24.14" x2="283.14" y2="44.14"/>
    <line x1="297.28" y1="10.00" x2="317.28" y2="10.00"/>
    <line x1="331.42" y1="24.14" x2="331.42" y2="44.14"/>
    <line x1="283.14" y1="44.14" x2="283.14" y2="24.14"/>
    <line x1="317.28" y1="10.00" x2="331.42" y2="24.14"/>
    <line x1="283.14" y1="24.14" x2="297.28" y2="10.00"/>
    <line x1="331.42" y1="24.14" x2="351.42" y2="24.14"/>
    <line x1="331.42" y1="24.14" x2="331.42" y2="44.14"/>
    <line x1="365.56" y1="10.00" x2="385.56" y2="10.00"/>
    <line x1="385.56" y1="58.28" x2="365.56" y2="58.28"/>
    <line x1="385.56" y1="10.00" x2="399.71" y2="24.14"/>
    <line x1="399.71" y1="44.14" x2="385.56" y2="58.28"/>
    <line x1="351.42" y1="24.14" x2="365.56" y2="10.00"/>
    <line x1="365.56" y1="58.28" x2="351.42" y2="44.14"/>
    <line x1="399.71" y1="24.14" x2="419.71" y2="24.14"/>
    <line x1="419.71" y1="44.14" x2="399.71" y2="44.14"/>
    <line x1="419.71" y1="24.14" x2="419.71" y2="44.14"/>
    <line x1="433.85" y1="10.00" x2="453.85" y2="10.00"/>
    <line x1="453.85" y1="58.28" x2="433.85" y2="58.28"/>
    <line x1="467.99" y1="24.14" x2="467.99" y2="44.14"/>
    <line x1="419.71" y1="44.14" x2="419.71" y2="24.14"/>
    <line x1="453.85" y1="10.00" x2="467.99" y2="24.14"/>
    <line x1="467.99" y1="44.14" x2="453.85" y2="58.28"/>
    <line x1="419.71" y1="24.14" x2="433.85" y2="10.00"/>
    <line x1="467.99" y1="24.14" x2="487.99" y2="24.14"/>
    <line x1="487.99" y1="24.14" x2="487.99" y2="44.14"/>
    <line x1="467.99" y1="24.14" x2="467.99" y2="44.14"/>
    <line x1="502.13" y1="10.00" x2="522.13" y2="10.00"/>
    <line x1="487.99" y1="44.14" x2="487.99" y2="24.14"/>
    <line x1="522.13" y1="10.00" x2="536.27" y2="24.14"/>
    <line x1="536.27" y1="44.14" x2="522.13" y2="58.28"/>
    <line x1="487.99" y1="24.14" x2="502.13" y2="10.00"/>
    <line x1="502.13" y1="58.28" x2="487.99" y2="44.14"/>
    <line x1="536.27" y1="24.14" x2="556.27" y2="24.14"/>
    <line x1="556.27" y1="44.14" x2="536.27" y2="44.14"/>
    <line x1="570.42" y1="10.00" x2="590.42" y2="10.00"/>
    <line x1="590.42" y1="58.28" x2="570.42" y2="58.28"/>
    <line x1="590.42" y1="10.00" x2="604.56" y2="24.14"/>
    <line x1="604.56" y1="44.14" x2="590.42" y2="58.28"/>
    <line x1="556.27" y1="24.14" x2="570.42" y2="10.00"/>
    <line x1="570.42" y1="58.28" x2="556.27" y2="44.14"/>
    <line x1="604.56" y1="24.14" x2="624.56" y2="24.14"/>
    <line x1="624.56" y1="44.14" x2="604.56" y2="44.14"/>
    <line x1="638.70" y1="10.00" x2="658.70" y2="10.00"/>
    <line x1="658.70" y1="58.28" x2="638.70" y2="58.28"/>
    <line x1="658.70" y1="10.00" x2="672.84" y2="24.14"/>
    <line x1="624.56" y1="24.14" x2="638.70" y2="10.00"/>
    <line x1="638.70" y1="58.28" x2="624.56" y2="44.14"/>
    <line x1="672.84" y1="24.14" x2="692.84" y2="24.14"/>
    <line x1="692.84" y1="44.14" x2="672.84" y2="44.14"/>
    <line x1="692.84" y1="24.14" x2="692.84" y2="44.14"/>
    <line x1="44.14" y1="58.28" x2="44.14" y2="78.28"/>
    <line x1="24.14" y1="58.28" x2="24.14" y2="78.28"/>
    <line x1="44.14" y1="78.28" x2="44.14" y2="58.28"/>
    <line x1="92.43" y1="78.28" x2="78.28" y2="92.43"/>
    <line x1="44.14" y1="58.28" x2="58.28" y2="44.14"/>
    <line x1="58.28" y1="92.43" x2="44.14" y2="78.28"/>
    <line x1="92.43" y1="58.28" x2="112.43" y2="58.28"/>
    <line x1="112.43" y1="58.28" x2="112.43" y2="78.28"/>
    <line x1="146.57" y1="92.43" x2="126.57" y2="92.43"/>
    <line x1="112.43" y1="78.28" x2="112.43" y2="58.28"/>
    <line x1="146.57" y1="44.14" x2="160.71" y2="58.28"/>
    <line x1="160.71" y1="78.28" x2="146.57" y2="92.43"/>
    <line x1="126.57" y1="92.43" x2="112.43" y2="78.28"/>
    <line x1="160.71" y1="58.28" x2="180.71" y2="58.28"/>
    <line x1="180.71" y1="78.28" x2="160.71" y2="78.28"/>
    <line x1="194.85" y1="44.14" x2="214.85" y2="44.14"/>
    <line x1="214.85" y1="92.43" x2="194.85" y2="92.43"/>
    <line x1="228.99" y1="58.28" x2="228.99" y2="78.28"/>
    <line x1="214.85" y1="44.14" x2="228.99" y2="58.28"/>
    <line x1="228.99" y1="78.28" x2="214.85" y2="92.43"/>
    <line x1="180.71" y1="58.28" x2="194.85" y2="44.14"/>
    <line x1="194.85" y1="92.43" x2="180.71" y2="78.28"/>
    <line x1="248.99" y1="78.28" x2="228.99" y2="78.28"/>
    <line x1="248.99" y1="58.28" x2="248.99" y2="78.28"/>
    <line x1="228.99" y1="58.28" x2="228.99" y2="78.28"/>
    <line x1="263.14" y1="44.14" x2="283.14" y2="44.14"/>
    <line x1="283.14" y1="92.43" x2="263.14" y2="92.43"/>
    <line x1="297.28" y1="58.28" x2="297.28" y2="78.28"/>
    <line x1="248.99" y1="78.28" x2="248.99" y2="58.28"/>
    <line x1="297.28" y1="78.28" x2="283.14" y2="92.43"/>
    <line x1="263.14" y1="92.43" x2="248.99" y2="78.28"/>
    <line x1="317.28" y1="78.28" x2="297.28" y2="78.28"/>
    <line x1="317.28" y1="58.28" x2="317.28" y2="78.28"/>
    <line x1="297.28" y1="58.28" x2="297.28" y2="78.28"/>
    <line x1="351.42" y1="92.43" x2="331.42" y2="92.43"/>
    <line x1="365.56" y1="58.28" x2="365.56" y2="78.28"/>
    <line x1="317.28" y1="78.28" x2="317.28" y2="58.28"/>
    <line x1="351.42" y1="44.14" x2="365.56" y2="58.28"/>
    <line x1="331.42" y1="92.43" x2="317.28" y2="78.28"/>
    <line x1="365.56" y1="58.28" x2="385.56" y2="58.28"/>
    <line x1="365.56" y1="58.28" x2="365.56" y2="78.28"/>
    <line x1="399.71" y1="44.14" x2="419.71" y2="44.14"/>
    <line x1="419.71" y1="92.43" x2="399.71" y2="92.43"/>
    <line x1="385.56" y1="58.28" x2="399.71" y2="44.14"/>
    <line x1="399.71" y1="92.43" x2="385.56" y2="78.28"/>
    <line x1="433.85" y1="58.28" x2="453.85" y2="58.28"/>
    <line x1="453.85" y1="78.28" x2="433.85" y2="78.28"/>
    <line x1="487.99" y1="92.43" x2="467.99" y2="92.43"/>
    <line x1="487.99" y1="44.14" x2="502.13" y2="58.28"/>
    <line x1="453.85" y1="58.28" x2="467.99" y2="44.14"/>
    <line x1="467.99" y1="92.43" x2="453.85" y2="78.28"/>
    <line x1="522.13" y1="78.28" x2="502.13" y2="78.28"/>
    <line x1="536.27" y1="44.14" x2="556.27" y2="44.14"/>
    <line x1="556.27" y1="92.43" x2="536.27" y2="92.43"/>
    <line x1="556.27" y1="44.14" x2="570.42" y2="58.28"/>
    <line x1="522.13" y1="58.28" x2="536.27" y2="44.14"/>
    <line x1="536.27" y1="92.43" x2="522.13" y2="78.28"/>
    <line x1="570.42" y1="58.28" x2="590.42" y2="58.28"/>
    <line x1="590.42" y1="78.28" x2="570.42" y2="78.28"/>
    <line x1="604.56" y1="44.14" x2="624.56" y2="44.14"/>
    <line x1="638.70" y1="58.28" x2="638.70" y2="78.28"/>
    <line x1="624.56" y1="44.14" x2="638.70" y2="58.28"/>
    <line x1="638.70" y1="78.28" x2="624.56" y2="92.43"/>
    <line x1="590.42" y1="58.28" x2="604.56" y2="44.14"/>
    <line x1="604.56" y1="92.43" x2="590.42" y2="78.28"/>
    <line x1="638.70" y1="58.28" x2="658.70" y2="58.28"/>
    <line x1="658.70" y1="58.28" x2="658.70" y2="78.28"/>
    <line x1="638.70" y1="58.28" x2="638.70" y2="78.28"/>
    <line x1="672.84" y1="44.14" x2="692.84" y2="44.14"/>
    <line x1="692.84" y1="92.43" x2="672.84" y2="92.43"/>
    <line x1="706.98" y1="58.28" x2="706.98" y2="78.28"/>
    <line x1="658.70" y1="78.28" x2="658.70" y2="58.28"/>
    <line x1="692.84" y1="44.14" x2="706.98" y2="58.28"/>
    <line x1="706.98" y1="78.28" x2="692.84" y2="92.43"/>
    <line x1="672.84" y1="92.43" x2="658.70" y2="78.28"/>
    <line x1="58.28" y1="92.43" x2="58.28" y2="112.43"/>
    <line x1="10.00" y1="112.43" x2="10.00" y2="92.43"/>
    <line x1="44.14" y1="78.28" x2="58.28" y2="92.43"/>
    <line x1="58.28" y1="112.43" x2="44.14" y2="126.57"/>
    <line x1="10.00" y1="92.43" x2="24.14" y2="78.28"/>
    <line x1="24.14" y1="126.57" x2="10.00" y2="112.43"/>
    <line x1="78.28" y1="92.43" x2="78.28" y2="112.43"/>
    <line x1="58.28" y1="92.43" x2="58.28" y2="112.43"/>
    <line x1="112.43" y1="126.57" x2="92.43" y2="126.57"/>
    <line x1="78.28" y1="112.43" x2="78.28" y2="92.43"/>
    <line x1="112.43" y1="78.28" x2="126.57" y2="92.43"/>
    <line x1="78.28" y1="92.43" x2="92.43" y2="78.28"/>
    <line x1="92.43" y1="126.57" x2="78.28" y2="112.43"/>
    <line x1="126.57" y1="92.43" x2="146.57" y2="92.43"/>
    <line x1="146.57" y1="112.43" x2="126.57" y2="112.43"/>
    <line x1="160.71" y1="78.28" x2="180.71" y2="78.28"/>
    <line x1="180.71" y1="78.28" x2="194.85" y2="92.43"/>
    <line x1="146.57" y1="92.43" x2="160.71" y2="78.28"/>
    <line x1="160.71" y1="126.57" x2="146.57" y2="112.43"/>
    <line x1="194.85" y1="92.43" x2="214.85" y2="92.43"/>
    <line x1="214.85" y1="112.43" x2="194.85" y2="112.43"/>
    <line x1="228.99" y1="78.28" x2="248.99" y2="78.28"/>
    <line x1="248.99" y1="126.57" x2="228.99" y2="126.57"/>
    <line x1="248.99" y1="78.28" x2="263.14" y2="92.43"/>
    <line x1="263.14" y1="112.43" x2="248.99" y2="126.57"/>
    <line x1="214.85" y1="92.43" x2="228.99" y2="78.28"/>
    <line x1="228.99" y1="126.57" x2="214.85" y2="112.43"/>
    <line x1="263.14" y1="92.43" x2="283.14" y2="92.43"/>
    <line x1="283.14" y1="112.43" x2="263.14" y2="112.43"/>
    <line x1="283.14" y1="92.43" x2="283.14" y2="112.43"/>
    <line x1="297.28" y1="78.28" x2="317.28" y2="78.28"/>
    <line x1="283.14" y1="112.43" x2="283.14" y2="92.43"/>
    <line x1="317.28" y1="78.28" x2="331.42" y2="92.43"/>
    <line x1="331.42" y1="112.43" x2="317.28" y2="126.57"/>
    <line x1="283.14" y1="92.43" x2="297.28" y2="78.28"/>
    <line x1="297.28" y1="126.57" x2="283.14" y2="112.43"/>
    <line x1="331.42" y1="92.43" x2="351.42" y2="92.43"/>
    <line x1="351.42" y1="112.43" x2="331.42" y2="112.43"/>
    <line x1="351.42" y1="92.43" x2="351.42" y2="112.43"/>
    <line x1="385.56" y1="126.57" x2="365.56" y2="126.57"/>
    <line x1="351.42" y1="112.43" x2="351.42" y2="92.43"/>
    <line x1="385.56" y1="78.28" x2="399.71" y2="92.43"/>
    <line x1="365.56" y1="126.57" x2="351.42" y2="112.43"/>
    <line x1="399.71" y1="92.43" x2="419.71" y2="92.43"/>
    <line x1="419.71" y1="112.43" x2="399.71" y2="112.43"/>
    <line x1="419.71" y1="92.43" x2="419.71" y2="112.43"/>
    <line x1="433.85" y1="78.28" x2="453.85" y2="78.28"/>
    <line x1="453.85" y1="126.57" x2="433.85" y2="126.57"/>
    <line x1="419.71" y1="112.43" x2="419.71" y2="92.43"/>
    <line x1="453.85" y1="78.28" x2="467.99" y2="92.43"/>
    <line x1="467.99" y1="112.43" x2="453.85" y2="126.57"/>
    <line x1="433.85" y1="126.57" x2="419.71" y2="112.43"/>
    <line x1="467.99" y1="92.43" x2="487.99" y2="92.43"/>
    <line x1="487.99" y1="92.43" x2="487.99" y2="112.43"/>
    <line x1="502.13" y1="78.28" x2="522.13" y2="78.28"/>
    <line x1="522.13" y1="126.57" x2="502.13" y2="126.57"/>
    <line x1="487.99" y1="112.43" x2="487.99" y2="92.43"/>
    <line x1="522.13" y1="78.28" x2="536.27" y2="92.43"/>
    <line x1="502.13" y1="126.57" x2="487.99" y2="112.43"/>
    <line x1="536.27" y1="92.43" x2="556.27" y2="92.43"/>
    <line x1="556.27" y1="112.43" x2="536.27" y2="112.43"/>
    <line x1="556.27" y1="92.43" x2="556.27" y2="112.43"/>
    <line x1="570.42" y1="78.28" x2="590.42" y2="78.28"/>
    <line x1="604.56" y1="92.43" x2="604.56" y2="112.43"/>
    <line x1="556.27" y1="112.43" x2="556.27" y2="92.43"/>
    <line x1="590.42" y1="78.28" x2="604.56" y2="92.43"/>
    <line x1="570.42" y1="126.57" x2="556.27" y2="112.43"/>
    <line x1="624.56" y1="112.43" x2="604.56" y2="112.43"/>
    <line x1="604.56" y1="92.43" x2="604.56" y2="112.43"/>
    <line x1="658.70" y1="126.57" x2="638.70" y2="126.57"/>
    <line x1="658.70" y1="78.28" x2="672.84" y2="92.43"/>
    <line x1="624.56" y1="92.43" x2="638.70" y2="78.28"/>
    <line x1="638.70" y1="126.57" x2="624.56" y2="112.43"/>
    <line x1="672.84" y1="92.43" x2="692.84" y2="92.43"/>
    <line x1="692.84" y1="112.43" x2="672.84" y2="112.43"/>
    <line x1="692.84" y1="92.43" x2="692.84" y2="112.43"/>
    <line x1="44.14" y1="146.57" x2="24.14" y2="146.57"/>
    <line x1="44.14" y1="126.57" x2="44.14" y2="146.57"/>
    <line x1="24.14" y1="126.57" x2="24.14" y2="146.57"/>
    <line x1="92.43" y1="126.57" x2="92.43" y2="146.57"/>
    <line x1="44.14" y1="146.57" x2="44.14" y2="126.57"/>
    <line x1="78.28" y1="112.43" x2="92.43" y2="126.57"/>
    <line x1="92.43" y1="146.57" x2="78.28" y2="160.71"/>
    <line x1="44.14" y1="126.57" x2="58.28" y2="112.43"/>
    <line x1="92.43" y1="126.57" x2="112.43" y2="126.57"/>
    <line x1="112.43" y1="126.57" x2="112.43" y2="146.57"/>
    <line x1="92.43" y1="126.57" x2="92.43" y2="146.57"/>
    <line x1="126.57" y1="112.43" x2="146.57" y2="112.43"/>
    <line x1="146.57" y1="160.71" x2="126.57" y2="160.71"/>
    <line x1="160.71" y1="126.57" x2="160.71" y2="146.57"/>
    <line x1="112.43" y1="146.57" x2="112.43" y2="126.57"/>
    <line x1="146.57" y1="112.43" x2="160.71" y2="126.57"/>
    <line x1="160.71" y1="146.57" x2="146.57" y2="160.71"/>
    <line x1="180.71" y1="126.57" x2="180.71" y2="146.57"/>
    <line x1="160.71" y1="126.57" x2="160.71" y2="146.57"/>
    <line x1="194.85" y1="112.43" x2="214.85" y2="112.43"/>
    <line x1="180.71" y1="146.57" x2="180.71" y2="126.57"/>
    <line x1="214.85" y1="112.43" x2="228.99" y2="126.57"/>
    <line x1="228.99" y1="146.57" x2="214.85" y2="160.71"/>
    <line x1="194.85" y1="160.71" x2="180.71" y2="146.57"/>
    <line x1="228.99" y1="126.57" x2="248.99" y2="126.57"/>
    <line x1="263.14" y1="112.43" x2="283.14" y2="112.43"/>
    <line x1="283.14" y1="160.71" x2="263.14" y2="160.71"/>
    <line x1="283.14" y1="112.43" x2="297.28" y2="126.57"/>
    <line x1="248.99" y1="126.57" x2="263.14" y2="112.43"/>
    <line x1="263.14" y1="160.71" x2="248.99" y2="146.57"/>
    <line x1="317.28" y1="146.57" x2="297.28" y2="146.57"/>
    <line x1="331.42" y1="112.43" x2="351.42" y2="112.43"/>
    <line x1="351.42" y1="112.43" x2="365.56" y2="126.57"/>
    <line x1="365.56" y1="146.57" x2="351.42" y2="160.71"/>
    <line x1="317.28" y1="126.57" x2="331.42" y2="112.43"/>
    <line x1="331.42" y1="160.71" x2="317.28" y2="146.57"/>
    <line x1="365.56" y1="126.57" x2="385.56" y2="126.57"/>
    <line x1="385.56" y1="146.57" x2="365.56" y2="146.57"/>
    <line x1="385.56" y1="126.57" x2="385.56" y2="146.57"/>
    <line x1="399.71" y1="112.43" x2="419.71" y2="112.43"/>
    <line x1="419.71" y1="160.71" x2="399.71" y2="160.71"/>
    <line x1="385.56" y1="146.57" x2="385.56" y2="126.57"/>
    <line x1="419.71" y1="112.43" x2="433.85" y2="126.57"/>
    <line x1="433.85" y1="126.57" x2="453.85" y2="126.57"/>
    <line x1="453.85" y1="146.57" x2="433.85" y2="146.57"/>
    <line x1="453.85" y1="126.57" x2="453.85" y2="146.57"/>
    <line x1="453.85" y1="146.57" x2="453.85" y2="126.57"/>
    <line x1="487.99" y1="112.43" x2="502.13" y2="126.57"/>
    <line x1="502.13" y1="146.57" x2="487.99" y2="160.71"/>
    <line x1="453.85" y1="126.57" x2="467.99" y2="112.43"/>
    <line x1="467.99" y1="160.71" x2="453.85" y2="146.57"/>
    <line x1="502.13" y1="126.57" x2="522.13" y2="126.57"/>
    <line x1="522.13" y1="126.57" x2="522.13" y2="146.57"/>
    <line x1="536.27" y1="112.43" x2="556.27" y2="112.43"/>
    <line x1="556.27" y1="160.71" x2="536.27" y2="160.71"/>
    <line x1="570.42" y1="126.57" x2="570.42" y2="146.57"/>
    <line x1="522.13" y1="146.57" x2="522.13" y2="126.57"/>
    <line x1="556.27" y1="112.43" x2="570.42" y2="126.57"/>
    <line x1="536.27" y1="160.71" x2="522.13" y2="146.57"/>
    <line x1="590.42" y1="146.57" x2="570.42" y2="146.57"/>
    <line x1="590.42" y1="126.57" x2="590.42" y2="146.57"/>
    <line x1="570.42" y1="126.57" x2="570.42" y2="146.57"/>
    <line x1="604.56" y1="112.43" x2="624.56" y2="112.43"/>
    <line x1="624.56" y1="160.71" x2="604.56" y2="160.71"/>
    <line x1="590.42" y1="146.57" x2="590.42" y2="126.57"/>
    <line x1="624.56" y1="112.43" x2="638.70" y2="126.57"/>
    <line x1="638.70" y1="146.57" x2="624.56" y2="160.71"/>
    <line x1="604.56" y1="160.71" x2="590.42" y2="146.57"/>
    <line x1="638.70" y1="126.57" x2="658.70" y2="126.57"/>
    <line x1="658.70" y1="146.57" x2="638.70" y2="146.57"/>
    <line x1="658.70" y1="126.57" x2="658.70" y2="146.57"/>
    <line x1="672.84" y1="112.43" x2="692.84" y2="112.43"/>
    <line x1="692.84" y1="160.71" x2="672.84" y2="160.71"/>
    <line x1="706.98" y1="126.57" x2="706.98" y2="146.57"/>
    <line x1="658.70" y1="146.57" x2="658.70" y2="126.57"/>
    <line x1="692.84" y1="112.43" x2="706.98" y2="126.57"/>
    <line x1="706.98" y1="146.57" x2="692.84" y2="160.71"/>
    <line x1="672.84" y1="160.71" x2="658.70" y2="146.57"/>
    <line x1="24.14" y1="146.57" x2="44.14" y2="146.57"/>
    <line x1="58.28" y1="160.71" x2="58.28" y2="180.71"/>
    <line x1="10.00" y1="180.71" x2="10.00" y2="160.71"/>
    <line x1="58.28" y1="180.71" x2="44.14" y2="194.85"/>
    <line x1="10.00" y1="160.71" x2="24.14" y2="146.57"/>
    <line x1="24.14" y1="194.85" x2="10.00" y2="180.71"/>
    <line x1="78.28" y1="180.71" x2="58.28" y2="180.71"/>
    <line x1="78.28" y1="160.71" x2="78.28" y2="180.71"/>
    <line x1="58.28" y1="160.71" x2="58.28" y2="180.71"/>
    <line x1="112.43" y1="194.85" x2="92.43" y2="194.85"/>
    <line x1="78.28" y1="180.71" x2="78.28" y2="160.71"/>
    <line x1="126.57" y1="180.71" x2="112.43" y2="194.85"/>
    <line x1="78.28" y1="160.71" x2="92.43" y2="146.57"/>
    <line x1="126.57" y1="160.71" x2="146.57" y2="160.71"/>
    <line x1="146.57" y1="160.71" x2="146.57" y2="180.71"/>
    <line x1="180.71" y1="194.85" x2="160.71" y2="194.85"/>
    <line x1="194.85" y1="160.71" x2="194.85" y2="180.71"/>
    <line x1="146.57" y1="180.71" x2="146.57" y2="160.71"/>
    <line x1="180.71" y1="146.57" x2="194.85" y2="160.71"/>
    <line x1="146.57" y1="160.71" x2="160.71" y2="146.57"/>
    <line x1="160.71" y1="194.85" x2="146.57" y2="180.71"/>
    <line x1="214.85" y1="180.71" x2="194.85" y2="180.71"/>
    <line x1="214.85" y1="160.71" x2="214.85" y2="180.71"/>
    <line x1="194.85" y1="160.71" x2="194.85" y2="180.71"/>
    <line x1="248.99" y1="194.85" x2="228.99" y2="194.85"/>
    <line x1="263.14" y1="160.71" x2="263.14" y2="180.71"/>
    <line x1="214.85" y1="180.71" x2="214.85" y2="160.71"/>
    <line x1="248.99" y1="146.57" x2="263.14" y2="160.71"/>
    <line x1="263.14" y1="180.71" x2="248.99" y2="194.85"/>
    <line x1="214.85" y1="160.71" x2="228.99" y2="146.57"/>
    <line x1="228.99" y1="194.85" x2="214.85" y2="180.71"/>
    <line x1="263.14" y1="160.71" x2="283.14" y2="160.71"/>
    <line x1="283.14" y1="160.71" x2="283.14" y2="180.71"/>
    <line x1="263.14" y1="160.71" x2="263.14" y2="180.71"/>
    <line x1="297.28" y1="146.57" x2="317.28" y2="146.57"/>
    <line x1="317.28" y1="194.85" x2="297.28" y2="194.85"/>
    <line x1="331.42" y1="160.71" x2="331.42" y2="180.71"/>
    <line x1="283.14" y1="180.71" x2="283.14" y2="160.71"/>
    <line x1="317.28" y1="146.57" x2="331.42" y2="160.71"/>
    <line x1="331.42" y1="180.71" x2="317.28" y2="194.85"/>
    <line x1="297.28" y1="194.85" x2="283.14" y2="180.71"/>
    <line x1="351.42" y1="160.71" x2="351.42" y2="180.71"/>
    <line x1="331.42" y1="160.71" x2="331.42" y2="180.71"/>
    <line x1="365.56" y1="146.57" x2="385.56" y2="146.57"/>
    <line x1="399.71" y1="160.71" x2="399.71" y2="180.71"/>
    <line x1="351.42" y1="180.71" x2="351.42" y2="160.71"/>
    <line x1="399.71" y1="180.71" x2="385.56" y2="194.85"/>
    <line x1="351.42" y1="160.71" x2="365.56" y2="146.57"/>
    <line x1="365.56" y1="194.85" x2="351.42" y2="180.71"/>
    <line x1="399.71" y1="160.71" x2="419.71" y2="160.71"/>
    <line x1="419.71" y1="180.71" x2="399.71" y2="180.71"/>
    <line x1="399.71" y1="160.71" x2="399.71" y2="180.71"/>
    <line x1="433.85" y1="146.57" x2="453.85" y2="146.57"/>
    <line x1="467.99" y1="160.71" x2="467.99" y2="180.71"/>
    <line x1="453.85" y1="146.57" x2="467.99" y2="160.71"/>
    <line x1="467.99" y1="180.71" x2="453.85" y2="194.85"/>
    <line x1="433.85" y1="194.85" x2="419.71" y2="180.71"/>
    <line x1="487.99" y1="160.71" x2="487.99" y2="180.71"/>
    <line x1="467.99" y1="160.71" x2="467.99" y2="180.71"/>
    <line x1="522.13" y1="194.85" x2="502.13" y2="194.85"/>
    <line x1="536.27" y1="160.71" x2="536.27" y2="180.71"/>
    <line x1="487.99" y1="180.71" x2="487.99" y2="160.71"/>
    <line x1="522.13" y1="146.57" x2="536.27" y2="160.71"/>
    <line x1="536.27" y1="180.71" x2="522.13" y2="194.85"/>
    <line x1="487.99" y1="160.71" x2="502.13" y2="146.57"/>
    <line x1="502.13" y1="194.85" x2="487.99" y2="180.71"/>
    <line x1="536.27" y1="160.71" x2="556.27" y2="160.71"/>
    <line x1="556.27" y1="180.71" x2="536.27" y2="180.71"/>
    <line x1="536.27" y1="160.71" x2="536.27" y2="180.71"/>
    <line x1="570.42" y1="146.57" x2="590.42" y2="146.57"/>
    <line x1="590.42" y1="194.85" x2="570.42" y2="194.85"/>
    <line x1="590.42" y1="146.57" x2="604.56" y2="160.71"/>
    <line x1="604.56" y1="180.71" x2="590.42" y2="194.85"/>
    <line x1="570.42" y1="194.85" x2="556.27" y2="180.71"/>
    <line x1="604.56" y1="160.71" x2="624.56" y2="160.71"/>
    <line x1="624.56" y1="180.71" x2="604.56" y2="180.71"/>
    <line x1="624.56" y1="160.71" x2="624.56" y2="180.71"/>
    <line x1="638.70" y1="146.57" x2="658.70" y2="146.57"/>
    <line x1="624.56" y1="180.71" x2="624.56" y2="160.71"/>
    <line x1="658.70" y1="146.57" x2="672.84" y2="160.71"/>
    <line x1="624.56" y1="160.71" x2="638.70" y2="146.57"/>
    <line x1="672.84" y1="160.71" x2="692.84" y2="160.71"/>
    <line x1="692.84" y1="180.71" x2="672.84" y2="180.71"/>
    <line x1="692.84" y1="160.71" x2="692.84" y2="180.71"/>
    <line x1="44.14" y1="194.85" x2="44.14" y2="214.85"/>
    <line x1="24.14" y1="194.85" x2="24.14" y2="214.85"/>
    <line x1="58.28" y1="180.71" x2="78.28" y2="180.71"/>
    <line x1="44.14" y1="214.85" x2="44.14" y2="194.85"/>
    <line x1="44.14" y1="194.85" x2="58.28" y2="180.71"/>
    <line x1="58.28" y1="228.99" x2="44.14" y2="214.85"/>
    <line x1="92.43" y1="194.85" x2="112.43" y2="194.85"/>
    <line x1="112.43" y1="214.85" x2="92.43" y2="214.85"/>
    <line x1="112.43" y1="194.85" x2="112.43" y2="214.85"/>
    <line x1="146.57" y1="228.99" x2="126.57" y2="228.99"/>
    <line x1="160.71" y1="194.85" x2="160.71" y2="214.85"/>
    <line x1="112.43" y1="214.85" x2="112.43" y2="194.85"/>
    <line x1="146.57" y1="180.71" x2="160.71" y2="194.85"/>
    <line x1="160.71" y1="214.85" x2="146.57" y2="228.99"/>
    <line x1="112.43" y1="194.85" x2="126.57" y2="180.71"/>
    <line x1="126.57" y1="228.99" x2="112.43" y2="214.85"/>
    <line x1="160.71" y1="194.85" x2="180.71" y2="194.85"/>
    <line x1="180.71" y1="194.85" x2="180.71" y2="214.85"/>
    <line x1="160.71" y1="194.85" x2="160.71" y2="214.85"/>
    <line x1="194.85" y1="180.71" x2="214.85" y2="180.71"/>
    <line x1="214.85" y1="228.99" x2="194.85" y2="228.99"/>
    <line x1="180.71" y1="214.85" x2="180.71" y2="194.85"/>
    <line x1="214.85" y1="180.71" x2="228.99" y2="194.85"/>
    <line x1="228.99" y1="214.85" x2="214.85" y2="228.99"/>
    <line x1="194.85" y1="228.99" x2="180.71" y2="214.85"/>
    <line x1="228.99" y1="194.85" x2="248.99" y2="194.85"/>
    <line x1="283.14" y1="228.99" x2="263.14" y2="228.99"/>
    <line x1="283.14" y1="180.71" x2="297.28" y2="194.85"/>
    <line x1="248.99" y1="194.85" x2="263.14" y2="180.71"/>
    <line x1="263.14" y1="228.99" x2="248.99" y2="214.85"/>
    <line x1="297.28" y1="194.85" x2="317.28" y2="194.85"/>
    <line x1="317.28" y1="214.85" x2="297.28" y2="214.85"/>
    <line x1="317.28" y1="194.85" x2="317.28" y2="214.85"/>
    <line x1="365.56" y1="194.85" x2="365.56" y2="214.85"/>
    <line x1="317.28" y1="214.85" x2="317.28" y2="194.85"/>
    <line x1="351.42" y1="180.71" x2="365.56" y2="194.85"/>
    <line x1="365.56" y1="214.85" x2="351.42" y2="228.99"/>
    <line x1="317.28" y1="194.85" x2="331.42" y2="180.71"/>
    <line x1="331.42" y1="228.99" x2="317.28" y2="214.85"/>
    <line x1="365.56" y1="194.85" x2="365.56" y2="214.85"/>
    <line x1="399.71" y1="180.71" x2="419.71" y2="180.71"/>
    <line x1="419.71" y1="228.99" x2="399.71" y2="228.99"/>
    <line x1="433.85" y1="194.85" x2="433.85" y2="214.85"/>
    <line x1="419.71" y1="180.71" x2="433.85" y2="194.85"/>
    <line x1="433.85" y1="214.85" x2="419.71" y2="228.99"/>
    <line x1="385.56" y1="194.85" x2="399.71" y2="180.71"/>
    <line x1="399.71" y1="228.99" x2="385.56" y2="214.85"/>
    <line x1="453.85" y1="214.85" x2="433.85" y2="214.85"/>
    <line x1="453.85" y1="194.85" x2="453.85" y2="214.85"/>
    <line x1="433.85" y1="194.85" x2="433.85" y2="214.85"/>
    <line x1="453.85" y1="214.85" x2="453.85" y2="194.85"/>
    <line x1="487.99" y1="180.71" x2="502.13" y2="194.85"/>
    <line x1="502.13" y1="214.85" x2="487.99" y2="228.99"/>
    <line x1="453.85" y1="194.85" x2="467.99" y2="180.71"/>
    <line x1="467.99" y1="228.99" x2="453.85" y2="214.85"/>
    <line x1="502.13" y1="194.85" x2="522.13" y2="194.85"/>
    <line x1="522.13" y1="214.85" x2="502.13" y2="214.85"/>
    <line x1="522.13" y1="194.85" x2="522.13" y2="214.85"/>
    <line x1="536.27" y1="180.71" x2="556.27" y2="180.71"/>
    <line x1="522.13" y1="214.85" x2="522.13" y2="194.85"/>
    <line x1="556.27" y1="180.71" x2="570.42" y2="194.85"/>
    <line x1="570.42" y1="214.85" x2="556.27" y2="228.99"/>
    <line x1="522.13" y1="194.85" x2="536.27" y2="180.71"/>
    <line x1="570.42" y1="194.85" x2="590.42" y2="194.85"/>
    <line x1="590.42" y1="214.85" x2="570.42" y2="214.85"/>
    <line x1="604.56" y1="180.71" x2="624.56" y2="180.71"/>
    <line x1="638.70" y1="194.85" x2="638.70" y2="214.85"/>
    <line x1="590.42" y1="194.85" x2="604.56" y2="180.71"/>
    <line x1="604.56" y1="228.99" x2="590.42" y2="214.85"/>
    <line x1="658.70" y1="214.85" x2="638.70" y2="214.85"/>
    <line x1="658.70" y1="194.85" x2="658.70" y2="214.85"/>
    <line x1="638.70" y1="194.85" x2="638.70" y2="214.85"/>
    <line x1="672.84" y1="180.71" x2="692.84" y2="180.71"/>
    <line x1="706.98" y1="194.85" x2="706.98" y2="214.85"/>
    <line x1="658.70" y1="214.85" x2="658.70" y2="194.85"/>
    <line x1="692.84" y1="180.71" x2="706.98" y2="194.85"/>
    <line x1="706.98" y1="214.85" x2="692.84" y2="228.99"/>
    <line x1="672.84" y1="228.99" x2="658.70" y2="214.85"/>
    <line x1="58.28" y1="228.99" x2="58.28" y2="248.99"/>
    <line x1="10.00" y1="248.99" x2="10.00" y2="228.99"/>
    <line x1="44.14" y1="214.85" x2="58.28" y2="228.99"/>
    <line x1="58.28" y1="248.99" x2="44.14" y2="263.14"/>
    <line x1="10.00" y1="228.99" x2="24.14" y2="214.85"/>
    <line x1="24.14" y1="263.14" x2="10.00" y2="248.99"/>
    <line x1="78.28" y1="248.99" x2="58.28" y2="248.99"/>
    <line x1="78.28" y1="228.99" x2="78.28" y2="248.99"/>
    <line x1="58.28" y1="228.99" x2="58.28" y2="248.99"/>
    <line x1="92.43" y1="214.85" x2="112.43" y2="214.85"/>
    <line x1="78.28" y1="248.99" x2="78.28" y2="228.99"/>
    <line x1="112.43" y1="214.85" x2="126.57" y2="228.99"/>
    <line x1="126.57" y1="248.99" x2="112.43" y2="263.14"/>
    <line x1="92.43" y1="263.14" x2="78.28" y2="248.99"/>
    <line x1="126.57" y1="228.99" x2="146.57" y2="228.99"/>
    <line x1="180.71" y1="263.14" x2="160.71" y2="263.14"/>
    <line x1="194.85" y1="228.99" x2="194.85" y2="248.99"/>
    <line x1="180.71" y1="214.85" x2="194.85" y2="228.99"/>
    <line x1="194.85" y1="248.99" x2="180.71" y2="263.14"/>
    <line x1="146.57" y1="228.99" x2="160.71" y2="214.85"/>
    <line x1="160.71" y1="263.14" x2="146.57" y2="248.99"/>
    <line x1="194.85" y1="228.99" x2="214.85" y2="228.99"/>
    <line x1="194.85" y1="228.99" x2="194.85" y2="248.99"/>
    <line x1="248.99" y1="263.14" x2="228.99" y2="263.14"/>
    <line x1="248.99" y1="214.85" x2="263.14" y2="228.99"/>
    <line x1="214.85" y1="228.99" x2="228.99" y2="214.85"/>
    <line x1="228.99" y1="263.14" x2="214.85" y2="248.99"/>
    <line x1="263.14" y1="228.99" x2="283.14" y2="228.99"/>
    <line x1="283.14" y1="248.99" x2="263.14" y2="248.99"/>
    <line x1="283.14" y1="228.99" x2="283.14" y2="248.99"/>
    <line x1="297.28" y1="214.85" x2="317.28" y2="214.85"/>
    <line x1="317.28" y1="263.14" x2="297.28" y2="263.14"/>
    <line x1="331.42" y1="228.99" x2="331.42" y2="248.99"/>
    <line x1="283.14" y1="248.99" x2="283.14" y2="228.99"/>
    <line x1="317.28" y1="214.85" x2="331.42" y2="228.99"/>
    <line x1="331.42" y1="248.99" x2="317.28" y2="263.14"/>
    <line x1="297.28" y1="263.14" x2="283.14" y2="248.99"/>
    <line x1="351.42" y1="248.99" x2="331.42" y2="248.99"/>
    <line x1="351.42" y1="228.99" x2="351.42" y2="248.99"/>
    <line x1="331.42" y1="228.99" x2="331.42" y2="248.99"/>
    <line x1="385.56" y1="263.14" x2="365.56" y2="263.14"/>
    <line x1="351.42" y1="248.99" x2="351.42" y2="228.99"/>
    <line x1="385.56" y1="214.85" x2="399.71" y2="228.99"/>
    <line x1="399.71" y1="248.99" x2="385.56" y2="263.14"/>
    <line x1="351.42" y1="228.99" x2="365.56" y2="214.85"/>
    <line x1="399.71" y1="228.99" x2="419.71" y2="228.99"/>
    <line x1="419.71" y1="248.99" x2="399.71" y2="248.99"/>
    <line x1="419.71" y1="228.99" x2="419.71" y2="248.99"/>
    <line x1="433.85" y1="214.85" x2="453.85" y2="214.85"/>
    <line x1="453.85" y1="263.14" x2="433.85" y2="263.14"/>
    <line x1="467.99" y1="228.99" x2="467.99" y2="248.99"/>
    <line x1="419.71" y1="248.99" x2="419.71" y2="228.99"/>
    <line x1="453.85" y1="214.85" x2="467.99" y2="228.99"/>
    <line x1="467.99" y1="248.99" x2="453.85" y2="263.14"/>
    <line x1="419.71" y1="228.99" x2="433.85" y2="214.85"/>
    <line x1="487.99" y1="248.99" x2="467.99" y2="248.99"/>
    <line x1="487.99" y1="228.99" x2="487.99" y2="248.99"/>
    <line x1="467.99" y1="228.99" x2="467.99" y2="248.99"/>
    <line x1="502.13" y1="214.85" x2="522.13" y2="214.85"/>
    <line x1="522.13" y1="263.14" x2="502.13" y2="263.14"/>
    <line x1="536.27" y1="228.99" x2="536.27" y2="248.99"/>
    <line x1="487.99" y1="248.99" x2="487.99" y2="228.99"/>
    <line x1="536.27" y1="248.99" x2="522.13" y2="263.14"/>
    <line x1="487.99" y1="228.99" x2="502.13" y2="214.85"/>
    <line x1="556.27" y1="248.99" x2="536.27" y2="248.99"/>
    <line x1="536.27" y1="228.99" x2="536.27" y2="248.99"/>
    <line x1="570.42" y1="214.85" x2="590.42" y2="214.85"/>
    <line x1="590.42" y1="263.14" x2="570.42" y2="263.14"/>
    <line x1="604.56" y1="228.99" x2="604.56" y2="248.99"/>
    <line x1="590.42" y1="214.85" x2="604.56" y2="228.99"/>
    <line x1="556.27" y1="228.99" x2="570.42" y2="214.85"/>
    <line x1="624.56" y1="248.99" x2="604.56" y2="248.99"/>
    <line x1="624.56" y1="228.99" x2="624.56" y2="248.99"/>
    <line x1="604.56" y1="228.99" x2="604.56" y2="248.99"/>
    <line x1="638.70" y1="214.85" x2="658.70" y2="214.85"/>
    <line x1="658.70" y1="263.14" x2="638.70" y2="263.14"/>
    <line x1="672.84" y1="228.99" x2="672.84" y2="248.99"/>
    <line x1="624.56" y1="248.99" x2="624.56" y2="228.99"/>
    <line x1="658.70" y1="214.85" x2="672.84" y2="228.99"/>
    <line x1="672.84" y1="248.99" x2="658.70" y2="263.14"/>
    <line x1="638.70" y1="263.14" x2="624.56" y2="248.99"/>
    <line x1="692.84" y1="248.99" x2="672.84" y2="248.99"/>
    <line x1="692.84" y1="228.99" x2="692.84" y2="248.99"/>
    <line x1="672.84" y1="228.99" x2="672.84" y2="248.99"/>
    <line x1="24.14" y1="263.14" x2="24.14" y2="283.14"/>
    <line x1="58.28" y1="248.99" x2="78.28" y2="248.99"/>
    <line x1="92.43" y1="263.14" x2="92.43" y2="283.14"/>
    <line x1="78.28" y1="248.99" x2="92.43" y2="263.14"/>
    <line x1="92.43" y1="283.14" x2="78.28" y2="297.28"/>
    <line x1="44.14" y1="263.14" x2="58.28" y2="248.99"/>
    <line x1="58.28" y1="297.28" x2="44.14" y2="283.14"/>
    <line x1="112.43" y1="263.14" x2="112.43" y2="283.14"/>
    <line x1="92.43" y1="263.14" x2="92.43" y2="283.14"/>
    <line x1="112.43" y1="283.14" x2="112.43" y2="263.14"/>
    <line x1="146.57" y1="248.99" x2="160.71" y2="263.14"/>
    <line x1="112.43" y1="263.14" x2="126.57" y2="248.99"/>
    <line x1="126.57" y1="297.28" x2="112.43" y2="283.14"/>
    <line x1="160.71" y1="263.14" x2="180.71" y2="263.14"/>
    <line x1="180.71" y1="283.14" x2="160.71" y2="283.14"/>
    <line x1="180.71" y1="263.14" x2="180.71" y2="283.14"/>
    <line x1="214.85" y1="297.28" x2="194.85" y2="297.28"/>
    <line x1="228.99" y1="263.14" x2="228.99" y2="283.14"/>
    <line x1="180.71" y1="283.14" x2="180.71" y2="263.14"/>
    <line x1="214.85" y1="248.99" x2="228.99" y2="263.14"/>
    <line x1="228.99" y1="283.14" x2="214.85" y2="297.28"/>
    <line x1="180.71" y1="263.14" x2="194.85" y2="248.99"/>
    <line x1="194.85" y1="297.28" x2="180.71" y2="283.14"/>
    <line x1="228.99" y1="263.14" x2="248.99" y2="263.14"/>
    <line x1="248.99" y1="283.14" x2="228.99" y2="283.14"/>
    <line x1="228.99" y1="263.14" x2="228.99" y2="283.14"/>
    <line x1="263.14" y1="248.99" x2="283.14" y2="248.99"/>
    <line x1="283.14" y1="297.28" x2="263.14" y2="297.28"/>
    <line x1="283.14" y1="248.99" x2="297.28" y2="263.14"/>
    <line x1="297.28" y1="283.14" x2="283.14" y2="297.28"/>
    <line x1="263.14" y1="297.28" x2="248.99" y2="283.14"/>
    <line x1="297.28" y1="263.14" x2="317.28" y2="263.14"/>
    <line x1="317.28" y1="283.14" x2="297.28" y2="283.14"/>
    <line x1="317.28" y1="263.14" x2="317.28" y2="283.14"/>
    <line x1="331.42" y1="248.99" x2="351.42" y2="248.99"/>
    <line x1="317.28" y1="283.14" x2="317.28" y2="263.14"/>
    <line x1="365.56" y1="283.14" x2="351.42" y2="297.28"/>
    <line x1="317.28" y1="263.14" x2="331.42" y2="248.99"/>
    <line x1="331.42" y1="297.28" x2="317.28" y2="283.14"/>
    <line x1="365.56" y1="263.14" x2="385.56" y2="263.14"/>
    <line x1="385.56" y1="283.14" x2="365.56" y2="283.14"/>
    <line x1="399.71" y1="248.99" x2="419.71" y2="248.99"/>
    <line x1="419.71" y1="297.28" x2="399.71" y2="297.28"/>
    <line x1="433.85" y1="263.14" x2="433.85" y2="283.14"/>
    <line x1="385.56" y1="263.14" x2="399.71" y2="248.99"/>
    <line x1="399.71" y1="297.28" x2="385.56" y2="283.14"/>
    <line x1="433.85" y1="263.14" x2="453.85" y2="263.14"/>
    <line x1="433.85" y1="263.14" x2="433.85" y2="283.14"/>
    <line x1="467.99" y1="248.99" x2="487.99" y2="248.99"/>
    <line x1="487.99" y1="297.28" x2="467.99" y2="297.28"/>
    <line x1="502.13" y1="263.14" x2="502.13" y2="283.14"/>
    <line x1="502.13" y1="283.14" x2="487.99" y2="297.28"/>
    <line x1="453.85" y1="263.14" x2="467.99" y2="248.99"/>
    <line x1="467.99" y1="297.28" x2="453.85" y2="283.14"/>
    <line x1="502.13" y1="263.14" x2="522.13" y2="263.14"/>
    <line x1="522.13" y1="263.14" x2="522.13" y2="283.14"/>
    <line x1="502.13" y1="263.14" x2="502.13" y2="283.14"/>
    <line x1="536.27" y1="248.99" x2="556.27" y2="248.99"/>
    <line x1="556.27" y1="297.28" x2="536.27" y2="297.28"/>
    <line x1="522.13" y1="283.14" x2="522.13" y2="263.14"/>
    <line x1="522.13" y1="263.14" x2="536.27" y2="248.99"/>
    <line x1="536.27" y1="297.28" x2="522.13" y2="283.14"/>
    <line x1="570.42" y1="263.14" x2="590.42" y2="263.14"/>
    <line x1="590.42" y1="283.14" x2="570.42" y2="283.14"/>
    <line x1="590.42" y1="263.14" x2="590.42" y2="283.14"/>
    <line x1="604.56" y1="248.99" x2="624.56" y2="248.99"/>
    <line x1="590.42" y1="283.14" x2="590.42" y2="263.14"/>
    <line x1="624.56" y1="248.99" x2="638.70" y2="263.14"/>
    <line x1="638.70" y1="283.14" x2="624.56" y2="297.28"/>
    <line x1="604.56" y1="297.28" x2="590.42" y2="283.14"/>
    <line x1="638.70" y1="263.14" x2="658.70" y2="263.14"/>
    <line x1="658.70" y1="283.14" x2="638.70" y2="283.14"/>
    <line x1="658.70" y1="263.14" x2="658.70" y2="283.14"/>
    <line x1="672.84" y1="248.99" x2="692.84" y2="248.99"/>
    <line x1="692.84" y1="297.28" x2="672.84" y2="297.28"/>
    <line x1="706.98" y1="263.14" x2="706.98" y2="283.14"/>
    <line x1="658.70" y1="283.14" x2="658.70" y2="263.14"/>
    <line x1="692.84" y1="248.99" x2="706.98" y2="263.14"/>
    <line x1="706.98" y1="283.14" x2="692.84" y2="297.28"/>
    <line x1="658.70" y1="263.14" x2="672.84" y2="248.99"/>
    <line x1="58.28" y1="297.28" x2="58.28" y2="317.28"/>
    <line x1="10.00" y1="317.28" x2="10.00" y2="297.28"/>
    <line x1="44.14" y1="283.14" x2="58.28" y2="297.28"/>
    <line x1="58.28" y1="317.28" x2="44.14" y2="331.42"/>
    <line x1="10.00" y1="297.28" x2="24.14" y2="283.14"/>
    <line x1="24.14" y1="331.42" x2="10.00" y2="317.28"/>
    <line x1="78.28" y1="297.28" x2="78.28" y2="317.28"/>
    <line x1="58.28" y1="297.28" x2="58.28" y2="317.28"/>
    <line x1="112.43" y1="331.42" x2="92.43" y2="331.42"/>
    <line x1="126.57" y1="297.28" x2="126.57" y2="317.28"/>
    <line x1="78.28" y1="317.28" x2="78.28" y2="297.28"/>
    <line x1="112.43" y1="283.14" x2="126.57" y2="297.28"/>
    <line x1="78.28" y1="297.28" x2="92.43" y2="283.14"/>
    <line x1="92.43" y1="331.42" x2="78.28" y2="317.28"/>
    <line x1="146.57" y1="317.28" x2="126.57" y2="317.28"/>
    <line x1="146.57" y1="297.28" x2="146.57" y2="317.28"/>
    <line x1="126.57" y1="297.28" x2="126.57" y2="317.28"/>
    <line x1="160.71" y1="283.14" x2="180.71" y2="283.14"/>
    <line x1="180.71" y1="331.42" x2="160.71" y2="331.42"/>
    <line x1="146.57" y1="317.28" x2="146.57" y2="297.28"/>
    <line x1="180.71" y1="283.14" x2="194.85" y2="297.28"/>
    <line x1="160.71" y1="331.42" x2="146.57" y2="317.28"/>
    <line x1="194.85" y1="297.28" x2="214.85" y2="297.28"/>
    <line x1="214.85" y1="317.28" x2="194.85" y2="317.28"/>
    <line x1="228.99" y1="283.14" x2="248.99" y2="283.14"/>
    <line x1="248.99" y1="331.42" x2="228.99" y2="331.42"/>
    <line x1="248.99" y1="283.14" x2="263.14" y2="297.28"/>
    <line x1="214.85" y1="297.28" x2="228.99" y2="283.14"/>
    <line x1="228.99" y1="331.42" x2="214.85" y2="317.28"/>
    <line x1="263.14" y1="297.28" x2="283.14" y2="297.28"/>
    <line x1="283.14" y1="317.28" x2="263.14" y2="317.28"/>
    <line x1="297.28" y1="283.14" x2="317.28" y2="283.14"/>
    <line x1="331.42" y1="297.28" x2="331.42" y2="317.28"/>
    <line x1="317.28" y1="283.14" x2="331.42" y2="297.28"/>
    <line x1="331.42" y1="317.28" x2="317.28" y2="331.42"/>
    <line x1="283.14" y1="297.28" x2="297.28" y2="283.14"/>
    <line x1="297.28" y1="331.42" x2="283.14" y2="317.28"/>
    <line x1="331.42" y1="297.28" x2="331.42" y2="317.28"/>
    <line x1="365.56" y1="283.14" x2="385.56" y2="283.14"/>
    <line x1="385.56" y1="331.42" x2="365.56" y2="331.42"/>
    <line x1="385.56" y1="283.14" x2="399.71" y2="297.28"/>
    <line x1="399.71" y1="317.28" x2="385.56" y2="331.42"/>
    <line x1="351.42" y1="297.28" x2="365.56" y2="283.14"/>
    <line x1="365.56" y1="331.42" x2="351.42" y2="317.28"/>
    <line x1="399.71" y1="297.28" x2="419.71" y2="297.28"/>
    <line x1="419.71" y1="317.28" x2="399.71" y2="317.28"/>
    <line x1="419.71" y1="297.28" x2="419.71" y2="317.28"/>
    <line x1="467.99" y1="297.28" x2="467.99" y2="317.28"/>
    <line x1="419.71" y1="317.28" x2="419.71" y2="297.28"/>
    <line x1="453.85" y1="283.14" x2="467.99" y2="297.28"/>
    <line x1="433.85" y1="331.42" x2="419.71" y2="317.28"/>
    <line x1="467.99" y1="297.28" x2="487.99" y2="297.28"/>
    <line x1="487.99" y1="297.28" x2="487.99" y2="317.28"/>
    <line x1="467.99" y1="297.28" x2="467.99" y2="317.28"/>
    <line x1="522.13" y1="331.42" x2="502.13" y2="331.42"/>
    <line x1="487.99" y1="317.28" x2="487.99" y2="297.28"/>
    <line x1="522.13" y1="283.14" x2="536.27" y2="297.28"/>
    <line x1="536.27" y1="317.28" x2="522.13" y2="331.42"/>
    <line x1="487.99" y1="297.28" x2="502.13" y2="283.14"/>
    <line x1="536.27" y1="297.28" x2="556.27" y2="297.28"/>
    <line x1="556.27" y1="317.28" x2="536.27" y2="317.28"/>
    <line x1="556.27" y1="297.28" x2="556.27" y2="317.28"/>
    <line x1="570.42" y1="283.14" x2="590.42" y2="283.14"/>
    <line x1="604.56" y1="297.28" x2="604.56" y2="317.28"/>
    <line x1="556.27" y1="317.28" x2="556.27" y2="297.28"/>
    <line x1="590.42" y1="283.14" x2="604.56" y2="297.28"/>
    <line x1="570.42" y1="331.42" x2="556.27" y2="317.28"/>
    <line x1="624.56" y1="317.28" x2="604.56" y2="317.28"/>
    <line x1="624.56" y1="297.28" x2="624.56" y2="317.28"/>
    <line x1="604.56" y1="297.28" x2="604.56" y2="317.28"/>
    <line x1="638.70" y1="283.14" x2="658.70" y2="283.14"/>
    <line x1="672.84" y1="297.28" x2="672.84" y2="317.28"/>
    <line x1="624.56" y1="317.28" x2="624.56" y2="297.28"/>
    <line x1="672.84" y1="317.28" x2="658.70" y2="331.42"/>
    <line x1="624.56" y1="297.28" x2="638.70" y2="283.14"/>
    <line x1="672.84" y1="297.28" x2="692.84" y2="297.28"/>
    <line x1="692.84" y1="297.28" x2="692.84" y2="317.28"/>
    <line x1="672.84" y1="297.28" x2="672.84" y2="317.28"/>
    <line x1="44.14" y1="351.42" x2="24.14" y2="351.42"/>
    <line x1="44.14" y1="331.42" x2="44.14" y2="351.42"/>
    <line x1="24.14" y1="331.42" x2="24.14" y2="351.42"/>
    <line x1="78.28" y1="365.56" x2="58.28" y2="365.56"/>
    <line x1="44.14" y1="351.42" x2="44.14" y2="331.42"/>
    <line x1="78.28" y1="317.28" x2="92.43" y2="331.42"/>
    <line x1="92.43" y1="351.42" x2="78.28" y2="365.56"/>
    <line x1="44.14" y1="331.42" x2="58.28" y2="317.28"/>
    <line x1="92.43" y1="331.42" x2="112.43" y2="331.42"/>
    <line x1="112.43" y1="351.42" x2="92.43" y2="351.42"/>
    <line x1="112.43" y1="331.42" x2="112.43" y2="351.42"/>
    <line x1="126.57" y1="317.28" x2="146.57" y2="317.28"/>
    <line x1="146.57" y1="365.56" x2="126.57" y2="365.56"/>
    <line x1="112.43" y1="351.42" x2="112.43" y2="331.42"/>
    <line x1="146.57" y1="317.28" x2="160.71" y2="331.42"/>
    <line x1="160.71" y1="331.42" x2="180.71" y2="331.42"/>
    <line x1="180.71" y1="351.42" x2="160.71" y2="351.42"/>
    <line x1="180.71" y1="331.42" x2="180.71" y2="351.42"/>
    <line x1="194.85" y1="317.28" x2="214.85" y2="317.28"/>
    <line x1="180.71" y1="351.42" x2="180.71" y2="331.42"/>
    <line x1="214.85" y1="317.28" x2="228.99" y2="331.42"/>
    <line x1="194.85" y1="365.56" x2="180.71" y2="351.42"/>
    <line x1="228.99" y1="331.42" x2="248.99" y2="331.42"/>
    <line x1="248.99" y1="351.42" x2="228.99" y2="351.42"/>
    <line x1="248.99" y1="331.42" x2="248.99" y2="351.42"/>
    <line x1="263.14" y1="317.28" x2="283.14" y2="317.28"/>
    <line x1="297.28" y1="331.42" x2="297.28" y2="351.42"/>
    <line x1="248.99" y1="351.42" x2="248.99" y2="331.42"/>
    <line x1="283.14" y1="317.28" x2="297.28" y2="331.42"/>
    <line x1="297.28" y1="351.42" x2="283.14" y2="365.56"/>
    <line x1="263.14" y1="365.56" x2="248.99" y2="351.42"/>
    <line x1="317.28" y1="351.42" x2="297.28" y2="351.42"/>
    <line x1="317.28" y1="331.42" x2="317.28" y2="351.42"/>
    <line x1="297.28" y1="331.42" x2="297.28" y2="351.42"/>
    <line x1="351.42" y1="365.56" x2="331.42" y2="365.56"/>
    <line x1="317.28" y1="351.42" x2="317.28" y2="331.42"/>
    <line x1="351.42" y1="317.28" x2="365.56" y2="331.42"/>
    <line x1="317.28" y1="331.42" x2="331.42" y2="317.28"/>
    <line x1="331.42" y1="365.56" x2="317.28" y2="351.42"/>
    <line x1="365.56" y1="331.42" x2="385.56" y2="331.42"/>
    <line x1="385.56" y1="351.42" x2="365.56" y2="351.42"/>
    <line x1="399.71" y1="317.28" x2="419.71" y2="317.28"/>
    <line x1="419.71" y1="365.56" x2="399.71" y2="365.56"/>
    <line x1="433.85" y1="331.42" x2="433.85" y2="351.42"/>
    <line x1="419.71" y1="317.28" x2="433.85" y2="331.42"/>
    <line x1="385.56" y1="331.42" x2="399.71" y2="317.28"/>
    <line x1="399.71" y1="365.56" x2="385.56" y2="351.42"/>
    <line x1="453.85" y1="351.42" x2="433.85" y2="351.42"/>
    <line x1="453.85" y1="331.42" x2="453.85" y2="351.42"/>
    <line x1="433.85" y1="331.42" x2="433.85" y2="351.42"/>
    <line x1="487.99" y1="365.56" x2="467.99" y2="365.56"/>
    <line x1="453.85" y1="351.42" x2="453.85" y2="331.42"/>
    <line x1="502.13" y1="351.42" x2="487.99" y2="365.56"/>
    <line x1="467.99" y1="365.56" x2="453.85" y2="351.42"/>
    <line x1="502.13" y1="331.42" x2="522.13" y2="331.42"/>
    <line x1="522.13" y1="351.42" x2="502.13" y2="351.42"/>
    <line x1="536.27" y1="317.28" x2="556.27" y2="317.28"/>
    <line x1="556.27" y1="365.56" x2="536.27" y2="365.56"/>
    <line x1="570.42" y1="331.42" x2="570.42" y2="351.42"/>
    <line x1="556.27" y1="317.28" x2="570.42" y2="331.42"/>
    <line x1="570.42" y1="351.42" x2="556.27" y2="365.56"/>
    <line x1="522.13" y1="331.42" x2="536.27" y2="317.28"/>
    <line x1="536.27" y1="365.56" x2="522.13" y2="351.42"/>
    <line x1="590.42" y1="351.42" x2="570.42" y2="351.42"/>
    <line x1="590.42" y1="331.42" x2="590.42" y2="351.42"/>
    <line x1="570.42" y1="331.42" x2="570.42" y2="351.42"/>
    <line x1="604.56" y1="317.28" x2="624.56" y2="317.28"/>
    <line x1="624.56" y1="365.56" x2="604.56" y2="365.56"/>
    <line x1="638.70" y1="331.42" x2="638.70" y2="351.42"/>
    <line x1="590.42" y1="351.42" x2="590.42" y2="331.42"/>
    <line x1="604.56" y1="365.56" x2="590.42" y2="351.42"/>
    <line x1="658.70" y1="351.42" x2="638.70" y2="351.42"/>
    <line x1="638.70" y1="331.42" x2="638.70" y2="351.42"/>
    <line x1="692.84" y1="365.56" x2="672.84" y2="365.56"/>
    <line x1="706.98" y1="331.42" x2="706.98" y2="351.42"/>
    <line x1="692.84" y1="317.28" x2="706.98" y2="331.42"/>
    <line x1="706.98" y1="351.42" x2="692.84" y2="365.56"/>
    <line x1="658.70" y1="331.42" x2="672.84" y2="317.28"/>
    <line x1="672.84" y1="365.56" x2="658.70" y2="351.42"/>
    <line x1="24.14" y1="351.42" x2="44.14" y2="351.42"/>
    <line x1="10.00" y1="385.56" x2="10.00" y2="365.56"/>
    <line x1="10.00" y1="365.56" x2="24.14" y2="351.42"/>
    <line x1="24.14" y1="399.71" x2="10.00" y2="385.56"/>
    <line x1="58.28" y1="365.56" x2="78.28" y2="365.56"/>
    <line x1="78.28" y1="385.56" x2="58.28" y2="385.56"/>
    <line x1="78.28" y1="365.56" x2="78.28" y2="385.56"/>
    <line x1="92.43" y1="351.42" x2="112.43" y2="351.42"/>
    <line x1="112.43" y1="399.71" x2="92.43" y2="399.71"/>
    <line x1="126.57" y1="365.56" x2="126.57" y2="385.56"/>
    <line x1="78.28" y1="385.56" x2="78.28" y2="365.56"/>
    <line x1="126.57" y1="385.56" x2="112.43" y2="399.71"/>
    <line x1="78.28" y1="365.56" x2="92.43" y2="351.42"/>
    <line x1="92.43" y1="399.71" x2="78.28" y2="385.56"/>
    <line x1="126.57" y1="365.56" x2="146.57" y2="365.56"/>
    <line x1="126.57" y1="365.56" x2="126.57" y2="385.56"/>
    <line x1="160.71" y1="351.42" x2="180.71" y2="351.42"/>
    <line x1="194.85" y1="365.56" x2="194.85" y2="385.56"/>
    <line x1="180.71" y1="351.42" x2="194.85" y2="365.56"/>
    <line x1="194.85" y1="385.56" x2="180.71" y2="399.71"/>
    <line x1="160.71" y1="399.71" x2="146.57" y2="385.56"/>
    <line x1="214.85" y1="365.56" x2="214.85" y2="385.56"/>
    <line x1="194.85" y1="365.56" x2="194.85" y2="385.56"/>
    <line x1="228.99" y1="351.42" x2="248.99" y2="351.42"/>
    <line x1="248.99" y1="399.71" x2="228.99" y2="399.71"/>
    <line x1="263.14" y1="365.56" x2="263.14" y2="385.56"/>
    <line x1="214.85" y1="385.56" x2="214.85" y2="365.56"/>
    <line x1="248.99" y1="351.42" x2="263.14" y2="365.56"/>
    <line x1="263.14" y1="385.56" x2="248.99" y2="399.71"/>
    <line x1="228.99" y1="399.71" x2="214.85" y2="385.56"/>
    <line x1="263.14" y1="365.56" x2="263.14" y2="385.56"/>
    <line x1="297.28" y1="351.42" x2="317.28" y2="351.42"/>
    <line x1="317.28" y1="399.71" x2="297.28" y2="399.71"/>
    <line x1="317.28" y1="351.42" x2="331.42" y2="365.56"/>
    <line x1="331.42" y1="385.56" x2="317.28" y2="399.71"/>
    <line x1="283.14" y1="365.56" x2="297.28" y2="351.42"/>
    <line x1="297.28" y1="399.71" x2="283.14" y2="385.56"/>
    <line x1="331.42" y1="365.56" x2="351.42" y2="365.56"/>
    <line x1="351.42" y1="365.56" x2="351.42" y2="385.56"/>
    <line x1="365.56" y1="351.42" x2="385.56" y2="351.42"/>
    <line x1="385.56" y1="399.71" x2="365.56" y2="399.71"/>
    <line x1="351.42" y1="385.56" x2="351.42" y2="365.56"/>
    <line x1="385.56" y1="351.42" x2="399.71" y2="365.56"/>
    <line x1="365.56" y1="399.71" x2="351.42" y2="385.56"/>
    <line x1="399.71" y1="365.56" x2="419.71" y2="365.56"/>
    <line x1="419.71" y1="385.56" x2="399.71" y2="385.56"/>
    <line x1="419.71" y1="365.56" x2="419.71" y2="385.56"/>
    <line x1="433.85" y1="351.42" x2="453.85" y2="351.42"/>
    <line x1="453.85" y1="399.71" x2="433.85" y2="399.71"/>
    <line x1="419.71" y1="385.56" x2="419.71" y2="365.56"/>
    <line x1="453.85" y1="351.42" x2="467.99" y2="365.56"/>
    <line x1="467.99" y1="385.56" x2="453.85" y2="399.71"/>
    <line x1="433.85" y1="399.71" x2="419.71" y2="385.56"/>
    <line x1="467.99" y1="365.56" x2="487.99" y2="365.56"/>
    <line x1="487.99" y1="365.56" x2="487.99" y2="385.56"/>
    <line x1="502.13" y1="351.42" x2="522.13" y2="351.42"/>
    <line x1="536.27" y1="365.56" x2="536.27" y2="385.56"/>
    <line x1="487.99" y1="385.56" x2="487.99" y2="365.56"/>
    <line x1="522.13" y1="351.42" x2="536.27" y2="365.56"/>
    <line x1="487.99" y1="365.56" x2="502.13" y2="351.42"/>
    <line x1="536.27" y1="365.56" x2="556.27" y2="365.56"/>
    <line x1="556.27" y1="365.56" x2="556.27" y2="385.56"/>
    <line x1="536.27" y1="365.56" x2="536.27" y2="385.56"/>
    <line x1="570.42" y1="351.42" x2="590.42" y2="351.42"/>
    <line x1="556.27" y1="385.56" x2="556.27" y2="365.56"/>
    <line x1="590.42" y1="351.42" x2="604.56" y2="365.56"/>
    <line x1="604.56" y1="385.56" x2="590.42" y2="399.71"/>
    <line x1="556.27" y1="365.56" x2="570.42" y2="351.42"/>
    <line x1="604.56" y1="365.56" x2="624.56" y2="365.56"/>
    <line x1="624.56" y1="385.56" x2="604.56" y2="385.56"/>
    <line x1="624.56" y1="365.56" x2="624.56" y2="385.56"/>
    <line x1="638.70" y1="351.42" x2="658.70" y2="351.42"/>
    <line x1="624.56" y1="385.56" x2="624.56" y2="365.56"/>
    <line x1="658.70" y1="351.42" x2="672.84" y2="365.56"/>
    <line x1="672.84" y1="385.56" x2="658.70" y2="399.71"/>
    <line x1="638.70" y1="399.71" x2="624.56" y2="385.56"/>
    <line x1="672.84" y1="365.56" x2="692.84" y2="365.56"/>
    <line x1="692.84" y1="365.56" x2="692.84" y2="385.56"/>
    <line x1="44.14" y1="399.71" x2="44.14" y2="419.71"/>
    <line x1="24.14" y1="399.71" x2="24.14" y2="419.71"/>
    <line x1="58.28" y1="385.56" x2="78.28" y2="385.56"/>
    <line x1="78.28" y1="433.85" x2="58.28" y2="433.85"/>
    <line x1="92.43" y1="399.71" x2="92.43" y2="419.71"/>
    <line x1="44.14" y1="419.71" x2="44.14" y2="399.71"/>
    <line x1="78.28" y1="385.56" x2="92.43" y2="399.71"/>
    <line x1="92.43" y1="419.71" x2="78.28" y2="433.85"/>
    <line x1="58.28" y1="433.85" x2="44.14" y2="419.71"/>
    <line x1="92.43" y1="399.71" x2="112.43" y2="399.71"/>
    <line x1="112.43" y1="399.71" x2="112.43" y2="419.71"/>
    <line x1="92.43" y1="399.71" x2="92.43" y2="419.71"/>
    <line x1="146.57" y1="433.85" x2="126.57" y2="433.85"/>
    <line x1="160.71" y1="399.71" x2="160.71" y2="419.71"/>
    <line x1="112.43" y1="419.71" x2="112.43" y2="399.71"/>
    <line x1="146.57" y1="385.56" x2="160.71" y2="399.71"/>
    <line x1="112.43" y1="399.71" x2="126.57" y2="385.56"/>
    <line x1="180.71" y1="419.71" x2="160.71" y2="419.71"/>
    <line x1="180.71" y1="399.71" x2="180.71" y2="419.71"/>
    <line x1="160.71" y1="399.71" x2="160.71" y2="419.71"/>
    <line x1="214.85" y1="433.85" x2="194.85" y2="433.85"/>
    <line x1="180.71" y1="419.71" x2="180.71" y2="399.71"/>
    <line x1="214.85" y1="385.56" x2="228.99" y2="399.71"/>
    <line x1="228.99" y1="419.71" x2="214.85" y2="433.85"/>
    <line x1="180.71" y1="399.71" x2="194.85" y2="385.56"/>
    <line x1="194.85" y1="433.85" x2="180.71" y2="419.71"/>
    <line x1="228.99" y1="399.71" x2="248.99" y2="399.71"/>
    <line x1="248.99" y1="419.71" x2="228.99" y2="419.71"/>
    <line x1="248.99" y1="399.71" x2="248.99" y2="419.71"/>
    <line x1="248.99" y1="419.71" x2="248.99" y2="399.71"/>
    <line x1="283.14" y1="385.56" x2="297.28" y2="399.71"/>
    <line x1="248.99" y1="399.71" x2="263.14" y2="385.56"/>
    <line x1="297.28" y1="399.71" x2="317.28" y2="399.71"/>
    <line x1="317.28" y1="419.71" x2="297.28" y2="419.71"/>
    <line x1="317.28" y1="399.71" x2="317.28" y2="419.71"/>
    <line x1="351.42" y1="433.85" x2="331.42" y2="433.85"/>
    <line x1="317.28" y1="419.71" x2="317.28" y2="399.71"/>
    <line x1="351.42" y1="385.56" x2="365.56" y2="399.71"/>
    <line x1="317.28" y1="399.71" x2="331.42" y2="385.56"/>
    <line x1="331.42" y1="433.85" x2="317.28" y2="419.71"/>
    <line x1="365.56" y1="399.71" x2="385.56" y2="399.71"/>
    <line x1="385.56" y1="419.71" x2="365.56" y2="419.71"/>
    <line x1="385.56" y1="399.71" x2="385.56" y2="419.71"/>
    <line x1="399.71" y1="385.56" x2="419.71" y2="385.56"/>
    <line x1="419.71" y1="433.85" x2="399.71" y2="433.85"/>
    <line x1="385.56" y1="419.71" x2="385.56" y2="399.71"/>
    <line x1="419.71" y1="385.56" x2="433.85" y2="399.71"/>
    <line x1="399.71" y1="433.85" x2="385.56" y2="419.71"/>
    <line x1="433.85" y1="399.71" x2="453.85" y2="399.71"/>
    <line x1="453.85" y1="419.71" x2="433.85" y2="419.71"/>
    <line x1="453.85" y1="399.71" x2="453.85" y2="419.71"/>
    <line x1="502.13" y1="399.71" x2="502.13" y2="419.71"/>
    <line x1="453.85" y1="419.71" x2="453.85" y2="399.71"/>
    <line x1="453.85" y1="399.71" x2="467.99" y2="385.56"/>
    <line x1="467.99" y1="433.85" x2="453.85" y2="419.71"/>
    <line x1="522.13" y1="419.71" x2="502.13" y2="419.71"/>
    <line x1="522.13" y1="399.71" x2="522.13" y2="419.71"/>
    <line x1="502.13" y1="399.71" x2="502.13" y2="419.71"/>
    <line x1="570.42" y1="399.71" x2="570.42" y2="419.71"/>
    <line x1="522.13" y1="419.71" x2="522.13" y2="399.71"/>
    <line x1="570.42" y1="419.71" x2="556.27" y2="433.85"/>
    <line x1="536.27" y1="433.85" x2="522.13" y2="419.71"/>
    <line x1="570.42" y1="399.71" x2="570.42" y2="419.71"/>
    <line x1="604.56" y1="385.56" x2="624.56" y2="385.56"/>
    <line x1="624.56" y1="433.85" x2="604.56" y2="433.85"/>
    <line x1="638.70" y1="399.71" x2="638.70" y2="419.71"/>
    <line x1="624.56" y1="385.56" x2="638.70" y2="399.71"/>
    <line x1="638.70" y1="419.71" x2="624.56" y2="433.85"/>
    <line x1="590.42" y1="399.71" x2="604.56" y2="385.56"/>
    <line x1="604.56" y1="433.85" x2="590.42" y2="419.71"/>
    <line x1="658.70" y1="419.71" x2="638.70" y2="419.71"/>
    <line x1="658.70" y1="399.71" x2="658.70" y2="419.71"/>
    <line x1="638.70" y1="399.71" x2="638.70" y2="419.71"/>
    <line x1="692.84" y1="433.85" x2="672.84" y2="433.85"/>
    <line x1="706.98" y1="399.71" x2="706.98" y2="419.71"/>
    <line x1="658.70" y1="419.71" x2="658.70" y2="399.71"/>
    <line x1="692.84" y1="385.56" x2="706.98" y2="399.71"/>
    <line x1="706.98" y1="419.71" x2="692.84" y2="433.85"/>
    <line x1="658.70" y1="399.71" x2="672.84" y2="385.56"/>
    <line x1="672.84" y1="433.85" x2="658.70" y2="419.71"/>
    <line x1="10.00" y1="453.85" x2="10.00" y2="433.85"/>
    <line x1="44.14" y1="419.71" x2="58.28" y2="433.85"/>
    <line x1="10.00" y1="433.85" x2="24.14" y2="419.71"/>
    <line x1="24.14" y1="467.99" x2="10.00" y2="453.85"/>
    <line x1="58.28" y1="433.85" x2="78.28" y2="433.85"/>
    <line x1="78.28" y1="453.85" x2="58.28" y2="453.85"/>
    <line x1="78.28" y1="433.85" x2="78.28" y2="453.85"/>
    <line x1="78.28" y1="453.85" x2="78.28" y2="433.85"/>
    <line x1="78.28" y1="433.85" x2="92.43" y2="419.71"/>
    <line x1="92.43" y1="467.99" x2="78.28" y2="453.85"/>
    <line x1="126.57" y1="433.85" x2="146.57" y2="433.85"/>
    <line x1="146.57" y1="453.85" x2="126.57" y2="453.85"/>
    <line x1="146.57" y1="433.85" x2="146.57" y2="453.85"/>
    <line x1="160.71" y1="419.71" x2="180.71" y2="419.71"/>
    <line x1="194.85" y1="433.85" x2="194.85" y2="453.85"/>
    <line x1="146.57" y1="453.85" x2="146.57" y2="433.85"/>
    <line x1="180.71" y1="419.71" x2="194.85" y2="433.85"/>
    <line x1="194.85" y1="453.85" x2="180.71" y2="467.99"/>
    <line x1="160.71" y1="467.99" x2="146.57" y2="453.85"/>
    <line x1="194.85" y1="433.85" x2="214.85" y2="433.85"/>
    <line x1="214.85" y1="453.85" x2="194.85" y2="453.85"/>
    <line x1="194.85" y1="433.85" x2="194.85" y2="453.85"/>
    <line x1="228.99" y1="419.71" x2="248.99" y2="419.71"/>
    <line x1="263.14" y1="433.85" x2="263.14" y2="453.85"/>
    <line x1="263.14" y1="453.85" x2="248.99" y2="467.99"/>
    <line x1="214.85" y1="433.85" x2="228.99" y2="419.71"/>
    <line x1="283.14" y1="433.85" x2="283.14" y2="453.85"/>
    <line x1="263.14" y1="433.85" x2="263.14" y2="453.85"/>
    <line x1="297.28" y1="419.71" x2="317.28" y2="419.71"/>
    <line x1="331.42" y1="433.85" x2="331.42" y2="453.85"/>
    <line x1="283.14" y1="453.85" x2="283.14" y2="433.85"/>
    <line x1="317.28" y1="419.71" x2="331.42" y2="433.85"/>
    <line x1="331.42" y1="453.85" x2="317.28" y2="467.99"/>
    <line x1="297.28" y1="467.99" x2="283.14" y2="453.85"/>
    <line x1="331.42" y1="433.85" x2="351.42" y2="433.85"/>
    <line x1="331.42" y1="433.85" x2="331.42" y2="453.85"/>
    <line x1="365.56" y1="419.71" x2="385.56" y2="419.71"/>
    <line x1="385.56" y1="419.71" x2="399.71" y2="433.85"/>
    <line x1="365.56" y1="467.99" x2="351.42" y2="453.85"/>
    <line x1="399.71" y1="433.85" x2="419.71" y2="433.85"/>
    <line x1="419.71" y1="453.85" x2="399.71" y2="453.85"/>
    <line x1="419.71" y1="433.85" x2="419.71" y2="453.85"/>
    <line x1="433.85" y1="419.71" x2="453.85" y2="419.71"/>
    <line x1="467.99" y1="433.85" x2="467.99" y2="453.85"/>
    <line x1="419.71" y1="453.85" x2="419.71" y2="433.85"/>
    <line x1="453.85" y1="419.71" x2="467.99" y2="433.85"/>
    <line x1="467.99" y1="453.85" x2="453.85" y2="467.99"/>
    <line x1="433.85" y1="467.99" x2="419.71" y2="453.85"/>
    <line x1="487.99" y1="453.85" x2="467.99" y2="453.85"/>
    <line x1="487.99" y1="433.85" x2="487.99" y2="453.85"/>
    <line x1="467.99" y1="433.85" x2="467.99" y2="453.85"/>
    <line x1="502.13" y1="419.71" x2="522.13" y2="419.71"/>
    <line x1="522.13" y1="467.99" x2="502.13" y2="467.99"/>
    <line x1="536.27" y1="433.85" x2="536.27" y2="453.85"/>
    <line x1="487.99" y1="453.85" x2="487.99" y2="433.85"/>
    <line x1="522.13" y1="419.71" x2="536.27" y2="433.85"/>
    <line x1="502.13" y1="467.99" x2="487.99" y2="453.85"/>
    <line x1="556.27" y1="453.85" x2="536.27" y2="453.85"/>
    <line x1="556.27" y1="433.85" x2="556.27" y2="453.85"/>
    <line x1="536.27" y1="433.85" x2="536.27" y2="453.85"/>
    <line x1="590.42" y1="467.99" x2="570.42" y2="467.99"/>
    <line x1="556.27" y1="453.85" x2="556.27" y2="433.85"/>
    <line x1="590.42" y1="419.71" x2="604.56" y2="433.85"/>
    <line x1="556.27" y1="433.85" x2="570.42" y2="419.71"/>
    <line x1="570.42" y1="467.99" x2="556.27" y2="453.85"/>
    <line x1="604.56" y1="433.85" x2="624.56" y2="433.85"/>
    <line x1="624.56" y1="453.85" x2="604.56" y2="453.85"/>
    <line x1="624.56" y1="433.85" x2="624.56" y2="453.85"/>
    <line x1="638.70" y1="419.71" x2="658.70" y2="419.71"/>
    <line x1="624.56" y1="453.85" x2="624.56" y2="433.85"/>
    <line x1="658.70" y1="419.71" x2="672.84" y2="433.85"/>
    <line x1="624.56" y1="433.85" x2="638.70" y2="419.71"/>
    <line x1="638.70" y1="467.99" x2="624.56" y2="453.85"/>
    <line x1="672.84" y1="433.85" x2="692.84" y2="433.85"/>
    <line x1="692.84" y1="453.85" x2="672.84" y2="453.85"/>
    <line x1="692.84" y1="433.85" x2="692.84" y2="453.85"/>
    <line x1="44.14" y1="467.99" x2="44.14" y2="487.99"/>
    <line x1="24.14" y1="467.99" x2="24.14" y2="487.99"/>
    <line x1="58.28" y1="453.85" x2="78.28" y2="453.85"/>
    <line x1="92.43" y1="467.99" x2="92.43" y2="487.99"/>
    <line x1="44.14" y1="487.99" x2="44.14" y2="467.99"/>
    <line x1="78.28" y1="453.85" x2="92.43" y2="467.99"/>
    <line x1="58.28" y1="502.13" x2="44.14" y2="487.99"/>
    <line x1="112.43" y1="487.99" x2="92.43" y2="487.99"/>
    <line x1="112.43" y1="467.99" x2="112.43" y2="487.99"/>
    <line x1="92.43" y1="467.99" x2="92.43" y2="487.99"/>
    <line x1="126.57" y1="453.85" x2="146.57" y2="453.85"/>
    <line x1="146.57" y1="502.13" x2="126.57" y2="502.13"/>
    <line x1="160.71" y1="467.99" x2="160.71" y2="487.99"/>
    <line x1="112.43" y1="487.99" x2="112.43" y2="467.99"/>
    <line x1="146.57" y1="453.85" x2="160.71" y2="467.99"/>
    <line x1="126.57" y1="502.13" x2="112.43" y2="487.99"/>
    <line x1="180.71" y1="487.99" x2="160.71" y2="487.99"/>
    <line x1="180.71" y1="467.99" x2="180.71" y2="487.99"/>
    <line x1="160.71" y1="467.99" x2="160.71" y2="487.99"/>
    <line x1="194.85" y1="453.85" x2="214.85" y2="453.85"/>
    <line x1="228.99" y1="467.99" x2="228.99" y2="487.99"/>
    <line x1="180.71" y1="487.99" x2="180.71" y2="467.99"/>
    <line x1="228.99" y1="487.99" x2="214.85" y2="502.13"/>
    <line x1="180.71" y1="467.99" x2="194.85" y2="453.85"/>
    <line x1="194.85" y1="502.13" x2="180.71" y2="487.99"/>
    <line x1="248.99" y1="467.99" x2="248.99" y2="487.99"/>
    <line x1="228.99" y1="467.99" x2="228.99" y2="487.99"/>
    <line x1="297.28" y1="467.99" x2="297.28" y2="487.99"/>
    <line x1="248.99" y1="487.99" x2="248.99" y2="467.99"/>
    <line x1="283.14" y1="453.85" x2="297.28" y2="467.99"/>
    <line x1="297.28" y1="487.99" x2="283.14" y2="502.13"/>
    <line x1="248.99" y1="467.99" x2="263.14" y2="453.85"/>
    <line x1="263.14" y1="502.13" x2="248.99" y2="487.99"/>
    <line x1="317.28" y1="487.99" x2="297.28" y2="487.99"/>
    <line x1="317.28" y1="467.99" x2="317.28" y2="487.99"/>
    <line x1="297.28" y1="467.99" x2="297.28" y2="487.99"/>
    <line x1="351.42" y1="502.13" x2="331.42" y2="502.13"/>
    <line x1="365.56" y1="467.99" x2="365.56" y2="487.99"/>
    <line x1="317.28" y1="487.99" x2="317.28" y2="467.99"/>
    <line x1="351.42" y1="453.85" x2="365.56" y2="467.99"/>
    <line x1="365.56" y1="487.99" x2="351.42" y2="502.13"/>
    <line x1="317.28" y1="467.99" x2="331.42" y2="453.85"/>
    <line x1="331.42" y1="502.13" x2="317.28" y2="487.99"/>
    <line x1="385.56" y1="467.99" x2="385.56" y2="487.99"/>
    <line x1="365.56" y1="467.99" x2="365.56" y2="487.99"/>
    <line x1="399.71" y1="453.85" x2="419.71" y2="453.85"/>
    <line x1="433.85" y1="467.99" x2="433.85" y2="487.99"/>
    <line x1="385.56" y1="487.99" x2="385.56" y2="467.99"/>
    <line x1="419.71" y1="453.85" x2="433.85" y2="467.99"/>
    <line x1="433.85" y1="487.99" x2="419.71" y2="502.13"/>
    <line x1="399.71" y1="502.13" x2="385.56" y2="487.99"/>
    <line x1="453.85" y1="487.99" x2="433.85" y2="487.99"/>
    <line x1="433.85" y1="467.99" x2="433.85" y2="487.99"/>
    <line x1="467.99" y1="453.85" x2="487.99" y2="453.85"/>
    <line x1="487.99" y1="453.85" x2="502.13" y2="467.99"/>
    <line x1="502.13" y1="487.99" x2="487.99" y2="502.13"/>
    <line x1="453.85" y1="467.99" x2="467.99" y2="453.85"/>
    <line x1="467.99" y1="502.13" x2="453.85" y2="487.99"/>
    <line x1="502.13" y1="467.99" x2="522.13" y2="467.99"/>
    <line x1="522.13" y1="487.99" x2="502.13" y2="487.99"/>
    <line x1="522.13" y1="467.99" x2="522.13" y2="487.99"/>
    <line x1="536.27" y1="453.85" x2="556.27" y2="453.85"/>
    <line x1="570.42" y1="467.99" x2="570.42" y2="487.99"/>
    <line x1="522.13" y1="487.99" x2="522.13" y2="467.99"/>
    <line x1="556.27" y1="453.85" x2="570.42" y2="467.99"/>
    <line x1="570.42" y1="487.99" x2="556.27" y2="502.13"/>
    <line x1="536.27" y1="502.13" x2="522.13" y2="487.99"/>
    <line x1="570.42" y1="467.99" x2="590.42" y2="467.99"/>
    <line x1="590.42" y1="487.99" x2="570.42" y2="487.99"/>
    <line x1="570.42" y1="467.99" x2="570.42" y2="487.99"/>
    <line x1="604.56" y1="453.85" x2="624.56" y2="453.85"/>
    <line x1="624.56" y1="453.85" x2="638.70" y2="467.99"/>
    <line x1="638.70" y1="487.99" x2="624.56" y2="502.13"/>
    <line x1="604.56" y1="502.13" x2="590.42" y2="487.99"/>
    <line x1="658.70" y1="487.99" x2="638.70" y2="487.99"/>
    <line x1="658.70" y1="467.99" x2="658.70" y2="487.99"/>
    <line x1="672.84" y1="453.85" x2="692.84" y2="453.85"/>
    <line x1="706.98" y1="467.99" x2="706.98" y2="487.99"/>
    <line x1="658.70" y1="487.99" x2="658.70" y2="467.99"/>
    <line x1="692.84" y1="453.85" x2="706.98" y2="467.99"/>
    <line x1="706.98" y1="487.99" x2="692.84" y2="502.13"/>
    <line x1="58.28" y1="502.13" x2="58.28" y2="522.13"/>
    <line x1="10.00" y1="522.13" x2="10.00" y2="502.13"/>
    <line x1="44.14" y1="487.99" x2="58.28" y2="502.13"/>
    <line x1="58.28" y1="522.13" x2="44.14" y2="536.27"/>
    <line x1="10.00" y1="502.13" x2="24.14" y2="487.99"/>
    <line x1="24.14" y1="536.27" x2="10.00" y2="522.13"/>
    <line x1="78.28" y1="522.13" x2="58.28" y2="522.13"/>
    <line x1="78.28" y1="502.13" x2="78.28" y2="522.13"/>
    <line x1="58.28" y1="502.13" x2="58.28" y2="522.13"/>
    <line x1="92.43" y1="487.99" x2="112.43" y2="487.99"/>
    <line x1="126.57" y1="502.13" x2="126.57" y2="522.13"/>
    <line x1="78.28" y1="522.13" x2="78.28" y2="502.13"/>
    <line x1="112.43" y1="487.99" x2="126.57" y2="502.13"/>
    <line x1="126.57" y1="522.13" x2="112.43" y2="536.27"/>
    <line x1="126.57" y1="502.13" x2="146.57" y2="502.13"/>
    <line x1="146.57" y1="502.13" x2="146.57" y2="522.13"/>
    <line x1="126.57" y1="502.13" x2="126.57" y2="522.13"/>
    <line x1="160.71" y1="487.99" x2="180.71" y2="487.99"/>
    <line x1="180.71" y1="536.27" x2="160.71" y2="536.27"/>
    <line x1="194.85" y1="502.13" x2="194.85" y2="522.13"/>
    <line x1="146.57" y1="522.13" x2="146.57" y2="502.13"/>
    <line x1="180.71" y1="487.99" x2="194.85" y2="502.13"/>
    <line x1="214.85" y1="522.13" x2="194.85" y2="522.13"/>
    <line x1="214.85" y1="502.13" x2="214.85" y2="522.13"/>
    <line x1="194.85" y1="502.13" x2="194.85" y2="522.13"/>
    <line x1="248.99" y1="536.27" x2="228.99" y2="536.27"/>
    <line x1="263.14" y1="502.13" x2="263.14" y2="522.13"/>
    <line x1="214.85" y1="522.13" x2="214.85" y2="502.13"/>
    <line x1="248.99" y1="487.99" x2="263.14" y2="502.13"/>
    <line x1="263.14" y1="522.13" x2="248.99" y2="536.27"/>
    <line x1="214.85" y1="502.13" x2="228.99" y2="487.99"/>
    <line x1="228.99" y1="536.27" x2="214.85" y2="522.13"/>
    <line x1="283.14" y1="502.13" x2="283.14" y2="522.13"/>
    <line x1="263.14" y1="502.13" x2="263.14" y2="522.13"/>
    <line x1="297.28" y1="487.99" x2="317.28" y2="487.99"/>
    <line x1="283.14" y1="522.13" x2="283.14" y2="502.13"/>
    <line x1="317.28" y1="487.99" x2="331.42" y2="502.13"/>
    <line x1="331.42" y1="522.13" x2="317.28" y2="536.27"/>
    <line x1="283.14" y1="502.13" x2="297.28" y2="487.99"/>
    <line x1="297.28" y1="536.27" x2="283.14" y2="522.13"/>
    <line x1="331.42" y1="502.13" x2="351.42" y2="502.13"/>
    <line x1="351.42" y1="522.13" x2="331.42" y2="522.13"/>
    <line x1="385.56" y1="536.27" x2="365.56" y2="536.27"/>
    <line x1="399.71" y1="502.13" x2="399.71" y2="522.13"/>
    <line x1="385.56" y1="487.99" x2="399.71" y2="502.13"/>
    <line x1="351.42" y1="502.13" x2="365.56" y2="487.99"/>
    <line x1="419.71" y1="522.13" x2="399.71" y2="522.13"/>
    <line x1="399.71" y1="502.13" x2="399.71" y2="522.13"/>
    <line x1="433.85" y1="487.99" x2="453.85" y2="487.99"/>
    <line x1="453.85" y1="536.27" x2="433.85" y2="536.27"/>
    <line x1="467.99" y1="502.13" x2="467.99" y2="522.13"/>
    <line x1="453.85" y1="487.99" x2="467.99" y2="502.13"/>
    <line x1="419.71" y1="502.13" x2="433.85" y2="487.99"/>
    <line x1="433.85" y1="536.27" x2="419.71" y2="522.13"/>
    <line x1="487.99" y1="522.13" x2="467.99" y2="522.13"/>
    <line x1="467.99" y1="502.13" x2="467.99" y2="522.13"/>
    <line x1="502.13" y1="487.99" x2="522.13" y2="487.99"/>
    <line x1="522.13" y1="536.27" x2="502.13" y2="536.27"/>
    <line x1="536.27" y1="502.13" x2="536.27" y2="522.13"/>
    <line x1="522.13" y1="487.99" x2="536.27" y2="502.13"/>
    <line x1="536.27" y1="522.13" x2="522.13" y2="536.27"/>
    <line x1="487.99" y1="502.13" x2="502.13" y2="487.99"/>
    <line x1="502.13" y1="536.27" x2="487.99" y2="522.13"/>
    <line x1="536.27" y1="502.13" x2="536.27" y2="522.13"/>
    <line x1="570.42" y1="487.99" x2="590.42" y2="487.99"/>
    <line x1="604.56" y1="502.13" x2="604.56" y2="522.13"/>
    <line x1="590.42" y1="487.99" x2="604.56" y2="502.13"/>
    <line x1="604.56" y1="522.13" x2="590.42" y2="536.27"/>
    <line x1="556.27" y1="502.13" x2="570.42" y2="487.99"/>
    <line x1="570.42" y1="536.27" x2="556.27" y2="522.13"/>
    <line x1="624.56" y1="502.13" x2="624.56" y2="522.13"/>
    <line x1="604.56" y1="502.13" x2="604.56" y2="522.13"/>
    <line x1="638.70" y1="487.99" x2="658.70" y2="487.99"/>
    <line x1="658.70" y1="536.27" x2="638.70" y2="536.27"/>
    <line x1="672.84" y1="502.13" x2="672.84" y2="522.13"/>
    <line x1="624.56" y1="522.13" x2="624.56" y2="502.13"/>
    <line x1="672.84" y1="522.13" x2="658.70" y2="536.27"/>
    <line x1="624.56" y1="502.13" x2="638.70" y2="487.99"/>
    <line x1="638.70" y1="536.27" x2="624.56" y2="522.13"/>
    <line x1="692.84" y1="502.13" x2="692.84" y2="522.13"/>
    <line x1="672.84" y1="502.13" x2="672.84" y2="522.13"/>
    <line x1="44.14" y1="556.27" x2="24.14" y2="556.27"/>
    <line x1="44.14" y1="536.27" x2="44.14" y2="556.27"/>
    <line x1="24.14" y1="536.27" x2="24.14" y2="556.27"/>
    <line x1="58.28" y1="522.13" x2="78.28" y2="522.13"/>
    <line x1="78.28" y1="570.42" x2="58.28" y2="570.42"/>
    <line x1="92.43" y1="536.27" x2="92.43" y2="556.27"/>
    <line x1="44.14" y1="556.27" x2="44.14" y2="536.27"/>
    <line x1="92.43" y1="556.27" x2="78.28" y2="570.42"/>
    <line x1="44.14" y1="536.27" x2="58.28" y2="522.13"/>
    <line x1="112.43" y1="556.27" x2="92.43" y2="556.27"/>
    <line x1="112.43" y1="536.27" x2="112.43" y2="556.27"/>
    <line x1="92.43" y1="536.27" x2="92.43" y2="556.27"/>
    <line x1="160.71" y1="536.27" x2="160.71" y2="556.27"/>
    <line x1="112.43" y1="556.27" x2="112.43" y2="536.27"/>
    <line x1="112.43" y1="536.27" x2="126.57" y2="522.13"/>
    <line x1="126.57" y1="570.42" x2="112.43" y2="556.27"/>
    <line x1="160.71" y1="536.27" x2="180.71" y2="536.27"/>
    <line x1="180.71" y1="536.27" x2="180.71" y2="556.27"/>
    <line x1="160.71" y1="536.27" x2="160.71" y2="556.27"/>
    <line x1="194.85" y1="522.13" x2="214.85" y2="522.13"/>
    <line x1="228.99" y1="536.27" x2="228.99" y2="556.27"/>
    <line x1="180.71" y1="556.27" x2="180.71" y2="536.27"/>
    <line x1="214.85" y1="522.13" x2="228.99" y2="536.27"/>
    <line x1="228.99" y1="556.27" x2="214.85" y2="570.42"/>
    <line x1="194.85" y1="570.42" x2="180.71" y2="556.27"/>
    <line x1="228.99" y1="536.27" x2="248.99" y2="536.27"/>
    <line x1="248.99" y1="536.27" x2="248.99" y2="556.27"/>
    <line x1="228.99" y1="536.27" x2="228.99" y2="556.27"/>
    <line x1="283.14" y1="570.42" x2="263.14" y2="570.42"/>
    <line x1="297.28" y1="536.27" x2="297.28" y2="556.27"/>
    <line x1="248.99" y1="556.27" x2="248.99" y2="536.27"/>
    <line x1="283.14" y1="522.13" x2="297.28" y2="536.27"/>
    <line x1="248.99" y1="536.27" x2="263.14" y2="522.13"/>
    <line x1="263.14" y1="570.42" x2="248.99" y2="556.27"/>
    <line x1="317.28" y1="556.27" x2="297.28" y2="556.27"/>
    <line x1="317.28" y1="536.27" x2="317.28" y2="556.27"/>
    <line x1="297.28" y1="536.27" x2="297.28" y2="556.27"/>
    <line x1="331.42" y1="522.13" x2="351.42" y2="522.13"/>
    <line x1="317.28" y1="556.27" x2="317.28" y2="536.27"/>
    <line x1="365.56" y1="556.27" x2="351.42" y2="570.42"/>
    <line x1="317.28" y1="536.27" x2="331.42" y2="522.13"/>
    <line x1="331.42" y1="570.42" x2="317.28" y2="556.27"/>
    <line x1="365.56" y1="536.27" x2="385.56" y2="536.27"/>
    <line x1="385.56" y1="536.27" x2="385.56" y2="556.27"/>
    <line x1="399.71" y1="522.13" x2="419.71" y2="522.13"/>
    <line x1="419.71" y1="570.42" x2="399.71" y2="570.42"/>
    <line x1="433.85" y1="536.27" x2="433.85" y2="556.27"/>
    <line x1="385.56" y1="556.27" x2="385.56" y2="536.27"/>
    <line x1="419.71" y1="522.13" x2="433.85" y2="536.27"/>
    <line x1="399.71" y1="570.42" x2="385.56" y2="556.27"/>
    <line x1="433.85" y1="536.27" x2="453.85" y2="536.27"/>
    <line x1="453.85" y1="556.27" x2="433.85" y2="556.27"/>
    <line x1="433.85" y1="536.27" x2="433.85" y2="556.27"/>
    <line x1="467.99" y1="522.13" x2="487.99" y2="522.13"/>
    <line x1="502.13" y1="536.27" x2="502.13" y2="556.27"/>
    <line x1="487.99" y1="522.13" x2="502.13" y2="536.27"/>
    <line x1="502.13" y1="556.27" x2="487.99" y2="570.42"/>
    <line x1="467.99" y1="570.42" x2="453.85" y2="556.27"/>
    <line x1="502.13" y1="536.27" x2="522.13" y2="536.27"/>
    <line x1="522.13" y1="556.27" x2="502.13" y2="556.27"/>
    <line x1="502.13" y1="536.27" x2="502.13" y2="556.27"/>
    <line x1="570.42" y1="536.27" x2="570.42" y2="556.27"/>
    <line x1="556.27" y1="522.13" x2="570.42" y2="536.27"/>
    <line x1="522.13" y1="536.27" x2="536.27" y2="522.13"/>
    <line x1="536.27" y1="570.42" x2="522.13" y2="556.27"/>
    <line x1="590.42" y1="556.27" x2="570.42" y2="556.27"/>
    <line x1="590.42" y1="536.27" x2="590.42" y2="556.27"/>
    <line x1="570.42" y1="536.27" x2="570.42" y2="556.27"/>
    <line x1="590.42" y1="556.27" x2="590.42" y2="536.27"/>
    <line x1="624.56" y1="522.13" x2="638.70" y2="536.27"/>
    <line x1="638.70" y1="556.27" x2="624.56" y2="570.42"/>
    <line x1="590.42" y1="536.27" x2="604.56" y2="522.13"/>
    <line x1="604.56" y1="570.42" x2="590.42" y2="556.27"/>
    <line x1="638.70" y1="536.27" x2="658.70" y2="536.27"/>
    <line x1="658.70" y1="556.27" x2="638.70" y2="556.27"/>
    <line x1="658.70" y1="536.27" x2="658.70" y2="556.27"/>
    <line x1="706.98" y1="536.27" x2="706.98" y2="556.27"/>
    <line x1="658.70" y1="556.27" x2="658.70" y2="536.27"/>
    <line x1="692.84" y1="522.13" x2="706.98" y2="536.27"/>
    <line x1="706.98" y1="556.27" x2="692.84" y2="570.42"/>
    <line x1="658.70" y1="536.27" x2="672.84" y2="522.13"/>
    <line x1="672.84" y1="570.42" x2="658.70" y2="556.27"/>
    <line x1="24.14" y1="556.27" x2="44.14" y2="556.27"/>
    <line x1="44.14" y1="604.56" x2="24.14" y2="604.56"/>
    <line x1="58.28" y1="570.42" x2="58.28" y2="590.42"/>
    <line x1="10.00" y1="590.42" x2="10.00" y2="570.42"/>
    <line x1="10.00" y1="570.42" x2="24.14" y2="556.27"/>
    <line x1="24.14" y1="604.56" x2="10.00" y2="590.42"/>
    <line x1="58.28" y1="570.42" x2="78.28" y2="570.42"/>
    <line x1="78.28" y1="590.42" x2="58.28" y2="590.42"/>
    <line x1="58.28" y1="570.42" x2="58.28" y2="590.42"/>
    <line x1="92.43" y1="556.27" x2="112.43" y2="556.27"/>
    <line x1="112.43" y1="604.56" x2="92.43" y2="604.56"/>
    <line x1="126.57" y1="570.42" x2="126.57" y2="590.42"/>
    <line x1="112.43" y1="556.27" x2="126.57" y2="570.42"/>
    <line x1="126.57" y1="590.42" x2="112.43" y2="604.56"/>
    <line x1="78.28" y1="570.42" x2="92.43" y2="556.27"/>
    <line x1="146.57" y1="570.42" x2="146.57" y2="590.42"/>
    <line x1="126.57" y1="570.42" x2="126.57" y2="590.42"/>
    <line x1="180.71" y1="604.56" x2="160.71" y2="604.56"/>
    <line x1="194.85" y1="570.42" x2="194.85" y2="590.42"/>
    <line x1="146.57" y1="590.42" x2="146.57" y2="570.42"/>
    <line x1="180.71" y1="556.27" x2="194.85" y2="570.42"/>
    <line x1="194.85" y1="590.42" x2="180.71" y2="604.56"/>
    <line x1="160.71" y1="604.56" x2="146.57" y2="590.42"/>
    <line x1="214.85" y1="590.42" x2="194.85" y2="590.42"/>
    <line x1="194.85" y1="570.42" x2="194.85" y2="590.42"/>
    <line x1="248.99" y1="604.56" x2="228.99" y2="604.56"/>
    <line x1="248.99" y1="556.27" x2="263.14" y2="570.42"/>
    <line x1="263.14" y1="590.42" x2="248.99" y2="604.56"/>
    <line x1="214.85" y1="570.42" x2="228.99" y2="556.27"/>
    <line x1="228.99" y1="604.56" x2="214.85" y2="590.42"/>
    <line x1="263.14" y1="570.42" x2="283.14" y2="570.42"/>
    <line x1="283.14" y1="570.42" x2="283.14" y2="590.42"/>
    <line x1="297.28" y1="556.27" x2="317.28" y2="556.27"/>
    <line x1="317.28" y1="604.56" x2="297.28" y2="604.56"/>
    <line x1="331.42" y1="570.42" x2="331.42" y2="590.42"/>
    <line x1="283.14" y1="590.42" x2="283.14" y2="570.42"/>
    <line x1="317.28" y1="556.27" x2="331.42" y2="570.42"/>
    <line x1="297.28" y1="604.56" x2="283.14" y2="590.42"/>
    <line x1="351.42" y1="590.42" x2="331.42" y2="590.42"/>
    <line x1="351.42" y1="570.42" x2="351.42" y2="590.42"/>
    <line x1="331.42" y1="570.42" x2="331.42" y2="590.42"/>
    <line x1="385.56" y1="604.56" x2="365.56" y2="604.56"/>
    <line x1="399.71" y1="570.42" x2="399.71" y2="590.42"/>
    <line x1="351.42" y1="590.42" x2="351.42" y2="570.42"/>
    <line x1="385.56" y1="556.27" x2="399.71" y2="570.42"/>
    <line x1="399.71" y1="590.42" x2="385.56" y2="604.56"/>
    <line x1="351.42" y1="570.42" x2="365.56" y2="556.27"/>
    <line x1="365.56" y1="604.56" x2="351.42" y2="590.42"/>
    <line x1="399.71" y1="570.42" x2="419.71" y2="570.42"/>
    <line x1="419.71" y1="570.42" x2="419.71" y2="590.42"/>
    <line x1="399.71" y1="570.42" x2="399.71" y2="590.42"/>
    <line x1="433.85" y1="556.27" x2="453.85" y2="556.27"/>
    <line x1="467.99" y1="570.42" x2="467.99" y2="590.42"/>
    <line x1="419.71" y1="590.42" x2="419.71" y2="570.42"/>
    <line x1="453.85" y1="556.27" x2="467.99" y2="570.42"/>
    <line x1="467.99" y1="590.42" x2="453.85" y2="604.56"/>
    <line x1="487.99" y1="590.42" x2="467.99" y2="590.42"/>
    <line x1="467.99" y1="570.42" x2="467.99" y2="590.42"/>
    <line x1="502.13" y1="556.27" x2="522.13" y2="556.27"/>
    <line x1="522.13" y1="604.56" x2="502.13" y2="604.56"/>
    <line x1="536.27" y1="570.42" x2="536.27" y2="590.42"/>
    <line x1="522.13" y1="556.27" x2="536.27" y2="570.42"/>
    <line x1="536.27" y1="590.42" x2="522.13" y2="604.56"/>
    <line x1="487.99" y1="570.42" x2="502.13" y2="556.27"/>
    <line x1="502.13" y1="604.56" x2="487.99" y2="590.42"/>
    <line x1="556.27" y1="570.42" x2="556.27" y2="590.42"/>
    <line x1="536.27" y1="570.42" x2="536.27" y2="590.42"/>
    <line x1="570.42" y1="556.27" x2="590.42" y2="556.27"/>
    <line x1="604.56" y1="570.42" x2="604.56" y2="590.42"/>
    <line x1="556.27" y1="590.42" x2="556.27" y2="570.42"/>
    <line x1="590.42" y1="556.27" x2="604.56" y2="570.42"/>
    <line x1="570.42" y1="604.56" x2="556.27" y2="590.42"/>
    <line x1="624.56" y1="590.42" x2="604.56" y2="590.42"/>
    <line x1="624.56" y1="570.42" x2="624.56" y2="590.42"/>
    <line x1="604.56" y1="570.42" x2="604.56" y2="590.42"/>
    <line x1="638.70" y1="556.27" x2="658.70" y2="556.27"/>
    <line x1="658.70" y1="604.56" x2="638.70" y2="604.56"/>
    <line x1="672.84" y1="570.42" x2="672.84" y2="590.42"/>
    <line x1="624.56" y1="590.42" x2="624.56" y2="570.42"/>
    <line x1="658.70" y1="556.27" x2="672.84" y2="570.42"/>
    <line x1="672.84" y1="590.42" x2="658.70" y2="604.56"/>
    <line x1="624.56" y1="570.42" x2="638.70" y2="556.27"/>
    <line x1="692.84" y1="590.42" x2="672.84" y2="590.42"/>
    <line x1="692.84" y1="570.42" x2="692.84" y2="590.42"/>
    <line x1="672.84" y1="570.42" x2="672.84" y2="590.42"/>
    <line x1="24.14" y1="604.56" x2="44.14" y2="604.56"/>
    <line x1="44.14" y1="624.56" x2="24.14" y2="624.56"/>
    <line x1="24.14" y1="604.56" x2="24.14" y2="624.56"/>
    <line x1="58.28" y1="590.42" x2="78.28" y2="590.42"/>
    <line x1="92.43" y1="604.56" x2="92.43" y2="624.56"/>
    <line x1="92.43" y1="624.56" x2="78.28" y2="638.70"/>
    <line x1="92.43" y1="604.56" x2="112.43" y2="604.56"/>
    <line x1="112.43" y1="624.56" x2="92.43" y2="624.56"/>
    <line x1="92.43" y1="604.56" x2="92.43" y2="624.56"/>
    <line x1="146.57" y1="638.70" x2="126.57" y2="638.70"/>
    <line x1="146.57" y1="590.42" x2="160.71" y2="604.56"/>
    <line x1="160.71" y1="624.56" x2="146.57" y2="638.70"/>
    <line x1="112.43" y1="604.56" x2="126.57" y2="590.42"/>
    <line x1="160.71" y1="604.56" x2="180.71" y2="604.56"/>
    <line x1="180.71" y1="624.56" x2="160.71" y2="624.56"/>
    <line x1="194.85" y1="590.42" x2="214.85" y2="590.42"/>
    <line x1="228.99" y1="604.56" x2="228.99" y2="624.56"/>
    <line x1="214.85" y1="590.42" x2="228.99" y2="604.56"/>
    <line x1="180.71" y1="604.56" x2="194.85" y2="590.42"/>
    <line x1="228.99" y1="604.56" x2="248.99" y2="604.56"/>
    <line x1="248.99" y1="624.56" x2="228.99" y2="624.56"/>
    <line x1="228.99" y1="604.56" x2="228.99" y2="624.56"/>
    <line x1="297.28" y1="604.56" x2="297.28" y2="624.56"/>
    <line x1="283.14" y1="590.42" x2="297.28" y2="604.56"/>
    <line x1="248.99" y1="604.56" x2="263.14" y2="590.42"/>
    <line x1="263.14" y1="638.70" x2="248.99" y2="624.56"/>
    <line x1="297.28" y1="604.56" x2="317.28" y2="604.56"/>
    <line x1="317.28" y1="624.56" x2="297.28" y2="624.56"/>
    <line x1="297.28" y1="604.56" x2="297.28" y2="624.56"/>
    <line x1="331.42" y1="590.42" x2="351.42" y2="590.42"/>
    <line x1="351.42" y1="638.70" x2="331.42" y2="638.70"/>
    <line x1="365.56" y1="604.56" x2="365.56" y2="624.56"/>
    <line x1="351.42" y1="590.42" x2="365.56" y2="604.56"/>
    <line x1="365.56" y1="624.56" x2="351.42" y2="638.70"/>
    <line x1="331.42" y1="638.70" x2="317.28" y2="624.56"/>
    <line x1="365.56" y1="604.56" x2="385.56" y2="604.56"/>
    <line x1="385.56" y1="624.56" x2="365.56" y2="624.56"/>
    <line x1="365.56" y1="604.56" x2="365.56" y2="624.56"/>
    <line x1="419.71" y1="638.70" x2="399.71" y2="638.70"/>
    <line x1="433.85" y1="604.56" x2="433.85" y2="624.56"/>
    <line x1="433.85" y1="624.56" x2="419.71" y2="638.70"/>
    <line x1="385.56" y1="604.56" x2="399.71" y2="590.42"/>
    <line x1="453.85" y1="624.56" x2="433.85" y2="624.56"/>
    <line x1="433.85" y1="604.56" x2="433.85" y2="624.56"/>
    <line x1="467.99" y1="590.42" x2="487.99" y2="590.42"/>
    <line x1="487.99" y1="638.70" x2="467.99" y2="638.70"/>
    <line x1="487.99" y1="590.42" x2="502.13" y2="604.56"/>
    <line x1="453.85" y1="604.56" x2="467.99" y2="590.42"/>
    <line x1="467.99" y1="638.70" x2="453.85" y2="624.56"/>
    <line x1="502.13" y1="604.56" x2="522.13" y2="604.56"/>
    <line x1="522.13" y1="624.56" x2="502.13" y2="624.56"/>
    <line x1="522.13" y1="604.56" x2="522.13" y2="624.56"/>
    <line x1="556.27" y1="638.70" x2="536.27" y2="638.70"/>
    <line x1="570.42" y1="604.56" x2="570.42" y2="624.56"/>
    <line x1="522.13" y1="624.56" x2="522.13" y2="604.56"/>
    <line x1="556.27" y1="590.42" x2="570.42" y2="604.56"/>
    <line x1="522.13" y1="604.56" x2="536.27" y2="590.42"/>
    <line x1="536.27" y1="638.70" x2="522.13" y2="624.56"/>
    <line x1="590.42" y1="624.56" x2="570.42" y2="624.56"/>
    <line x1="590.42" y1="604.56" x2="590.42" y2="624.56"/>
    <line x1="570.42" y1="604.56" x2="570.42" y2="624.56"/>
    <line x1="604.56" y1="590.42" x2="624.56" y2="590.42"/>
    <line x1="590.42" y1="624.56" x2="590.42" y2="604.56"/>
    <line x1="604.56" y1="638.70" x2="590.42" y2="624.56"/>
    <line x1="638.70" y1="604.56" x2="658.70" y2="604.56"/>
    <line x1="658.70" y1="624.56" x2="638.70" y2="624.56"/>
    <line x1="672.84" y1="590.42" x2="692.84" y2="590.42"/>
    <line x1="706.98" y1="604.56" x2="706.98" y2="624.56"/>
    <line x1="692.84" y1="590.42" x2="706.98" y2="604.56"/>
    <line x1="706.98" y1="624.56" x2="692.84" y2="638.70"/>
    <line x1="658.70" y1="604.56" x2="672.84" y2="590.42"/>
    <line x1="672.84" y1="638.70" x2="658.70" y2="624.56"/>
    <line x1="24.14" y1="624.56" x2="44.14" y2="624.56"/>
    <line x1="58.28" y1="638.70" x2="58.28" y2="658.70"/>
    <line x1="10.00" y1="658.70" x2="10.00" y2="638.70"/>
    <line x1="10.00" y1="638.70" x2="24.14" y2="624.56"/>
    <line x1="24.14" y1="672.84" x2="10.00" y2="658.70"/>
    <line x1="78.28" y1="658.70" x2="58.28" y2="658.70"/>
    <line x1="78.28" y1="638.70" x2="78.28" y2="658.70"/>
    <line x1="58.28" y1="638.70" x2="58.28" y2="658.70"/>
    <line x1="92.43" y1="624.56" x2="112.43" y2="624.56"/>
    <line x1="112.43" y1="672.84" x2="92.43" y2="672.84"/>
    <line x1="78.28" y1="658.70" x2="78.28" y2="638.70"/>
    <line x1="78.28" y1="638.70" x2="92.43" y2="624.56"/>
    <line x1="92.43" y1="672.84" x2="78.28" y2="658.70"/>
    <line x1="126.57" y1="638.70" x2="146.57" y2="638.70"/>
    <line x1="146.57" y1="658.70" x2="126.57" y2="658.70"/>
    <line x1="146.57" y1="638.70" x2="146.57" y2="658.70"/>
    <line x1="160.71" y1="624.56" x2="180.71" y2="624.56"/>
    <line x1="180.71" y1="672.84" x2="160.71" y2="672.84"/>
    <line x1="194.85" y1="638.70" x2="194.85" y2="658.70"/>
    <line x1="146.57" y1="658.70" x2="146.57" y2="638.70"/>
    <line x1="194.85" y1="658.70" x2="180.71" y2="672.84"/>
    <line x1="146.57" y1="638.70" x2="160.71" y2="624.56"/>
    <line x1="160.71" y1="672.84" x2="146.57" y2="658.70"/>
    <line x1="214.85" y1="638.70" x2="214.85" y2="658.70"/>
    <line x1="194.85" y1="638.70" x2="194.85" y2="658.70"/>
    <line x1="228.99" y1="624.56" x2="248.99" y2="624.56"/>
    <line x1="248.99" y1="672.84" x2="228.99" y2="672.84"/>
    <line x1="263.14" y1="638.70" x2="263.14" y2="658.70"/>
    <line x1="214.85" y1="658.70" x2="214.85" y2="638.70"/>
    <line x1="248.99" y1="624.56" x2="263.14" y2="638.70"/>
    <line x1="263.14" y1="658.70" x2="248.99" y2="672.84"/>
    <line x1="228.99" y1="672.84" x2="214.85" y2="658.70"/>
    <line x1="283.14" y1="638.70" x2="283.14" y2="658.70"/>
    <line x1="263.14" y1="638.70" x2="263.14" y2="658.70"/>
    <line x1="297.28" y1="624.56" x2="317.28" y2="624.56"/>
    <line x1="317.28" y1="672.84" x2="297.28" y2="672.84"/>
    <line x1="283.14" y1="658.70" x2="283.14" y2="638.70"/>
    <line x1="317.28" y1="624.56" x2="331.42" y2="638.70"/>
    <line x1="297.28" y1="672.84" x2="283.14" y2="658.70"/>
    <line x1="331.42" y1="638.70" x2="351.42" y2="638.70"/>
    <line x1="351.42" y1="658.70" x2="331.42" y2="658.70"/>
    <line x1="351.42" y1="638.70" x2="351.42" y2="658.70"/>
    <line x1="365.56" y1="624.56" x2="385.56" y2="624.56"/>
    <line x1="385.56" y1="672.84" x2="365.56" y2="672.84"/>
    <line x1="351.42" y1="658.70" x2="351.42" y2="638.70"/>
    <line x1="351.42" y1="638.70" x2="365.56" y2="624.56"/>
    <line x1="365.56" y1="672.84" x2="351.42" y2="658.70"/>
    <line x1="399.71" y1="638.70" x2="419.71" y2="638.70"/>
    <line x1="419.71" y1="658.70" x2="399.71" y2="658.70"/>
    <line x1="433.85" y1="624.56" x2="453.85" y2="624.56"/>
    <line x1="467.99" y1="638.70" x2="467.99" y2="658.70"/>
    <line x1="453.85" y1="624.56" x2="467.99" y2="638.70"/>
    <line x1="467.99" y1="658.70" x2="453.85" y2="672.84"/>
    <line x1="419.71" y1="638.70" x2="433.85" y2="624.56"/>
    <line x1="433.85" y1="672.84" x2="419.71" y2="658.70"/>
    <line x1="467.99" y1="638.70" x2="487.99" y2="638.70"/>
    <line x1="487.99" y1="658.70" x2="467.99" y2="658.70"/>
    <line x1="467.99" y1="638.70" x2="467.99" y2="658.70"/>
    <line x1="502.13" y1="624.56" x2="522.13" y2="624.56"/>
    <line x1="522.13" y1="624.56" x2="536.27" y2="638.70"/>
    <line x1="502.13" y1="672.84" x2="487.99" y2="658.70"/>
    <line x1="536.27" y1="638.70" x2="556.27" y2="638.70"/>
    <line x1="556.27" y1="658.70" x2="536.27" y2="658.70"/>
    <line x1="556.27" y1="638.70" x2="556.27" y2="658.70"/>
    <line x1="570.42" y1="624.56" x2="590.42" y2="624.56"/>
    <line x1="604.56" y1="638.70" x2="604.56" y2="658.70"/>
    <line x1="556.27" y1="658.70" x2="556.27" y2="638.70"/>
    <line x1="590.42" y1="624.56" x2="604.56" y2="638.70"/>
    <line x1="604.56" y1="658.70" x2="590.42" y2="672.84"/>
    <line x1="570.42" y1="672.84" x2="556.27" y2="658.70"/>
    <line x1="624.56" y1="658.70" x2="604.56" y2="658.70"/>
    <line x1="624.56" y1="638.70" x2="624.56" y2="658.70"/>
    <line x1="604.56" y1="638.70" x2="604.56" y2="658.70"/>
    <line x1="638.70" y1="624.56" x2="658.70" y2="624.56"/>
    <line x1="658.70" y1="672.84" x2="638.70" y2="672.84"/>
    <line x1="672.84" y1="638.70" x2="672.84" y2="658.70"/>
    <line x1="624.56" y1="658.70" x2="624.56" y2="638.70"/>
    <line x1="658.70" y1="624.56" x2="672.84" y2="638.70"/>
    <line x1="692.84" y1="658.70" x2="672.84" y2="658.70"/>
    <line x1="692.84" y1="638.70" x2="692.84" y2="658.70"/>
    <line x1="672.84" y1="638.70" x2="672.84" y2="658.70"/>
    <line x1="44.14" y1="692.84" x2="24.14" y2="692.84"/>
    <line x1="44.14" y1="672.84" x2="44.14" y2="692.84"/>
    <line x1="24.14" y1="672.84" x2="24.14" y2="692.84"/>
    <line x1="58.28" y1="658.70" x2="78.28" y2="658.70"/>
    <line x1="78.28" y1="706.98" x2="58.28" y2="706.98"/>
    <line x1="44.14" y1="692.84" x2="44.14" y2="672.84"/>
    <line x1="78.28" y1="658.70" x2="92.43" y2="672.84"/>
    <line x1="92.43" y1="692.84" x2="78.28" y2="706.98"/>
    <line x1="58.28" y1="706.98" x2="44.14" y2="692.84"/>
    <line x1="92.43" y1="672.84" x2="112.43" y2="672.84"/>
    <line x1="112.43" y1="692.84" x2="92.43" y2="692.84"/>
    <line x1="112.43" y1="672.84" x2="112.43" y2="692.84"/>
    <line x1="126.57" y1="658.70" x2="146.57" y2="658.70"/>
    <line x1="146.57" y1="706.98" x2="126.57" y2="706.98"/>
    <line x1="160.71" y1="672.84" x2="160.71" y2="692.84"/>
    <line x1="112.43" y1="692.84" x2="112.43" y2="672.84"/>
    <line x1="146.57" y1="658.70" x2="160.71" y2="672.84"/>
    <line x1="160.71" y1="692.84" x2="146.57" y2="706.98"/>
    <line x1="126.57" y1="706.98" x2="112.43" y2="692.84"/>
    <line x1="160.71" y1="672.84" x2="180.71" y2="672.84"/>
    <line x1="180.71" y1="692.84" x2="160.71" y2="692.84"/>
    <line x1="160.71" y1="672.84" x2="160.71" y2="692.84"/>
    <line x1="214.85" y1="706.98" x2="194.85" y2="706.98"/>
    <line x1="228.99" y1="672.84" x2="228.99" y2="692.84"/>
    <line x1="214.85" y1="658.70" x2="228.99" y2="672.84"/>
    <line x1="228.99" y1="692.84" x2="214.85" y2="706.98"/>
    <line x1="180.71" y1="672.84" x2="194.85" y2="658.70"/>
    <line x1="194.85" y1="706.98" x2="180.71" y2="692.84"/>
    <line x1="228.99" y1="672.84" x2="248.99" y2="672.84"/>
    <line x1="248.99" y1="692.84" x2="228.99" y2="692.84"/>
    <line x1="228.99" y1="672.84" x2="228.99" y2="692.84"/>
    <line x1="283.14" y1="706.98" x2="263.14" y2="706.98"/>
    <line x1="283.14" y1="658.70" x2="297.28" y2="672.84"/>
    <line x1="297.28" y1="692.84" x2="283.14" y2="706.98"/>
    <line x1="248.99" y1="672.84" x2="263.14" y2="658.70"/>
    <line x1="263.14" y1="706.98" x2="248.99" y2="692.84"/>
    <line x1="297.28" y1="672.84" x2="317.28" y2="672.84"/>
    <line x1="317.28" y1="692.84" x2="297.28" y2="692.84"/>
    <line x1="317.28" y1="672.84" x2="317.28" y2="692.84"/>
    <line x1="331.42" y1="658.70" x2="351.42" y2="658.70"/>
    <line x1="351.42" y1="706.98" x2="331.42" y2="706.98"/>
    <line x1="317.28" y1="692.84" x2="317.28" y2="672.84"/>
    <line x1="351.42" y1="658.70" x2="365.56" y2="672.84"/>
    <line x1="365.56" y1="692.84" x2="351.42" y2="706.98"/>
    <line x1="331.42" y1="706.98" x2="317.28" y2="692.84"/>
    <line x1="365.56" y1="672.84" x2="385.56" y2="672.84"/>
    <line x1="385.56" y1="692.84" x2="365.56" y2="692.84"/>
    <line x1="385.56" y1="672.84" x2="385.56" y2="692.84"/>
    <line x1="399.71" y1="658.70" x2="419.71" y2="658.70"/>
    <line x1="419.71" y1="706.98" x2="399.71" y2="706.98"/>
    <line x1="433.85" y1="672.84" x2="433.85" y2="692.84"/>
    <line x1="385.56" y1="692.84" x2="385.56" y2="672.84"/>
    <line x1="419.71" y1="658.70" x2="433.85" y2="672.84"/>
    <line x1="433.85" y1="692.84" x2="419.71" y2="706.98"/>
    <line x1="399.71" y1="706.98" x2="385.56" y2="692.84"/>
    <line x1="453.85" y1="692.84" x2="433.85" y2="692.84"/>
    <line x1="453.85" y1="672.84" x2="453.85" y2="692.84"/>
    <line x1="433.85" y1="672.84" x2="433.85" y2="692.84"/>
    <line x1="467.99" y1="658.70" x2="487.99" y2="658.70"/>
    <line x1="487.99" y1="706.98" x2="467.99" y2="706.98"/>
    <line x1="453.85" y1="692.84" x2="453.85" y2="672.84"/>
    <line x1="487.99" y1="658.70" x2="502.13" y2="672.84"/>
    <line x1="502.13" y1="692.84" x2="487.99" y2="706.98"/>
    <line x1="453.85" y1="672.84" x2="467.99" y2="658.70"/>
    <line x1="467.99" y1="706.98" x2="453.85" y2="692.84"/>
    <line x1="522.13" y1="692.84" x2="502.13" y2="692.84"/>
    <line x1="522.13" y1="672.84" x2="522.13" y2="692.84"/>
    <line x1="536.27" y1="658.70" x2="556.27" y2="658.70"/>
    <line x1="556.27" y1="706.98" x2="536.27" y2="706.98"/>
    <line x1="570.42" y1="672.84" x2="570.42" y2="692.84"/>
    <line x1="522.13" y1="692.84" x2="522.13" y2="672.84"/>
    <line x1="556.27" y1="658.70" x2="570.42" y2="672.84"/>
    <line x1="570.42" y1="692.84" x2="556.27" y2="706.98"/>
    <line x1="536.27" y1="706.98" x2="522.13" y2="692.84"/>
    <line x1="590.42" y1="692.84" x2="570.42" y2="692.84"/>
    <line x1="590.42" y1="672.84" x2="590.42" y2="692.84"/>
    <line x1="570.42" y1="672.84" x2="570.42" y2="692.84"/>
    <line x1="604.56" y1="658.70" x2="624.56" y2="658.70"/>
    <line x1="624.56" y1="706.98" x2="604.56" y2="706.98"/>
    <line x1="638.70" y1="672.84" x2="638.70" y2="692.84"/>
    <line x1="590.42" y1="692.84" x2="590.42" y2="672.84"/>
    <line x1="638.70" y1="692.84" x2="624.56" y2="706.98"/>
    <line x1="590.42" y1="672.84" x2="604.56" y2="658.70"/>
    <line x1="604.56" y1="706.98" x2="590.42" y2="692.84"/>
    <line x1="638.70" y1="672.84" x2="658.70" y2="672.84"/>
    <line x1="658.70" y1="692.84" x2="638.70" y2="692.84"/>
    <line x1="638.70" y1="672.84" x2="638.70" y2="692.84"/>
    <line x1="672.84" y1="658.70" x2="692.84" y2="658.70"/>
    <line x1="692.84" y1="706.98" x2="672.84" y2="706.98"/>
    <line x1="706.98" y1="672.84" x2="706.98" y2="692.84"/>
    <line x1="692.84" y1="658.70" x2="706.98" y2="672.84"/>
    <line x1="672.84" y1="706.98" x2="658.70" y2="692.84"/>
  </g>
</svg>
