<?xml version="1.0" encoding="UTF-8"?>
<svg xmlns="http://www.w3.org/2000/svg" width="442" height="442" viewBox="0 0 442 442">
  <rect width="442" height="442" fill="white"/>
  <g stroke="black" stroke-width="2" stroke-linecap="square">
    <line x1="24" y1="2" x2="24" y2="24"/>
    <line x1="24" y1="2" x2="46" y2="2"/>
    <line x1="24" y1="2" x2="24" y2="24"/>
    <line x1="46" y1="2" x2="68" y2="2"/>
    <line x1="68" y1="2" x2="68" y2="24"/>
    <line x1="68" y1="2" x2="90" y2="2"/>
    <line x1="90" y1="2" x2="90" y2="24"/>
    <line x1="68" y1="2" x2="68" y2="24"/>
    <line x1="90" y1="2" x2="112" y2="2"/>
    <line x1="90" y1="2" x2="90" y2="24"/>
    <line x1="112" y1="2" x2="134" y2="2"/>
    <line x1="134" y1="2" x2="156" y2="2"/>
    <line x1="134" y1="24" x2="156" y2="24"/>
    <line x1="156" y1="2" x2="178" y2="2"/>
    <line x1="156" y1="24" x2="178" y2="24"/>
    <line x1="178" y1="2" x2="200" y2="2"/>
    <line x1="200" y1="2" x2="200" y2="24"/>
    <line x1="200" y1="2" x2="222" y2="2"/>
    <line x1="200" y1="2" x2="200" y2="24"/>
    <line x1="222" y1="2" x2="244" y2="2"/>
    <line x1="222" y1="24" x2="244" y2="24"/>
    <line x1="244" y1="2" x2="266" y2="2"/>
    <line x1="244" y1="24" x2="266" y2="24"/>
    <line x1="266" y1="2" x2="288" y2="2"/>
    <line x1="266" y1="24" x2="288" y2="24"/>
    <line x1="288" y1="2" x2="310" y2="2"/>
    <line x1="288" y1="24" x2="310" y2="24"/>
    <line x1="310" y1="2" x2="332" y2="2"/>
    <line x1="310" y1="24" x2="332" y2="24"/>
    <line x1="332" y1="2" x2="354" y2="2"/>
    <line x1="354" y1="2" x2="354" y2="24"/>
    <line x1="354" y1="2" x2="376" y2="2"/>
    <line x1="354" y1="2" x2="354" y2="24"/>
    <line x1="376" y1="2" x2="398" y2="2"/>
    <line x1="398" y1="2" x2="398" y2="24"/>
    <line x1="398" y1="2" x2="420" y2="2"/>
    <line x1="398" y1="2" x2="398" y2="24"/>
    <line x1="420" y1="2" x2="442" y2="2"/>
    <line x1="442" y1="2" x2="442" y2="24"/>
    <line x1="2" y1="46" x2="24" y2="46"/>
    <line x1="2" y1="24" x2="2" y2="46"/>
    <line x1="24" y1="46" x2="46" y2="46"/>
    <line x1="46" y1="24" x2="46" y2="46"/>
    <line x1="68" y1="24" x2="68" y2="46"/>
    <line x1="46" y1="24" x2="46" y2="46"/>
    <line x1="68" y1="24" x2="68" y2="46"/>
    <line x1="90" y1="46" x2="112" y2="46"/>
    <line x1="112" y1="24" x2="112" y2="46"/>
    <line x1="134" y1="24" x2="134" y2="46"/>
    <line x1="112" y1="24" x2="112" y2="46"/>
    <line x1="134" y1="24" x2="156" y2="24"/>
    <line x1="134" y1="46" x2="156" y2="46"/>
    <line x1="134" y1="24" x2="134" y2="46"/>
    <line x1="156" y1="24" x2="178" y2="24"/>
    <line x1="156" y1="46" x2="178" y2="46"/>
    <line x1="200" y1="24" x2="200" y2="46"/>
    <line x1="200" y1="46" x2="222" y2="46"/>
    <line x1="200" y1="24" x2="200" y2="46"/>
    <line x1="222" y1="24" x2="244" y2="24"/>
    <line x1="222" y1="46" x2="244" y2="46"/>
    <line x1="244" y1="24" x2="266" y2="24"/>
    <line x1="244" y1="46" x2="266" y2="46"/>
    <line x1="266" y1="24" x2="288" y2="24"/>
    <line x1="266" y1="46" x2="288" y2="46"/>
    <line x1="288" y1="24" x2="310" y2="24"/>
    <line x1="288" y1="46" x2="310" y2="46"/>
    <line x1="310" y1="24" x2="332" y2="24"/>
    <line x1="310" y1="46" x2="332" y2="46"/>
    <line x1="332" y1="24" x2="332" y2="46"/>
    <line x1="332" y1="46" x2="354" y2="46"/>
    <line x1="332" y1="24" x2="332" y2="46"/>
    <line x1="354" y1="46" x2="376" y2="46"/>
    <line x1="376" y1="24" x2="376" y2="46"/>
    <line x1="376" y1="46" x2="398" y2="46"/>
    <line x1="376" y1="24" x2="376" y2="46"/>
    <line x1="398" y1="46" x2="420" y2="46"/>
    <line x1="420" y1="24" x2="420" y2="46"/>
    <line x1="442" y1="24" x2="442" y2="46"/>
    <line x1="420" y1="24" x2="420" y2="46"/>
    <line x1="2" y1="46" x2="24" y2="46"/>
    <line x1="2" y1="68" x2="24" y2="68"/>
    <line x1="2" y1="46" x2="2" y2="68"/>
    <line x1="24" y1="46" x2="46" y2="46"/>
    <line x1="46" y1="46" x2="46" y2="68"/>
    <line x1="68" y1="46" x2="68" y2="68"/>
    <line x1="46" y1="46" x2="46" y2="68"/>
    <line x1="90" y1="46" x2="90" y2="68"/>
    <line x1="68" y1="46" x2="68" y2="68"/>
    <line x1="90" y1="46" x2="112" y2="46"/>
    <line x1="90" y1="46" x2="90" y2="68"/>
    <line x1="112" y1="68" x2="134" y2="68"/>
    <line x1="134" y1="46" x2="134" y2="68"/>
    <line x1="134" y1="46" x2="156" y2="46"/>
    <line x1="134" y1="46" x2="134" y2="68"/>
    <line x1="156" y1="46" x2="178" y2="46"/>
    <line x1="178" y1="46" x2="178" y2="68"/>
    <line x1="178" y1="68" x2="200" y2="68"/>
    <line x1="178" y1="46" x2="178" y2="68"/>
    <line x1="200" y1="46" x2="222" y2="46"/>
    <line x1="200" y1="68" x2="222" y2="68"/>
    <line x1="222" y1="46" x2="244" y2="46"/>
    <line x1="244" y1="46" x2="244" y2="68"/>
    <line x1="244" y1="46" x2="266" y2="46"/>
    <line x1="244" y1="46" x2="244" y2="68"/>
    <line x1="266" y1="46" x2="288" y2="46"/>
    <line x1="266" y1="68" x2="288" y2="68"/>
    <line x1="288" y1="46" x2="310" y2="46"/>
    <line x1="288" y1="68" x2="310" y2="68"/>
    <line x1="310" y1="46" x2="332" y2="46"/>
    <line x1="332" y1="46" x2="332" y2="68"/>
    <line x1="332" y1="46" x2="354" y2="46"/>
    <line x1="332" y1="46" x2="332" y2="68"/>
    <line x1="354" y1="46" x2="376" y2="46"/>
    <line x1="354" y1="68" x2="376" y2="68"/>
    <line x1="376" y1="46" x2="398" y2="46"/>
    <line x1="398" y1="46" x2="398" y2="68"/>
    <line x1="398" y1="46" x2="420" y2="46"/>
    <line x1="398" y1="46" x2="398" y2="68"/>
    <line x1="442" y1="46" x2="442" y2="68"/>
    <line x1="2" y1="68" x2="24" y2="68"/>
    <line x1="2" y1="68" x2="2" y2="90"/>
    <line x1="24" y1="90" x2="46" y2="90"/>
    <line x1="46" y1="68" x2="46" y2="90"/>
    <line x1="68" y1="68" x2="68" y2="90"/>
    <line x1="46" y1="68" x2="46" y2="90"/>
    <line x1="90" y1="68" x2="90" y2="90"/>
    <line x1="68" y1="68" x2="68" y2="90"/>
    <line x1="90" y1="90" x2="112" y2="90"/>
    <line x1="90" y1="68" x2="90" y2="90"/>
    <line x1="112" y1="68" x2="134" y2="68"/>
    <line x1="112" y1="90" x2="134" y2="90"/>
    <line x1="134" y1="90" x2="156" y2="90"/>
    <line x1="156" y1="68" x2="156" y2="90"/>
    <line x1="156" y1="90" x2="178" y2="90"/>
    <line x1="156" y1="68" x2="156" y2="90"/>
    <line x1="178" y1="68" x2="200" y2="68"/>
    <line x1="200" y1="68" x2="200" y2="90"/>
    <line x1="200" y1="68" x2="222" y2="68"/>
    <line x1="222" y1="68" x2="222" y2="90"/>
    <line x1="200" y1="68" x2="200" y2="90"/>
    <line x1="222" y1="90" x2="244" y2="90"/>
    <line x1="222" y1="68" x2="222" y2="90"/>
    <line x1="244" y1="90" x2="266" y2="90"/>
    <line x1="266" y1="68" x2="266" y2="90"/>
    <line x1="266" y1="68" x2="288" y2="68"/>
    <line x1="288" y1="68" x2="288" y2="90"/>
    <line x1="266" y1="68" x2="266" y2="90"/>
    <line x1="288" y1="68" x2="310" y2="68"/>
    <line x1="288" y1="68" x2="288" y2="90"/>
    <line x1="310" y1="90" x2="332" y2="90"/>
    <line x1="332" y1="68" x2="332" y2="90"/>
    <line x1="354" y1="68" x2="354" y2="90"/>
    <line x1="332" y1="68" x2="332" y2="90"/>
    <line x1="354" y1="68" x2="376" y2="68"/>
    <line x1="376" y1="68" x2="376" y2="90"/>
    <line x1="354" y1="68" x2="354" y2="90"/>
    <line x1="398" y1="68" x2="398" y2="90"/>
    <line x1="376" y1="68" x2="376" y2="90"/>
    <line x1="420" y1="68" x2="420" y2="90"/>
    <line x1="398" y1="68" x2="398" y2="90"/>
    <line x1="420" y1="90" x2="442" y2="90"/>
    <line x1="442" y1="68" x2="442" y2="90"/>
    <line x1="420" y1="68" x2="420" y2="90"/>
    <line x1="2" y1="112" x2="24" y2="112"/>
    <line x1="2" y1="90" x2="2" y2="112"/>
    <line x1="24" y1="90" x2="46" y2="90"/>
    <line x1="46" y1="90" x2="46" y2="112"/>
    <line x1="68" y1="90" x2="68" y2="112"/>
    <line x1="46" y1="90" x2="46" y2="112"/>
    <line x1="68" y1="112" x2="90" y2="112"/>
    <line x1="68" y1="90" x2="68" y2="112"/>
    <line x1="90" y1="90" x2="112" y2="90"/>
    <line x1="90" y1="112" x2="112" y2="112"/>
    <line x1="112" y1="90" x2="134" y2="90"/>
    <line x1="112" y1="112" x2="134" y2="112"/>
    <line x1="134" y1="90" x2="156" y2="90"/>
    <line x1="134" y1="112" x2="156" y2="112"/>
    <line x1="156" y1="90" x2="178" y2="90"/>
    <line x1="178" y1="90" x2="178" y2="112"/>
    <line x1="200" y1="90" x2="200" y2="112"/>
    <line x1="178" y1="90" x2="178" y2="112"/>
    <line x1="200" y1="112" x2="222" y2="112"/>
    <line x1="200" y1="90" x2="200" y2="112"/>
    <line x1="222" y1="90" x2="244" y2="90"/>
    <line x1="222" y1="112" x2="244" y2="112"/>
    <line x1="244" y1="90" x2="266" y2="90"/>
    <line x1="266" y1="112" x2="288" y2="112"/>
    <line x1="288" y1="90" x2="288" y2="112"/>
    <line x1="288" y1="112" x2="310" y2="112"/>
    <line x1="288" y1="90" x2="288" y2="112"/>
    <line x1="310" y1="90" x2="332" y2="90"/>
    <line x1="310" y1="112" x2="332" y2="112"/>
    <line x1="332" y1="112" x2="354" y2="112"/>
    <line x1="354" y1="90" x2="354" y2="112"/>
    <line x1="376" y1="90" x2="376" y2="112"/>
    <line x1="354" y1="90" x2="354" y2="112"/>
    <line x1="398" y1="90" x2="398" y2="112"/>
    <line x1="376" y1="90" x2="376" y2="112"/>
    <line x1="398" y1="112" x2="420" y2="112"/>
    <line x1="398" y1="90" x2="398" y2="112"/>
    <line x1="420" y1="90" x2="442" y2="90"/>
    <line x1="442" y1="90" x2="442" y2="112"/>
    <line x1="2" y1="112" x2="24" y2="112"/>
    <line x1="2" y1="112" x2="2" y2="134"/>
    <line x1="24" y1="134" x2="46" y2="134"/>
    <line x1="46" y1="112" x2="46" y2="134"/>
    <line x1="46" y1="134" x2="68" y2="134"/>
    <line x1="46" y1="112" x2="46" y2="134"/>
    <line x1="68" y1="112" x2="90" y2="112"/>
    <line x1="68" y1="134" x2="90" y2="134"/>
    <line x1="90" y1="112" x2="112" y2="112"/>
    <line x1="112" y1="112" x2="112" y2="134"/>
    <line x1="112" y1="112" x2="134" y2="112"/>
    <line x1="112" y1="112" x2="112" y2="134"/>
    <line x1="134" y1="112" x2="156" y2="112"/>
    <line x1="134" y1="134" x2="156" y2="134"/>
    <line x1="156" y1="112" x2="156" y2="134"/>
    <line x1="178" y1="112" x2="178" y2="134"/>
    <line x1="156" y1="112" x2="156" y2="134"/>
    <line x1="178" y1="134" x2="200" y2="134"/>
    <line x1="178" y1="112" x2="178" y2="134"/>
    <line x1="200" y1="112" x2="222" y2="112"/>
    <line x1="200" y1="134" x2="222" y2="134"/>
    <line x1="222" y1="112" x2="244" y2="112"/>
    <line x1="244" y1="112" x2="244" y2="134"/>
    <line x1="266" y1="112" x2="266" y2="134"/>
    <line x1="244" y1="112" x2="244" y2="134"/>
    <line x1="266" y1="112" x2="288" y2="112"/>
    <line x1="266" y1="112" x2="266" y2="134"/>
    <line x1="288" y1="112" x2="310" y2="112"/>
    <line x1="310" y1="112" x2="332" y2="112"/>
    <line x1="310" y1="134" x2="332" y2="134"/>
    <line x1="332" y1="112" x2="354" y2="112"/>
    <line x1="332" y1="134" x2="354" y2="134"/>
    <line x1="354" y1="134" x2="376" y2="134"/>
    <line x1="376" y1="112" x2="376" y2="134"/>
    <line x1="398" y1="112" x2="398" y2="134"/>
    <line x1="376" y1="112" x2="376" y2="134"/>
    <line x1="398" y1="112" x2="420" y2="112"/>
    <line x1="398" y1="112" x2="398" y2="134"/>
    <line x1="420" y1="134" x2="442" y2="134"/>
    <line x1="442" y1="112" x2="442" y2="134"/>
    <line x1="2" y1="134" x2="2" y2="156"/>
    <line x1="24" y1="134" x2="46" y2="134"/>
    <line x1="24" y1="156" x2="46" y2="156"/>
    <line x1="46" y1="134" x2="68" y2="134"/>
    <line x1="46" y1="156" x2="68" y2="156"/>
    <line x1="68" y1="134" x2="90" y2="134"/>
    <line x1="68" y1="156" x2="90" y2="156"/>
    <line x1="90" y1="156" x2="112" y2="156"/>
    <line x1="112" y1="134" x2="112" y2="156"/>
    <line x1="112" y1="134" x2="112" y2="156"/>
    <line x1="134" y1="134" x2="156" y2="134"/>
    <line x1="156" y1="134" x2="156" y2="156"/>
    <line x1="178" y1="134" x2="178" y2="156"/>
    <line x1="156" y1="134" x2="156" y2="156"/>
    <line x1="178" y1="134" x2="200" y2="134"/>
    <line x1="178" y1="134" x2="178" y2="156"/>
    <line x1="200" y1="134" x2="222" y2="134"/>
    <line x1="200" y1="156" x2="222" y2="156"/>
    <line x1="222" y1="156" x2="244" y2="156"/>
    <line x1="244" y1="134" x2="244" y2="156"/>
    <line x1="244" y1="156" x2="266" y2="156"/>
    <line x1="244" y1="134" x2="244" y2="156"/>
    <line x1="266" y1="156" x2="288" y2="156"/>
    <line x1="288" y1="134" x2="288" y2="156"/>
    <line x1="310" y1="134" x2="310" y2="156"/>
    <line x1="288" y1="134" x2="288" y2="156"/>
    <line x1="310" y1="134" x2="332" y2="134"/>
    <line x1="310" y1="134" x2="310" y2="156"/>
    <line x1="332" y1="134" x2="354" y2="134"/>
    <line x1="332" y1="156" x2="354" y2="156"/>
    <line x1="354" y1="134" x2="376" y2="134"/>
    <line x1="354" y1="156" x2="376" y2="156"/>
    <line x1="376" y1="156" x2="398" y2="156"/>
    <line x1="398" y1="134" x2="398" y2="156"/>
    <line x1="398" y1="156" x2="420" y2="156"/>
    <line x1="398" y1="134" x2="398" y2="156"/>
    <line x1="420" y1="134" x2="442" y2="134"/>
    <line x1="442" y1="134" x2="442" y2="156"/>
    <line x1="24" y1="156" x2="24" y2="178"/>
    <line x1="2" y1="156" x2="2" y2="178"/>
    <line x1="24" y1="156" x2="46" y2="156"/>
    <line x1="24" y1="156" x2="24" y2="178"/>
    <line x1="46" y1="156" x2="68" y2="156"/>
    <line x1="46" y1="178" x2="68" y2="178"/>
    <line x1="68" y1="156" x2="90" y2="156"/>
    <line x1="68" y1="178" x2="90" y2="178"/>
    <line x1="90" y1="156" x2="112" y2="156"/>
    <line x1="90" y1="178" x2="112" y2="178"/>
    <line x1="112" y1="178" x2="134" y2="178"/>
    <line x1="134" y1="156" x2="134" y2="178"/>
    <line x1="156" y1="156" x2="156" y2="178"/>
    <line x1="134" y1="156" x2="134" y2="178"/>
    <line x1="178" y1="156" x2="178" y2="178"/>
    <line x1="156" y1="156" x2="156" y2="178"/>
    <line x1="178" y1="178" x2="200" y2="178"/>
    <line x1="178" y1="156" x2="178" y2="178"/>
    <line x1="200" y1="156" x2="222" y2="156"/>
    <line x1="200" y1="178" x2="222" y2="178"/>
    <line x1="222" y1="156" x2="244" y2="156"/>
    <line x1="244" y1="156" x2="244" y2="178"/>
    <line x1="244" y1="156" x2="266" y2="156"/>
    <line x1="244" y1="156" x2="244" y2="178"/>
    <line x1="266" y1="156" x2="288" y2="156"/>
    <line x1="266" y1="178" x2="288" y2="178"/>
    <line x1="288" y1="178" x2="310" y2="178"/>
    <line x1="310" y1="156" x2="310" y2="178"/>
    <line x1="332" y1="156" x2="332" y2="178"/>
    <line x1="310" y1="156" x2="310" y2="178"/>
    <line x1="332" y1="156" x2="354" y2="156"/>
    <line x1="332" y1="156" x2="332" y2="178"/>
    <line x1="354" y1="156" x2="376" y2="156"/>
    <line x1="354" y1="178" x2="376" y2="178"/>
    <line x1="376" y1="156" x2="398" y2="156"/>
    <line x1="376" y1="178" x2="398" y2="178"/>
    <line x1="398" y1="156" x2="420" y2="156"/>
    <line x1="420" y1="156" x2="420" y2="178"/>
    <line x1="442" y1="156" x2="442" y2="178"/>
    <line x1="420" y1="156" x2="420" y2="178"/>
    <line x1="24" y1="178" x2="24" y2="200"/>
    <line x1="2" y1="178" x2="2" y2="200"/>
    <line x1="24" y1="200" x2="46" y2="200"/>
    <line x1="24" y1="178" x2="24" y2="200"/>
    <line x1="46" y1="178" x2="68" y2="178"/>
    <line x1="46" y1="200" x2="68" y2="200"/>
    <line x1="68" y1="178" x2="90" y2="178"/>
    <line x1="68" y1="200" x2="90" y2="200"/>
    <line x1="90" y1="178" x2="112" y2="178"/>
    <line x1="112" y1="178" x2="112" y2="200"/>
    <line x1="112" y1="178" x2="134" y2="178"/>
    <line x1="112" y1="178" x2="112" y2="200"/>
    <line x1="134" y1="200" x2="156" y2="200"/>
    <line x1="156" y1="178" x2="156" y2="200"/>
    <line x1="156" y1="200" x2="178" y2="200"/>
    <line x1="156" y1="178" x2="156" y2="200"/>
    <line x1="178" y1="178" x2="200" y2="178"/>
    <line x1="178" y1="200" x2="200" y2="200"/>
    <line x1="200" y1="178" x2="222" y2="178"/>
    <line x1="222" y1="178" x2="222" y2="200"/>
    <line x1="244" y1="178" x2="244" y2="200"/>
    <line x1="222" y1="178" x2="222" y2="200"/>
    <line x1="244" y1="200" x2="266" y2="200"/>
    <line x1="244" y1="178" x2="244" y2="200"/>
    <line x1="266" y1="178" x2="288" y2="178"/>
    <line x1="266" y1="200" x2="288" y2="200"/>
    <line x1="288" y1="178" x2="310" y2="178"/>
    <line x1="310" y1="178" x2="310" y2="200"/>
    <line x1="332" y1="178" x2="332" y2="200"/>
    <line x1="310" y1="178" x2="310" y2="200"/>
    <line x1="332" y1="200" x2="354" y2="200"/>
    <line x1="332" y1="178" x2="332" y2="200"/>
    <line x1="354" y1="178" x2="376" y2="178"/>
    <line x1="354" y1="200" x2="376" y2="200"/>
    <line x1="376" y1="178" x2="398" y2="178"/>
    <line x1="398" y1="178" x2="398" y2="200"/>
    <line x1="398" y1="200" x2="420" y2="200"/>
    <line x1="398" y1="178" x2="398" y2="200"/>
    <line x1="442" y1="178" x2="442" y2="200"/>
    <line x1="2" y1="222" x2="24" y2="222"/>
    <line x1="2" y1="200" x2="2" y2="222"/>
    <line x1="24" y1="200" x2="46" y2="200"/>
    <line x1="24" y1="222" x2="46" y2="222"/>
    <line x1="46" y1="200" x2="68" y2="200"/>
    <line x1="46" y1="222" x2="68" y2="222"/>
    <line x1="68" y1="200" x2="90" y2="200"/>
    <line x1="90" y1="200" x2="90" y2="222"/>
    <line x1="112" y1="200" x2="112" y2="222"/>
    <line x1="90" y1="200" x2="90" y2="222"/>
    <line x1="112" y1="222" x2="134" y2="222"/>
    <line x1="112" y1="200" x2="112" y2="222"/>
    <line x1="134" y1="200" x2="156" y2="200"/>
    <line x1="134" y1="222" x2="156" y2="222"/>
    <line x1="156" y1="200" x2="178" y2="200"/>
    <line x1="178" y1="200" x2="178" y2="222"/>
    <line x1="178" y1="200" x2="200" y2="200"/>
    <line x1="178" y1="200" x2="178" y2="222"/>
    <line x1="200" y1="222" x2="222" y2="222"/>
    <line x1="222" y1="200" x2="222" y2="222"/>
    <line x1="222" y1="222" x2="244" y2="222"/>
    <line x1="222" y1="200" x2="222" y2="222"/>
    <line x1="244" y1="200" x2="266" y2="200"/>
    <line x1="244" y1="222" x2="266" y2="222"/>
    <line x1="266" y1="200" x2="288" y2="200"/>
    <line x1="288" y1="200" x2="288" y2="222"/>
    <line x1="288" y1="200" x2="288" y2="222"/>
    <line x1="310" y1="222" x2="332" y2="222"/>
    <line x1="332" y1="200" x2="332" y2="222"/>
    <line x1="332" y1="200" x2="354" y2="200"/>
    <line x1="332" y1="200" x2="332" y2="222"/>
    <line x1="354" y1="200" x2="376" y2="200"/>
    <line x1="354" y1="222" x2="376" y2="222"/>
    <line x1="376" y1="222" x2="398" y2="222"/>
    <line x1="398" y1="200" x2="398" y2="222"/>
    <line x1="398" y1="200" x2="420" y2="200"/>
    <line x1="398" y1="200" x2="398" y2="222"/>
    <line x1="420" y1="222" x2="442" y2="222"/>
    <line x1="442" y1="200" x2="442" y2="222"/>
    <line x1="2" y1="222" x2="24" y2="222"/>
    <line x1="2" y1="244" x2="24" y2="244"/>
    <line x1="2" y1="222" x2="2" y2="244"/>
    <line x1="24" y1="222" x2="46" y2="222"/>
    <line x1="24" y1="244" x2="46" y2="244"/>
    <line x1="46" y1="222" x2="68" y2="222"/>
    <line x1="68" y1="222" x2="68" y2="244"/>
    <line x1="90" y1="222" x2="90" y2="244"/>
    <line x1="68" y1="222" x2="68" y2="244"/>
    <line x1="112" y1="222" x2="112" y2="244"/>
    <line x1="90" y1="222" x2="90" y2="244"/>
    <line x1="112" y1="222" x2="134" y2="222"/>
    <line x1="112" y1="222" x2="112" y2="244"/>
    <line x1="134" y1="222" x2="156" y2="222"/>
    <line x1="156" y1="222" x2="156" y2="244"/>
    <line x1="156" y1="244" x2="178" y2="244"/>
    <line x1="156" y1="222" x2="156" y2="244"/>
    <line x1="178" y1="244" x2="200" y2="244"/>
    <line x1="200" y1="222" x2="200" y2="244"/>
    <line x1="200" y1="222" x2="222" y2="222"/>
    <line x1="200" y1="222" x2="200" y2="244"/>
    <line x1="222" y1="222" x2="244" y2="222"/>
    <line x1="222" y1="244" x2="244" y2="244"/>
    <line x1="244" y1="222" x2="266" y2="222"/>
    <line x1="266" y1="222" x2="266" y2="244"/>
    <line x1="288" y1="222" x2="288" y2="244"/>
    <line x1="266" y1="222" x2="266" y2="244"/>
    <line x1="310" y1="222" x2="310" y2="244"/>
    <line x1="288" y1="222" x2="288" y2="244"/>
    <line x1="310" y1="222" x2="332" y2="222"/>
    <line x1="332" y1="222" x2="332" y2="244"/>
    <line x1="310" y1="222" x2="310" y2="244"/>
    <line x1="332" y1="222" x2="332" y2="244"/>
    <line x1="354" y1="222" x2="376" y2="222"/>
    <line x1="376" y1="222" x2="376" y2="244"/>
    <line x1="376" y1="222" x2="398" y2="222"/>
    <line x1="398" y1="222" x2="398" y2="244"/>
    <line x1="376" y1="222" x2="376" y2="244"/>
    <line x1="398" y1="244" x2="420" y2="244"/>
    <line x1="398" y1="222" x2="398" y2="244"/>
    <line x1="420" y1="222" x2="442" y2="222"/>
    <line x1="442" y1="222" x2="442" y2="244"/>
    <line x1="2" y1="244" x2="24" y2="244"/>
    <line x1="2" y1="244" x2="2" y2="266"/>
    <line x1="24" y1="244" x2="46" y2="244"/>
    <line x1="24" y1="266" x2="46" y2="266"/>
    <line x1="68" y1="244" x2="68" y2="266"/>
    <line x1="90" y1="244" x2="90" y2="266"/>
    <line x1="68" y1="244" x2="68" y2="266"/>
    <line x1="90" y1="266" x2="112" y2="266"/>
    <line x1="90" y1="244" x2="90" y2="266"/>
    <line x1="112" y1="266" x2="134" y2="266"/>
    <line x1="134" y1="244" x2="134" y2="266"/>
    <line x1="134" y1="266" x2="156" y2="266"/>
    <line x1="134" y1="244" x2="134" y2="266"/>
    <line x1="156" y1="244" x2="178" y2="244"/>
    <line x1="156" y1="266" x2="178" y2="266"/>
    <line x1="178" y1="244" x2="200" y2="244"/>
    <line x1="200" y1="244" x2="200" y2="266"/>
    <line x1="200" y1="244" x2="200" y2="266"/>
    <line x1="222" y1="244" x2="244" y2="244"/>
    <line x1="222" y1="266" x2="244" y2="266"/>
    <line x1="244" y1="244" x2="244" y2="266"/>
    <line x1="266" y1="244" x2="266" y2="266"/>
    <line x1="244" y1="244" x2="244" y2="266"/>
    <line x1="288" y1="244" x2="288" y2="266"/>
    <line x1="266" y1="244" x2="266" y2="266"/>
    <line x1="310" y1="244" x2="310" y2="266"/>
    <line x1="288" y1="244" x2="288" y2="266"/>
    <line x1="332" y1="244" x2="332" y2="266"/>
    <line x1="310" y1="244" x2="310" y2="266"/>
    <line x1="354" y1="244" x2="354" y2="266"/>
    <line x1="332" y1="244" x2="332" y2="266"/>
    <line x1="376" y1="244" x2="376" y2="266"/>
    <line x1="354" y1="244" x2="354" y2="266"/>
    <line x1="398" y1="244" x2="398" y2="266"/>
    <line x1="376" y1="244" x2="376" y2="266"/>
    <line x1="398" y1="244" x2="420" y2="244"/>
    <line x1="398" y1="244" x2="398" y2="266"/>
    <line x1="420" y1="266" x2="442" y2="266"/>
    <line x1="442" y1="244" x2="442" y2="266"/>
    <line x1="2" y1="288" x2="24" y2="288"/>
    <line x1="2" y1="266" x2="2" y2="288"/>
    <line x1="24" y1="266" x2="46" y2="266"/>
    <line x1="46" y1="266" x2="46" y2="288"/>
    <line x1="46" y1="288" x2="68" y2="288"/>
    <line x1="68" y1="266" x2="68" y2="288"/>
    <line x1="46" y1="266" x2="46" y2="288"/>
    <line x1="90" y1="266" x2="90" y2="288"/>
    <line x1="68" y1="266" x2="68" y2="288"/>
    <line x1="90" y1="266" x2="112" y2="266"/>
    <line x1="90" y1="288" x2="112" y2="288"/>
    <line x1="90" y1="266" x2="90" y2="288"/>
    <line x1="112" y1="266" x2="134" y2="266"/>
    <line x1="134" y1="266" x2="134" y2="288"/>
    <line x1="134" y1="266" x2="156" y2="266"/>
    <line x1="134" y1="266" x2="134" y2="288"/>
    <line x1="156" y1="266" x2="178" y2="266"/>
    <line x1="178" y1="266" x2="178" y2="288"/>
    <line x1="200" y1="266" x2="200" y2="288"/>
    <line x1="178" y1="266" x2="178" y2="288"/>
    <line x1="200" y1="288" x2="222" y2="288"/>
    <line x1="222" y1="266" x2="222" y2="288"/>
    <line x1="200" y1="266" x2="200" y2="288"/>
    <line x1="222" y1="266" x2="244" y2="266"/>
    <line x1="222" y1="266" x2="222" y2="288"/>
    <line x1="266" y1="266" x2="266" y2="288"/>
    <line x1="288" y1="266" x2="288" y2="288"/>
    <line x1="266" y1="266" x2="266" y2="288"/>
    <line x1="310" y1="266" x2="310" y2="288"/>
    <line x1="288" y1="266" x2="288" y2="288"/>
    <line x1="310" y1="288" x2="332" y2="288"/>
    <line x1="310" y1="266" x2="310" y2="288"/>
    <line x1="332" y1="288" x2="354" y2="288"/>
    <line x1="354" y1="266" x2="354" y2="288"/>
    <line x1="376" y1="266" x2="376" y2="288"/>
    <line x1="354" y1="266" x2="354" y2="288"/>
    <line x1="398" y1="266" x2="398" y2="288"/>
    <line x1="376" y1="266" x2="376" y2="288"/>
    <line x1="398" y1="288" x2="420" y2="288"/>
    <line x1="398" y1="266" x2="398" y2="288"/>
    <line x1="420" y1="266" x2="442" y2="266"/>
    <line x1="442" y1="266" x2="442" y2="288"/>
    <line x1="2" y1="288" x2="24" y2="288"/>
    <line x1="2" y1="288" x2="2" y2="310"/>
    <line x1="24" y1="310" x2="46" y2="310"/>
    <line x1="46" y1="288" x2="46" y2="310"/>
    <line x1="46" y1="288" x2="68" y2="288"/>
    <line x1="46" y1="288" x2="46" y2="310"/>
    <line x1="68" y1="310" x2="90" y2="310"/>
    <line x1="90" y1="288" x2="90" y2="310"/>
    <line x1="90" y1="288" x2="112" y2="288"/>
    <line x1="90" y1="288" x2="90" y2="310"/>
    <line x1="112" y1="310" x2="134" y2="310"/>
    <line x1="134" y1="288" x2="134" y2="310"/>
    <line x1="156" y1="288" x2="156" y2="310"/>
    <line x1="134" y1="288" x2="134" y2="310"/>
    <line x1="178" y1="288" x2="178" y2="310"/>
    <line x1="156" y1="288" x2="156" y2="310"/>
    <line x1="178" y1="310" x2="200" y2="310"/>
    <line x1="178" y1="288" x2="178" y2="310"/>
    <line x1="200" y1="288" x2="222" y2="288"/>
    <line x1="222" y1="288" x2="222" y2="310"/>
    <line x1="244" y1="288" x2="244" y2="310"/>
    <line x1="222" y1="288" x2="222" y2="310"/>
    <line x1="244" y1="310" x2="266" y2="310"/>
    <line x1="266" y1="288" x2="266" y2="310"/>
    <line x1="244" y1="288" x2="244" y2="310"/>
    <line x1="288" y1="288" x2="288" y2="310"/>
    <line x1="266" y1="288" x2="266" y2="310"/>
    <line x1="288" y1="310" x2="310" y2="310"/>
    <line x1="288" y1="288" x2="288" y2="310"/>
    <line x1="310" y1="288" x2="332" y2="288"/>
    <line x1="310" y1="310" x2="332" y2="310"/>
    <line x1="332" y1="288" x2="354" y2="288"/>
    <line x1="332" y1="310" x2="354" y2="310"/>
    <line x1="354" y1="310" x2="376" y2="310"/>
    <line x1="376" y1="288" x2="376" y2="310"/>
    <line x1="376" y1="288" x2="376" y2="310"/>
    <line x1="398" y1="288" x2="420" y2="288"/>
    <line x1="398" y1="310" x2="420" y2="310"/>
    <line x1="420" y1="288" x2="420" y2="310"/>
    <line x1="442" y1="288" x2="442" y2="310"/>
    <line x1="420" y1="288" x2="420" y2="310"/>
    <line x1="2" y1="310" x2="2" y2="332"/>
    <line x1="24" y1="310" x2="46" y2="310"/>
    <line x1="24" y1="332" x2="46" y2="332"/>
    <line x1="46" y1="332" x2="68" y2="332"/>
    <line x1="68" y1="310" x2="68" y2="332"/>
    <line x1="68" y1="310" x2="90" y2="310"/>
    <line x1="68" y1="310" x2="68" y2="332"/>
    <line x1="112" y1="310" x2="112" y2="332"/>
    <line x1="112" y1="310" x2="134" y2="310"/>
    <line x1="112" y1="310" x2="112" y2="332"/>
    <line x1="134" y1="332" x2="156" y2="332"/>
    <line x1="156" y1="310" x2="156" y2="332"/>
    <line x1="156" y1="332" x2="178" y2="332"/>
    <line x1="156" y1="310" x2="156" y2="332"/>
    <line x1="178" y1="310" x2="200" y2="310"/>
    <line x1="178" y1="332" x2="200" y2="332"/>
    <line x1="222" y1="310" x2="222" y2="332"/>
    <line x1="244" y1="310" x2="244" y2="332"/>
    <line x1="222" y1="310" x2="222" y2="332"/>
    <line x1="244" y1="310" x2="266" y2="310"/>
    <line x1="244" y1="310" x2="244" y2="332"/>
    <line x1="266" y1="332" x2="288" y2="332"/>
    <line x1="288" y1="310" x2="288" y2="332"/>
    <line x1="288" y1="310" x2="310" y2="310"/>
    <line x1="310" y1="310" x2="310" y2="332"/>
    <line x1="288" y1="310" x2="288" y2="332"/>
    <line x1="310" y1="310" x2="332" y2="310"/>
    <line x1="310" y1="310" x2="310" y2="332"/>
    <line x1="332" y1="310" x2="354" y2="310"/>
    <line x1="332" y1="332" x2="354" y2="332"/>
    <line x1="354" y1="310" x2="376" y2="310"/>
    <line x1="354" y1="332" x2="376" y2="332"/>
    <line x1="376" y1="332" x2="398" y2="332"/>
    <line x1="398" y1="310" x2="420" y2="310"/>
    <line x1="420" y1="310" x2="420" y2="332"/>
    <line x1="442" y1="310" x2="442" y2="332"/>
    <line x1="420" y1="310" x2="420" y2="332"/>
    <line x1="24" y1="332" x2="24" y2="354"/>
    <line x1="2" y1="332" x2="2" y2="354"/>
    <line x1="24" y1="332" x2="46" y2="332"/>
    <line x1="24" y1="354" x2="46" y2="354"/>
    <line x1="24" y1="332" x2="24" y2="354"/>
    <line x1="46" y1="332" x2="68" y2="332"/>
    <line x1="46" y1="354" x2="68" y2="354"/>
    <line x1="90" y1="332" x2="90" y2="354"/>
    <line x1="112" y1="332" x2="112" y2="354"/>
    <line x1="90" y1="332" x2="90" y2="354"/>
    <line x1="134" y1="332" x2="134" y2="354"/>
    <line x1="112" y1="332" x2="112" y2="354"/>
    <line x1="134" y1="332" x2="156" y2="332"/>
    <line x1="134" y1="332" x2="134" y2="354"/>
    <line x1="156" y1="332" x2="178" y2="332"/>
    <line x1="156" y1="354" x2="178" y2="354"/>
    <line x1="178" y1="332" x2="200" y2="332"/>
    <line x1="200" y1="332" x2="200" y2="354"/>
    <line x1="200" y1="332" x2="200" y2="354"/>
    <line x1="222" y1="354" x2="244" y2="354"/>
    <line x1="244" y1="332" x2="244" y2="354"/>
    <line x1="266" y1="332" x2="266" y2="354"/>
    <line x1="244" y1="332" x2="244" y2="354"/>
    <line x1="266" y1="332" x2="288" y2="332"/>
    <line x1="266" y1="332" x2="266" y2="354"/>
    <line x1="288" y1="354" x2="310" y2="354"/>
    <line x1="310" y1="332" x2="310" y2="354"/>
    <line x1="310" y1="354" x2="332" y2="354"/>
    <line x1="310" y1="332" x2="310" y2="354"/>
    <line x1="332" y1="332" x2="354" y2="332"/>
    <line x1="332" y1="354" x2="354" y2="354"/>
    <line x1="354" y1="332" x2="376" y2="332"/>
    <line x1="376" y1="332" x2="376" y2="354"/>
    <line x1="376" y1="332" x2="398" y2="332"/>
    <line x1="398" y1="332" x2="398" y2="354"/>
    <line x1="376" y1="332" x2="376" y2="354"/>
    <line x1="398" y1="354" x2="420" y2="354"/>
    <line x1="398" y1="332" x2="398" y2="354"/>
    <line x1="420" y1="354" x2="442" y2="354"/>
    <line x1="442" y1="332" x2="442" y2="354"/>
    <line x1="2" y1="376" x2="24" y2="376"/>
    <line x1="2" y1="354" x2="2" y2="376"/>
    <line x1="24" y1="354" x2="46" y2="354"/>
    <line x1="24" y1="376" x2="46" y2="376"/>
    <line x1="46" y1="354" x2="68" y2="354"/>
    <line x1="68" y1="354" x2="68" y2="376"/>
    <line x1="68" y1="376" x2="90" y2="376"/>
    <line x1="90" y1="354" x2="90" y2="376"/>
    <line x1="68" y1="354" x2="68" y2="376"/>
    <line x1="90" y1="354" x2="90" y2="376"/>
    <line x1="112" y1="376" x2="134" y2="376"/>
    <line x1="134" y1="354" x2="134" y2="376"/>
    <line x1="134" y1="376" x2="156" y2="376"/>
    <line x1="134" y1="354" x2="134" y2="376"/>
    <line x1="156" y1="354" x2="178" y2="354"/>
    <line x1="178" y1="354" x2="178" y2="376"/>
    <line x1="200" y1="354" x2="200" y2="376"/>
    <line x1="178" y1="354" x2="178" y2="376"/>
    <line x1="222" y1="354" x2="222" y2="376"/>
    <line x1="200" y1="354" x2="200" y2="376"/>
    <line x1="222" y1="354" x2="244" y2="354"/>
    <line x1="222" y1="354" x2="222" y2="376"/>
    <line x1="244" y1="376" x2="266" y2="376"/>
    <line x1="266" y1="354" x2="266" y2="376"/>
    <line x1="288" y1="354" x2="288" y2="376"/>
    <line x1="266" y1="354" x2="266" y2="376"/>
    <line x1="288" y1="354" x2="310" y2="354"/>
    <line x1="288" y1="354" x2="288" y2="376"/>
    <line x1="310" y1="354" x2="332" y2="354"/>
    <line x1="310" y1="376" x2="332" y2="376"/>
    <line x1="332" y1="354" x2="354" y2="354"/>
    <line x1="332" y1="376" x2="354" y2="376"/>
    <line x1="354" y1="376" x2="376" y2="376"/>
    <line x1="376" y1="354" x2="376" y2="376"/>
    <line x1="376" y1="354" x2="376" y2="376"/>
    <line x1="398" y1="354" x2="420" y2="354"/>
    <line x1="398" y1="376" x2="420" y2="376"/>
    <line x1="420" y1="354" x2="442" y2="354"/>
    <line x1="442" y1="354" x2="442" y2="376"/>
    <line x1="2" y1="376" x2="24" y2="376"/>
    <line x1="2" y1="376" x2="2" y2="398"/>
    <line x1="24" y1="376" x2="46" y2="376"/>
    <line x1="46" y1="376" x2="46" y2="398"/>
    <line x1="46" y1="398" x2="68" y2="398"/>
    <line x1="46" y1="376" x2="46" y2="398"/>
    <line x1="68" y1="376" x2="90" y2="376"/>
    <line x1="90" y1="376" x2="90" y2="398"/>
    <line x1="90" y1="398" x2="112" y2="398"/>
    <line x1="112" y1="376" x2="112" y2="398"/>
    <line x1="90" y1="376" x2="90" y2="398"/>
    <line x1="112" y1="376" x2="134" y2="376"/>
    <line x1="112" y1="376" x2="112" y2="398"/>
    <line x1="134" y1="376" x2="156" y2="376"/>
    <line x1="134" y1="398" x2="156" y2="398"/>
    <line x1="156" y1="398" x2="178" y2="398"/>
    <line x1="178" y1="376" x2="178" y2="398"/>
    <line x1="200" y1="376" x2="200" y2="398"/>
    <line x1="178" y1="376" x2="178" y2="398"/>
    <line x1="200" y1="398" x2="222" y2="398"/>
    <line x1="222" y1="376" x2="222" y2="398"/>
    <line x1="200" y1="376" x2="200" y2="398"/>
    <line x1="244" y1="376" x2="244" y2="398"/>
    <line x1="222" y1="376" x2="222" y2="398"/>
    <line x1="244" y1="376" x2="266" y2="376"/>
    <line x1="266" y1="376" x2="266" y2="398"/>
    <line x1="244" y1="376" x2="244" y2="398"/>
    <line x1="266" y1="376" x2="266" y2="398"/>
    <line x1="288" y1="398" x2="310" y2="398"/>
    <line x1="310" y1="376" x2="310" y2="398"/>
    <line x1="310" y1="376" x2="332" y2="376"/>
    <line x1="310" y1="398" x2="332" y2="398"/>
    <line x1="310" y1="376" x2="310" y2="398"/>
    <line x1="332" y1="376" x2="354" y2="376"/>
    <line x1="354" y1="376" x2="376" y2="376"/>
    <line x1="376" y1="376" x2="376" y2="398"/>
    <line x1="376" y1="398" x2="398" y2="398"/>
    <line x1="398" y1="376" x2="398" y2="398"/>
    <line x1="376" y1="376" x2="376" y2="398"/>
    <line x1="398" y1="376" x2="420" y2="376"/>
    <line x1="398" y1="376" x2="398" y2="398"/>
    <line x1="420" y1="398" x2="442" y2="398"/>
    <line x1="442" y1="376" x2="442" y2="398"/>
    <line x1="24" y1="398" x2="24" y2="420"/>
    <line x1="2" y1="398" x2="2" y2="420"/>
    <line x1="24" y1="420" x2="46" y2="420"/>
    <line x1="24" y1="398" x2="24" y2="420"/>
    <line x1="46" y1="398" x2="68" y2="398"/>
    <line x1="46" y1="420" x2="68" y2="420"/>
    <line x1="68" y1="398" x2="68" y2="420"/>
    <line x1="68" y1="420" x2="90" y2="420"/>
    <line x1="68" y1="398" x2="68" y2="420"/>
    <line x1="90" y1="398" x2="112" y2="398"/>
    <line x1="90" y1="420" x2="112" y2="420"/>
    <line x1="112" y1="420" x2="134" y2="420"/>
    <line x1="134" y1="398" x2="134" y2="420"/>
    <line x1="134" y1="398" x2="156" y2="398"/>
    <line x1="134" y1="398" x2="134" y2="420"/>
    <line x1="156" y1="398" x2="178" y2="398"/>
    <line x1="178" y1="398" x2="178" y2="420"/>
    <line x1="200" y1="398" x2="200" y2="420"/>
    <line x1="178" y1="398" x2="178" y2="420"/>
    <line x1="200" y1="398" x2="222" y2="398"/>
    <line x1="200" y1="398" x2="200" y2="420"/>
    <line x1="222" y1="420" x2="244" y2="420"/>
    <line x1="244" y1="398" x2="244" y2="420"/>
    <line x1="266" y1="398" x2="266" y2="420"/>
    <line x1="244" y1="398" x2="244" y2="420"/>
    <line x1="288" y1="398" x2="288" y2="420"/>
    <line x1="266" y1="398" x2="266" y2="420"/>
    <line x1="288" y1="398" x2="310" y2="398"/>
    <line x1="288" y1="398" x2="288" y2="420"/>
    <line x1="310" y1="398" x2="332" y2="398"/>
    <line x1="332" y1="398" x2="332" y2="420"/>
    <line x1="354" y1="398" x2="354" y2="420"/>
    <line x1="332" y1="398" x2="332" y2="420"/>
    <line x1="354" y1="420" x2="376" y2="420"/>
    <line x1="354" y1="398" x2="354" y2="420"/>
    <line x1="376" y1="398" x2="398" y2="398"/>
    <line x1="398" y1="398" x2="398" y2="420"/>
    <line x1="398" y1="420" x2="420" y2="420"/>
    <line x1="398" y1="398" x2="398" y2="420"/>
    <line x1="420" y1="398" x2="442" y2="398"/>
    <line x1="442" y1="398" x2="442" y2="420"/>
    <line x1="2" y1="442" x2="24" y2="442"/>
    <line x1="2" y1="420" x2="2" y2="442"/>
    <line x1="24" y1="420" x2="46" y2="420"/>
    <line x1="24" y1="442" x2="46" y2="442"/>
    <line x1="46" y1="420" x2="68" y2="420"/>
    <line x1="46" y1="442" x2="68" y2="442"/>
    <line x1="68" y1="420" x2="90" y2="420"/>
    <line x1="68" y1="442" x2="90" y2="442"/>
    <line x1="90" y1="420" x2="112" y2="420"/>
    <line x1="90" y1="442" x2="112" y2="442"/>
    <line x1="112" y1="420" x2="134" y2="420"/>
    <line x1="112" y1="442" x2="134" y2="442"/>
    <line x1="134" y1="442" x2="156" y2="442"/>
    <line x1="156" y1="420" x2="156" y2="442"/>
    <line x1="156" y1="442" x2="178" y2="442"/>
    <line x1="156" y1="420" x2="156" y2="442"/>
    <line x1="178" y1="442" x2="200" y2="442"/>
    <line x1="200" y1="442" x2="222" y2="442"/>
    <line x1="222" y1="420" x2="222" y2="442"/>
    <line x1="222" y1="420" x2="244" y2="420"/>
    <line x1="222" y1="442" x2="244" y2="442"/>
    <line x1="222" y1="420" x2="222" y2="442"/>
    <line x1="244" y1="442" x2="266" y2="442"/>
    <line x1="266" y1="442" x2="288" y2="442"/>
    <line x1="288" y1="442" x2="310" y2="442"/>
    <line x1="310" y1="420" x2="310" y2="442"/>
    <line x1="310" y1="442" x2="332" y2="442"/>
    <line x1="310" y1="420" x2="310" y2="442"/>
    <line x1="332" y1="442" x2="354" y2="442"/>
    <line x1="354" y1="420" x2="354" y2="442"/>
    <line x1="354" y1="420" x2="376" y2="420"/>
    <line x1="354" y1="442" x2="376" y2="442"/>
    <line x1="354" y1="420" x2="354" y2="442"/>
    <line x1="376" y1="442" x2="398" y2="442"/>
    <line x1="398" y1="420" x2="420" y2="420"/>
    <line x1="398" y1="442" x2="420" y2="442"/>
    <line x1="442" y1="420" x2="442" y2="442"/>
  </g>
  <g stroke="red" stroke-width="3" stroke-linecap="round" fill="none">
    <path class="solution-path" d="M 13 13 L 13 35 L 35 35 L 35 13 L 57 13 L 57 35 L 57 57 L 57 79 L 57 101 L 57 123 L 79 123 L 101 123 L 101 145 L 79 145 L 57 145 L 35 145 L 13 145 L 13 167 L 13 189 L 13 211 L 35 211 L 57 211 L 79 211 L 79 233 L 79 255 L 79 277 L 79 299 L 57 299 L 57 321 L 35 321 L 13 321 L 13 343 L 13 365 L 35 365 L 57 365 L 57 387 L 79 387 L 79 409 L 101 409 L 123 409 L 123 387 L 145 387 L 167 387 L 167 365 L 145 365 L 145 343 L 167 343 L 189 343 L 189 365 L 189 387 L 189 409 L 189 431 L 211 431 L 211 409 L 233 409 L 233 387 L 233 365 L 255 365 L 255 343 L 255 321 L 277 321 L 277 299 L 277 277 L 277 255 L 277 233 L 277 211 L 255 211 L 233 211 L 233 189 L 233 167 L 211 167 L 189 167 L 189 145 L 211 145 L 233 145 L 233 123 L 211 123 L 189 123 L 189 101 L 189 79 L 167 79 L 167 57 L 145 57 L 145 79 L 123 79 L 101 79 L 101 57 L 123 57 L 123 35 L 123 13 L 145 13 L 167 13 L 189 13 L 189 35 L 189 57 L 211 57 L 233 57 L 233 79 L 255 79 L 255 57 L 277 57 L 299 57 L 321 57 L 321 79 L 299 79 L 299 101 L 321 101 L 343 101 L 343 79 L 343 57 L 365 57 L 387 57 L 387 79 L 387 101 L 387 123 L 387 145 L 365 145 L 343 145 L 321 145 L 321 167 L 321 189 L 321 211 L 299 211 L 299 233 L 299 255 L 299 277 L 299 299 L 321 299 L 343 299 L 365 299 L 365 277 L 365 255 L 365 233 L 343 233 L 343 211 L 365 211 L 387 211 L 387 189 L 365 189 L 343 189 L 343 167 L 365 167 L 387 167 L 409 167 L 409 189 L 431 189 L 431 211 L 409 211 L 409 233 L 431 233 L 431 255 L 409 255 L 409 277 L 431 277 L 431 299 L 431 321 L 431 343 L 409 343 L 409 321 L 387 321 L 365 321 L 343 321 L 321 321 L 321 343 L 343 343 L 365 343 L 365 365 L 343 365 L 321 365 L 299 365 L 299 387 L 277 387 L 277 409 L 277 431 L 299 431 L 299 409 L 321 409 L 321 431 L 343 431 L 343 409 L 343 387 L 365 387 L 365 409 L 387 409 L 387 431 L 409 431 L 431 431 "/>
  </g>
</svg>