<?xml version="1.0" encoding="UTF-8"?>
<svg xmlns="http://www.w3.org/2000/svg" width="442" height="442" viewBox="0 0 442 442">
  <rect width="442" height="442" fill="white"/>
  <g stroke="black" stroke-width="2" stroke-linecap="square">
    <line x1="24" y1="2" x2="46" y2="2"/>
    <line x1="24" y1="24" x2="46" y2="24"/>
    <line x1="46" y1="2" x2="68" y2="2"/>
    <line x1="68" y1="2" x2="90" y2="2"/>
    <line x1="68" y1="24" x2="90" y2="24"/>
    <line x1="90" y1="2" x2="112" y2="2"/>
    <line x1="90" y1="24" x2="112" y2="24"/>
    <line x1="112" y1="2" x2="134" y2="2"/>
    <line x1="134" y1="2" x2="156" y2="2"/>
    <line x1="156" y1="2" x2="178" y2="2"/>
    <line x1="178" y1="2" x2="200" y2="2"/>
    <line x1="178" y1="24" x2="200" y2="24"/>
    <line x1="200" y1="2" x2="200" y2="24"/>
    <line x1="200" y1="2" x2="222" y2="2"/>
    <line x1="200" y1="2" x2="200" y2="24"/>
    <line x1="222" y1="2" x2="244" y2="2"/>
    <line x1="222" y1="24" x2="244" y2="24"/>
    <line x1="244" y1="2" x2="266" y2="2"/>
    <line x1="266" y1="2" x2="288" y2="2"/>
    <line x1="288" y1="2" x2="310" y2="2"/>
    <line x1="310" y1="2" x2="332" y2="2"/>
    <line x1="332" y1="2" x2="354" y2="2"/>
    <line x1="354" y1="2" x2="376" y2="2"/>
    <line x1="376" y1="2" x2="398" y2="2"/>
    <line x1="376" y1="24" x2="398" y2="24"/>
    <line x1="398" y1="2" x2="420" y2="2"/>
    <line x1="398" y1="24" x2="420" y2="24"/>
    <line x1="420" y1="2" x2="420" y2="24"/>
    <line x1="420" y1="2" x2="442" y2="2"/>
    <line x1="442" y1="2" x2="442" y2="24"/>
    <line x1="420" y1="2" x2="420" y2="24"/>
    <line x1="2" y1="24" x2="2" y2="46"/>
    <line x1="24" y1="24" x2="46" y2="24"/>
    <line x1="46" y1="24" x2="46" y2="46"/>
    <line x1="46" y1="24" x2="46" y2="46"/>
    <line x1="68" y1="24" x2="90" y2="24"/>
    <line x1="90" y1="24" x2="112" y2="24"/>
    <line x1="90" y1="46" x2="112" y2="46"/>
    <line x1="112" y1="24" x2="112" y2="46"/>
    <line x1="112" y1="46" x2="134" y2="46"/>
    <line x1="134" y1="24" x2="134" y2="46"/>
    <line x1="112" y1="24" x2="112" y2="46"/>
    <line x1="134" y1="46" x2="156" y2="46"/>
    <line x1="156" y1="24" x2="156" y2="46"/>
    <line x1="134" y1="24" x2="134" y2="46"/>
    <line x1="156" y1="46" x2="178" y2="46"/>
    <line x1="156" y1="24" x2="156" y2="46"/>
    <line x1="178" y1="24" x2="200" y2="24"/>
    <line x1="200" y1="46" x2="222" y2="46"/>
    <line x1="222" y1="24" x2="244" y2="24"/>
    <line x1="222" y1="46" x2="244" y2="46"/>
    <line x1="244" y1="24" x2="244" y2="46"/>
    <line x1="244" y1="46" x2="266" y2="46"/>
    <line x1="266" y1="24" x2="266" y2="46"/>
    <line x1="244" y1="24" x2="244" y2="46"/>
    <line x1="266" y1="46" x2="288" y2="46"/>
    <line x1="288" y1="24" x2="288" y2="46"/>
    <line x1="266" y1="24" x2="266" y2="46"/>
    <line x1="288" y1="46" x2="310" y2="46"/>
    <line x1="310" y1="24" x2="310" y2="46"/>
    <line x1="288" y1="24" x2="288" y2="46"/>
    <line x1="310" y1="46" x2="332" y2="46"/>
    <line x1="332" y1="24" x2="332" y2="46"/>
    <line x1="310" y1="24" x2="310" y2="46"/>
    <line x1="354" y1="24" x2="354" y2="46"/>
    <line x1="332" y1="24" x2="332" y2="46"/>
    <line x1="354" y1="24" x2="354" y2="46"/>
    <line x1="376" y1="24" x2="398" y2="24"/>
    <line x1="398" y1="24" x2="420" y2="24"/>
    <line x1="398" y1="46" x2="420" y2="46"/>
    <line x1="420" y1="24" x2="420" y2="46"/>
    <line x1="442" y1="24" x2="442" y2="46"/>
    <line x1="420" y1="24" x2="420" y2="46"/>
    <line x1="24" y1="46" x2="24" y2="68"/>
    <line x1="2" y1="46" x2="2" y2="68"/>
    <line x1="46" y1="46" x2="46" y2="68"/>
    <line x1="24" y1="46" x2="24" y2="68"/>
    <line x1="68" y1="46" x2="68" y2="68"/>
    <line x1="46" y1="46" x2="46" y2="68"/>
    <line x1="68" y1="68" x2="90" y2="68"/>
    <line x1="90" y1="46" x2="90" y2="68"/>
    <line x1="68" y1="46" x2="68" y2="68"/>
    <line x1="90" y1="46" x2="112" y2="46"/>
    <line x1="90" y1="46" x2="90" y2="68"/>
    <line x1="112" y1="46" x2="134" y2="46"/>
    <line x1="112" y1="68" x2="134" y2="68"/>
    <line x1="134" y1="46" x2="134" y2="68"/>
    <line x1="134" y1="46" x2="156" y2="46"/>
    <line x1="134" y1="46" x2="134" y2="68"/>
    <line x1="156" y1="46" x2="178" y2="46"/>
    <line x1="156" y1="68" x2="178" y2="68"/>
    <line x1="178" y1="46" x2="178" y2="68"/>
    <line x1="178" y1="68" x2="200" y2="68"/>
    <line x1="178" y1="46" x2="178" y2="68"/>
    <line x1="200" y1="46" x2="222" y2="46"/>
    <line x1="200" y1="68" x2="222" y2="68"/>
    <line x1="222" y1="46" x2="244" y2="46"/>
    <line x1="222" y1="68" x2="244" y2="68"/>
    <line x1="244" y1="46" x2="266" y2="46"/>
    <line x1="244" y1="68" x2="266" y2="68"/>
    <line x1="266" y1="46" x2="288" y2="46"/>
    <line x1="288" y1="46" x2="310" y2="46"/>
    <line x1="288" y1="68" x2="310" y2="68"/>
    <line x1="310" y1="46" x2="332" y2="46"/>
    <line x1="310" y1="68" x2="332" y2="68"/>
    <line x1="332" y1="46" x2="332" y2="68"/>
    <line x1="332" y1="68" x2="354" y2="68"/>
    <line x1="354" y1="46" x2="354" y2="68"/>
    <line x1="332" y1="46" x2="332" y2="68"/>
    <line x1="354" y1="68" x2="376" y2="68"/>
    <line x1="376" y1="46" x2="376" y2="68"/>
    <line x1="354" y1="46" x2="354" y2="68"/>
    <line x1="376" y1="46" x2="376" y2="68"/>
    <line x1="398" y1="46" x2="420" y2="46"/>
    <line x1="398" y1="68" x2="420" y2="68"/>
    <line x1="442" y1="46" x2="442" y2="68"/>
    <line x1="24" y1="68" x2="24" y2="90"/>
    <line x1="2" y1="68" x2="2" y2="90"/>
    <line x1="46" y1="68" x2="46" y2="90"/>
    <line x1="24" y1="68" x2="24" y2="90"/>
    <line x1="46" y1="68" x2="46" y2="90"/>
    <line x1="68" y1="68" x2="90" y2="68"/>
    <line x1="68" y1="90" x2="90" y2="90"/>
    <line x1="90" y1="90" x2="112" y2="90"/>
    <line x1="112" y1="68" x2="134" y2="68"/>
    <line x1="112" y1="90" x2="134" y2="90"/>
    <line x1="134" y1="68" x2="134" y2="90"/>
    <line x1="134" y1="68" x2="134" y2="90"/>
    <line x1="156" y1="68" x2="178" y2="68"/>
    <line x1="156" y1="90" x2="178" y2="90"/>
    <line x1="178" y1="68" x2="200" y2="68"/>
    <line x1="200" y1="68" x2="222" y2="68"/>
    <line x1="200" y1="90" x2="222" y2="90"/>
    <line x1="222" y1="68" x2="222" y2="90"/>
    <line x1="222" y1="68" x2="244" y2="68"/>
    <line x1="244" y1="68" x2="244" y2="90"/>
    <line x1="222" y1="68" x2="222" y2="90"/>
    <line x1="244" y1="68" x2="266" y2="68"/>
    <line x1="266" y1="68" x2="266" y2="90"/>
    <line x1="244" y1="68" x2="244" y2="90"/>
    <line x1="266" y1="90" x2="288" y2="90"/>
    <line x1="266" y1="68" x2="266" y2="90"/>
    <line x1="288" y1="68" x2="310" y2="68"/>
    <line x1="310" y1="68" x2="332" y2="68"/>
    <line x1="310" y1="90" x2="332" y2="90"/>
    <line x1="332" y1="68" x2="354" y2="68"/>
    <line x1="332" y1="90" x2="354" y2="90"/>
    <line x1="354" y1="68" x2="376" y2="68"/>
    <line x1="376" y1="68" x2="376" y2="90"/>
    <line x1="376" y1="90" x2="398" y2="90"/>
    <line x1="398" y1="68" x2="398" y2="90"/>
    <line x1="376" y1="68" x2="376" y2="90"/>
    <line x1="398" y1="68" x2="420" y2="68"/>
    <line x1="398" y1="68" x2="398" y2="90"/>
    <line x1="442" y1="68" x2="442" y2="90"/>
    <line x1="2" y1="112" x2="24" y2="112"/>
    <line x1="24" y1="90" x2="24" y2="112"/>
    <line x1="2" y1="90" x2="2" y2="112"/>
    <line x1="46" y1="90" x2="46" y2="112"/>
    <line x1="24" y1="90" x2="24" y2="112"/>
    <line x1="46" y1="112" x2="68" y2="112"/>
    <line x1="46" y1="90" x2="46" y2="112"/>
    <line x1="68" y1="90" x2="90" y2="90"/>
    <line x1="90" y1="90" x2="112" y2="90"/>
    <line x1="112" y1="90" x2="112" y2="112"/>
    <line x1="112" y1="90" x2="134" y2="90"/>
    <line x1="112" y1="90" x2="112" y2="112"/>
    <line x1="134" y1="112" x2="156" y2="112"/>
    <line x1="156" y1="90" x2="178" y2="90"/>
    <line x1="178" y1="90" x2="178" y2="112"/>
    <line x1="178" y1="90" x2="178" y2="112"/>
    <line x1="200" y1="90" x2="222" y2="90"/>
    <line x1="200" y1="112" x2="222" y2="112"/>
    <line x1="222" y1="112" x2="244" y2="112"/>
    <line x1="266" y1="90" x2="288" y2="90"/>
    <line x1="266" y1="112" x2="288" y2="112"/>
    <line x1="288" y1="90" x2="288" y2="112"/>
    <line x1="288" y1="112" x2="310" y2="112"/>
    <line x1="288" y1="90" x2="288" y2="112"/>
    <line x1="310" y1="90" x2="332" y2="90"/>
    <line x1="310" y1="112" x2="332" y2="112"/>
    <line x1="332" y1="90" x2="354" y2="90"/>
    <line x1="332" y1="112" x2="354" y2="112"/>
    <line x1="354" y1="90" x2="354" y2="112"/>
    <line x1="354" y1="90" x2="354" y2="112"/>
    <line x1="376" y1="90" x2="398" y2="90"/>
    <line x1="376" y1="112" x2="398" y2="112"/>
    <line x1="398" y1="90" x2="398" y2="112"/>
    <line x1="420" y1="90" x2="420" y2="112"/>
    <line x1="398" y1="90" x2="398" y2="112"/>
    <line x1="442" y1="90" x2="442" y2="112"/>
    <line x1="420" y1="90" x2="420" y2="112"/>
    <line x1="2" y1="112" x2="24" y2="112"/>
    <line x1="2" y1="134" x2="24" y2="134"/>
    <line x1="2" y1="112" x2="2" y2="134"/>
    <line x1="24" y1="134" x2="46" y2="134"/>
    <line x1="46" y1="112" x2="46" y2="134"/>
    <line x1="46" y1="112" x2="68" y2="112"/>
    <line x1="46" y1="134" x2="68" y2="134"/>
    <line x1="46" y1="112" x2="46" y2="134"/>
    <line x1="90" y1="112" x2="90" y2="134"/>
    <line x1="90" y1="112" x2="90" y2="134"/>
    <line x1="134" y1="112" x2="156" y2="112"/>
    <line x1="134" y1="134" x2="156" y2="134"/>
    <line x1="156" y1="112" x2="156" y2="134"/>
    <line x1="156" y1="134" x2="178" y2="134"/>
    <line x1="178" y1="112" x2="178" y2="134"/>
    <line x1="156" y1="112" x2="156" y2="134"/>
    <line x1="178" y1="112" x2="178" y2="134"/>
    <line x1="200" y1="112" x2="222" y2="112"/>
    <line x1="200" y1="134" x2="222" y2="134"/>
    <line x1="222" y1="112" x2="244" y2="112"/>
    <line x1="222" y1="134" x2="244" y2="134"/>
    <line x1="244" y1="112" x2="244" y2="134"/>
    <line x1="244" y1="134" x2="266" y2="134"/>
    <line x1="244" y1="112" x2="244" y2="134"/>
    <line x1="266" y1="112" x2="288" y2="112"/>
    <line x1="266" y1="134" x2="288" y2="134"/>
    <line x1="288" y1="112" x2="310" y2="112"/>
    <line x1="310" y1="112" x2="332" y2="112"/>
    <line x1="310" y1="134" x2="332" y2="134"/>
    <line x1="332" y1="112" x2="332" y2="134"/>
    <line x1="332" y1="112" x2="354" y2="112"/>
    <line x1="354" y1="112" x2="354" y2="134"/>
    <line x1="332" y1="112" x2="332" y2="134"/>
    <line x1="354" y1="134" x2="376" y2="134"/>
    <line x1="376" y1="112" x2="376" y2="134"/>
    <line x1="354" y1="112" x2="354" y2="134"/>
    <line x1="376" y1="112" x2="398" y2="112"/>
    <line x1="398" y1="112" x2="398" y2="134"/>
    <line x1="376" y1="112" x2="376" y2="134"/>
    <line x1="420" y1="112" x2="420" y2="134"/>
    <line x1="398" y1="112" x2="398" y2="134"/>
    <line x1="442" y1="112" x2="442" y2="134"/>
    <line x1="420" y1="112" x2="420" y2="134"/>
    <line x1="2" y1="134" x2="24" y2="134"/>
    <line x1="2" y1="156" x2="24" y2="156"/>
    <line x1="2" y1="134" x2="2" y2="156"/>
    <line x1="24" y1="134" x2="46" y2="134"/>
    <line x1="24" y1="156" x2="46" y2="156"/>
    <line x1="46" y1="134" x2="68" y2="134"/>
    <line x1="68" y1="156" x2="90" y2="156"/>
    <line x1="90" y1="134" x2="90" y2="156"/>
    <line x1="112" y1="134" x2="112" y2="156"/>
    <line x1="90" y1="134" x2="90" y2="156"/>
    <line x1="112" y1="156" x2="134" y2="156"/>
    <line x1="112" y1="134" x2="112" y2="156"/>
    <line x1="134" y1="134" x2="156" y2="134"/>
    <line x1="156" y1="134" x2="178" y2="134"/>
    <line x1="156" y1="156" x2="178" y2="156"/>
    <line x1="178" y1="134" x2="178" y2="156"/>
    <line x1="178" y1="156" x2="200" y2="156"/>
    <line x1="178" y1="134" x2="178" y2="156"/>
    <line x1="200" y1="134" x2="222" y2="134"/>
    <line x1="200" y1="156" x2="222" y2="156"/>
    <line x1="222" y1="134" x2="244" y2="134"/>
    <line x1="222" y1="156" x2="244" y2="156"/>
    <line x1="244" y1="134" x2="266" y2="134"/>
    <line x1="244" y1="156" x2="266" y2="156"/>
    <line x1="266" y1="134" x2="288" y2="134"/>
    <line x1="266" y1="156" x2="288" y2="156"/>
    <line x1="288" y1="134" x2="288" y2="156"/>
    <line x1="288" y1="134" x2="288" y2="156"/>
    <line x1="310" y1="134" x2="332" y2="134"/>
    <line x1="310" y1="156" x2="332" y2="156"/>
    <line x1="332" y1="156" x2="354" y2="156"/>
    <line x1="354" y1="134" x2="376" y2="134"/>
    <line x1="354" y1="156" x2="376" y2="156"/>
    <line x1="398" y1="134" x2="398" y2="156"/>
    <line x1="398" y1="156" x2="420" y2="156"/>
    <line x1="420" y1="134" x2="420" y2="156"/>
    <line x1="398" y1="134" x2="398" y2="156"/>
    <line x1="442" y1="134" x2="442" y2="156"/>
    <line x1="420" y1="134" x2="420" y2="156"/>
    <line x1="2" y1="156" x2="24" y2="156"/>
    <line x1="2" y1="178" x2="24" y2="178"/>
    <line x1="2" y1="156" x2="2" y2="178"/>
    <line x1="24" y1="156" x2="46" y2="156"/>
    <line x1="68" y1="156" x2="90" y2="156"/>
    <line x1="90" y1="156" x2="90" y2="178"/>
    <line x1="90" y1="156" x2="90" y2="178"/>
    <line x1="112" y1="156" x2="134" y2="156"/>
    <line x1="112" y1="178" x2="134" y2="178"/>
    <line x1="134" y1="156" x2="134" y2="178"/>
    <line x1="134" y1="156" x2="134" y2="178"/>
    <line x1="156" y1="156" x2="178" y2="156"/>
    <line x1="178" y1="156" x2="200" y2="156"/>
    <line x1="178" y1="178" x2="200" y2="178"/>
    <line x1="200" y1="156" x2="222" y2="156"/>
    <line x1="200" y1="178" x2="222" y2="178"/>
    <line x1="222" y1="156" x2="244" y2="156"/>
    <line x1="222" y1="178" x2="244" y2="178"/>
    <line x1="244" y1="156" x2="266" y2="156"/>
    <line x1="244" y1="178" x2="266" y2="178"/>
    <line x1="266" y1="156" x2="288" y2="156"/>
    <line x1="266" y1="178" x2="288" y2="178"/>
    <line x1="288" y1="156" x2="288" y2="178"/>
    <line x1="288" y1="178" x2="310" y2="178"/>
    <line x1="310" y1="156" x2="310" y2="178"/>
    <line x1="288" y1="156" x2="288" y2="178"/>
    <line x1="310" y1="156" x2="332" y2="156"/>
    <line x1="332" y1="156" x2="332" y2="178"/>
    <line x1="310" y1="156" x2="310" y2="178"/>
    <line x1="332" y1="156" x2="354" y2="156"/>
    <line x1="332" y1="156" x2="332" y2="178"/>
    <line x1="354" y1="156" x2="376" y2="156"/>
    <line x1="354" y1="178" x2="376" y2="178"/>
    <line x1="376" y1="156" x2="376" y2="178"/>
    <line x1="376" y1="178" x2="398" y2="178"/>
    <line x1="398" y1="156" x2="398" y2="178"/>
    <line x1="376" y1="156" x2="376" y2="178"/>
    <line x1="398" y1="156" x2="420" y2="156"/>
    <line x1="420" y1="156" x2="420" y2="178"/>
    <line x1="398" y1="156" x2="398" y2="178"/>
    <line x1="420" y1="178" x2="442" y2="178"/>
    <line x1="442" y1="156" x2="442" y2="178"/>
    <line x1="420" y1="156" x2="420" y2="178"/>
    <line x1="2" y1="178" x2="24" y2="178"/>
    <line x1="2" y1="200" x2="24" y2="200"/>
    <line x1="2" y1="178" x2="2" y2="200"/>
    <line x1="46" y1="178" x2="46" y2="200"/>
    <line x1="68" y1="178" x2="68" y2="200"/>
    <line x1="46" y1="178" x2="46" y2="200"/>
    <line x1="90" y1="178" x2="90" y2="200"/>
    <line x1="68" y1="178" x2="68" y2="200"/>
    <line x1="90" y1="178" x2="90" y2="200"/>
    <line x1="112" y1="178" x2="134" y2="178"/>
    <line x1="112" y1="200" x2="134" y2="200"/>
    <line x1="134" y1="178" x2="134" y2="200"/>
    <line x1="134" y1="200" x2="156" y2="200"/>
    <line x1="156" y1="178" x2="156" y2="200"/>
    <line x1="134" y1="178" x2="134" y2="200"/>
    <line x1="156" y1="200" x2="178" y2="200"/>
    <line x1="178" y1="178" x2="178" y2="200"/>
    <line x1="156" y1="178" x2="156" y2="200"/>
    <line x1="178" y1="178" x2="200" y2="178"/>
    <line x1="178" y1="178" x2="178" y2="200"/>
    <line x1="200" y1="178" x2="222" y2="178"/>
    <line x1="200" y1="200" x2="222" y2="200"/>
    <line x1="222" y1="178" x2="244" y2="178"/>
    <line x1="244" y1="178" x2="266" y2="178"/>
    <line x1="244" y1="200" x2="266" y2="200"/>
    <line x1="266" y1="178" x2="266" y2="200"/>
    <line x1="266" y1="178" x2="288" y2="178"/>
    <line x1="266" y1="178" x2="266" y2="200"/>
    <line x1="288" y1="178" x2="310" y2="178"/>
    <line x1="310" y1="178" x2="310" y2="200"/>
    <line x1="310" y1="178" x2="310" y2="200"/>
    <line x1="332" y1="200" x2="354" y2="200"/>
    <line x1="354" y1="178" x2="376" y2="178"/>
    <line x1="354" y1="200" x2="376" y2="200"/>
    <line x1="376" y1="178" x2="398" y2="178"/>
    <line x1="376" y1="200" x2="398" y2="200"/>
    <line x1="420" y1="178" x2="420" y2="200"/>
    <line x1="420" y1="178" x2="442" y2="178"/>
    <line x1="442" y1="178" x2="442" y2="200"/>
    <line x1="420" y1="178" x2="420" y2="200"/>
    <line x1="2" y1="200" x2="24" y2="200"/>
    <line x1="2" y1="222" x2="24" y2="222"/>
    <line x1="2" y1="200" x2="2" y2="222"/>
    <line x1="24" y1="222" x2="46" y2="222"/>
    <line x1="46" y1="200" x2="46" y2="222"/>
    <line x1="68" y1="200" x2="68" y2="222"/>
    <line x1="46" y1="200" x2="46" y2="222"/>
    <line x1="90" y1="200" x2="90" y2="222"/>
    <line x1="68" y1="200" x2="68" y2="222"/>
    <line x1="90" y1="200" x2="90" y2="222"/>
    <line x1="112" y1="200" x2="134" y2="200"/>
    <line x1="134" y1="200" x2="156" y2="200"/>
    <line x1="134" y1="222" x2="156" y2="222"/>
    <line x1="156" y1="200" x2="178" y2="200"/>
    <line x1="156" y1="222" x2="178" y2="222"/>
    <line x1="178" y1="222" x2="200" y2="222"/>
    <line x1="200" y1="200" x2="222" y2="200"/>
    <line x1="200" y1="222" x2="222" y2="222"/>
    <line x1="222" y1="200" x2="222" y2="222"/>
    <line x1="222" y1="222" x2="244" y2="222"/>
    <line x1="222" y1="200" x2="222" y2="222"/>
    <line x1="244" y1="200" x2="266" y2="200"/>
    <line x1="244" y1="222" x2="266" y2="222"/>
    <line x1="266" y1="222" x2="288" y2="222"/>
    <line x1="288" y1="200" x2="288" y2="222"/>
    <line x1="288" y1="200" x2="288" y2="222"/>
    <line x1="310" y1="222" x2="332" y2="222"/>
    <line x1="332" y1="200" x2="354" y2="200"/>
    <line x1="332" y1="222" x2="354" y2="222"/>
    <line x1="354" y1="200" x2="376" y2="200"/>
    <line x1="354" y1="222" x2="376" y2="222"/>
    <line x1="376" y1="200" x2="398" y2="200"/>
    <line x1="376" y1="222" x2="398" y2="222"/>
    <line x1="398" y1="200" x2="398" y2="222"/>
    <line x1="398" y1="200" x2="398" y2="222"/>
    <line x1="420" y1="222" x2="442" y2="222"/>
    <line x1="442" y1="200" x2="442" y2="222"/>
    <line x1="2" y1="222" x2="24" y2="222"/>
    <line x1="2" y1="222" x2="2" y2="244"/>
    <line x1="24" y1="222" x2="46" y2="222"/>
    <line x1="24" y1="244" x2="46" y2="244"/>
    <line x1="68" y1="222" x2="68" y2="244"/>
    <line x1="90" y1="222" x2="90" y2="244"/>
    <line x1="68" y1="222" x2="68" y2="244"/>
    <line x1="90" y1="244" x2="112" y2="244"/>
    <line x1="112" y1="222" x2="112" y2="244"/>
    <line x1="90" y1="222" x2="90" y2="244"/>
    <line x1="112" y1="222" x2="112" y2="244"/>
    <line x1="134" y1="222" x2="156" y2="222"/>
    <line x1="134" y1="244" x2="156" y2="244"/>
    <line x1="156" y1="222" x2="178" y2="222"/>
    <line x1="156" y1="244" x2="178" y2="244"/>
    <line x1="178" y1="222" x2="200" y2="222"/>
    <line x1="200" y1="222" x2="222" y2="222"/>
    <line x1="222" y1="222" x2="244" y2="222"/>
    <line x1="222" y1="244" x2="244" y2="244"/>
    <line x1="244" y1="222" x2="266" y2="222"/>
    <line x1="244" y1="244" x2="266" y2="244"/>
    <line x1="266" y1="222" x2="266" y2="244"/>
    <line x1="266" y1="222" x2="288" y2="222"/>
    <line x1="288" y1="222" x2="288" y2="244"/>
    <line x1="266" y1="222" x2="266" y2="244"/>
    <line x1="288" y1="222" x2="288" y2="244"/>
    <line x1="310" y1="222" x2="332" y2="222"/>
    <line x1="310" y1="244" x2="332" y2="244"/>
    <line x1="332" y1="222" x2="354" y2="222"/>
    <line x1="332" y1="244" x2="354" y2="244"/>
    <line x1="354" y1="222" x2="376" y2="222"/>
    <line x1="354" y1="244" x2="376" y2="244"/>
    <line x1="376" y1="222" x2="398" y2="222"/>
    <line x1="376" y1="244" x2="398" y2="244"/>
    <line x1="398" y1="222" x2="398" y2="244"/>
    <line x1="398" y1="244" x2="420" y2="244"/>
    <line x1="398" y1="222" x2="398" y2="244"/>
    <line x1="420" y1="222" x2="442" y2="222"/>
    <line x1="420" y1="244" x2="442" y2="244"/>
    <line x1="442" y1="222" x2="442" y2="244"/>
    <line x1="24" y1="244" x2="24" y2="266"/>
    <line x1="2" y1="244" x2="2" y2="266"/>
    <line x1="24" y1="244" x2="46" y2="244"/>
    <line x1="24" y1="244" x2="24" y2="266"/>
    <line x1="68" y1="244" x2="68" y2="266"/>
    <line x1="68" y1="244" x2="68" y2="266"/>
    <line x1="90" y1="244" x2="112" y2="244"/>
    <line x1="112" y1="244" x2="112" y2="266"/>
    <line x1="112" y1="244" x2="112" y2="266"/>
    <line x1="134" y1="244" x2="156" y2="244"/>
    <line x1="156" y1="244" x2="178" y2="244"/>
    <line x1="156" y1="266" x2="178" y2="266"/>
    <line x1="178" y1="244" x2="178" y2="266"/>
    <line x1="200" y1="244" x2="200" y2="266"/>
    <line x1="178" y1="244" x2="178" y2="266"/>
    <line x1="200" y1="266" x2="222" y2="266"/>
    <line x1="200" y1="244" x2="200" y2="266"/>
    <line x1="222" y1="244" x2="244" y2="244"/>
    <line x1="222" y1="266" x2="244" y2="266"/>
    <line x1="244" y1="244" x2="266" y2="244"/>
    <line x1="266" y1="266" x2="288" y2="266"/>
    <line x1="288" y1="244" x2="288" y2="266"/>
    <line x1="288" y1="266" x2="310" y2="266"/>
    <line x1="288" y1="244" x2="288" y2="266"/>
    <line x1="310" y1="244" x2="332" y2="244"/>
    <line x1="310" y1="266" x2="332" y2="266"/>
    <line x1="332" y1="244" x2="354" y2="244"/>
    <line x1="354" y1="244" x2="376" y2="244"/>
    <line x1="376" y1="244" x2="398" y2="244"/>
    <line x1="398" y1="244" x2="420" y2="244"/>
    <line x1="420" y1="244" x2="442" y2="244"/>
    <line x1="442" y1="244" x2="442" y2="266"/>
    <line x1="24" y1="266" x2="24" y2="288"/>
    <line x1="2" y1="266" x2="2" y2="288"/>
    <line x1="46" y1="266" x2="46" y2="288"/>
    <line x1="24" y1="266" x2="24" y2="288"/>
    <line x1="46" y1="288" x2="68" y2="288"/>
    <line x1="68" y1="266" x2="68" y2="288"/>
    <line x1="46" y1="266" x2="46" y2="288"/>
    <line x1="90" y1="266" x2="90" y2="288"/>
    <line x1="68" y1="266" x2="68" y2="288"/>
    <line x1="112" y1="266" x2="112" y2="288"/>
    <line x1="90" y1="266" x2="90" y2="288"/>
    <line x1="134" y1="266" x2="134" y2="288"/>
    <line x1="112" y1="266" x2="112" y2="288"/>
    <line x1="134" y1="288" x2="156" y2="288"/>
    <line x1="134" y1="266" x2="134" y2="288"/>
    <line x1="156" y1="266" x2="178" y2="266"/>
    <line x1="156" y1="288" x2="178" y2="288"/>
    <line x1="178" y1="266" x2="178" y2="288"/>
    <line x1="178" y1="288" x2="200" y2="288"/>
    <line x1="178" y1="266" x2="178" y2="288"/>
    <line x1="200" y1="266" x2="222" y2="266"/>
    <line x1="200" y1="288" x2="222" y2="288"/>
    <line x1="222" y1="266" x2="244" y2="266"/>
    <line x1="244" y1="266" x2="244" y2="288"/>
    <line x1="244" y1="266" x2="244" y2="288"/>
    <line x1="266" y1="266" x2="288" y2="266"/>
    <line x1="288" y1="266" x2="310" y2="266"/>
    <line x1="310" y1="266" x2="332" y2="266"/>
    <line x1="332" y1="266" x2="332" y2="288"/>
    <line x1="332" y1="288" x2="354" y2="288"/>
    <line x1="354" y1="266" x2="354" y2="288"/>
    <line x1="332" y1="266" x2="332" y2="288"/>
    <line x1="376" y1="266" x2="376" y2="288"/>
    <line x1="354" y1="266" x2="354" y2="288"/>
    <line x1="398" y1="266" x2="398" y2="288"/>
    <line x1="376" y1="266" x2="376" y2="288"/>
    <line x1="420" y1="266" x2="420" y2="288"/>
    <line x1="398" y1="266" x2="398" y2="288"/>
    <line x1="442" y1="266" x2="442" y2="288"/>
    <line x1="420" y1="266" x2="420" y2="288"/>
    <line x1="2" y1="310" x2="24" y2="310"/>
    <line x1="24" y1="288" x2="24" y2="310"/>
    <line x1="2" y1="288" x2="2" y2="310"/>
    <line x1="24" y1="288" x2="24" y2="310"/>
    <line x1="46" y1="288" x2="68" y2="288"/>
    <line x1="68" y1="288" x2="68" y2="310"/>
    <line x1="90" y1="288" x2="90" y2="310"/>
    <line x1="68" y1="288" x2="68" y2="310"/>
    <line x1="112" y1="288" x2="112" y2="310"/>
    <line x1="90" y1="288" x2="90" y2="310"/>
    <line x1="112" y1="288" x2="112" y2="310"/>
    <line x1="134" y1="288" x2="156" y2="288"/>
    <line x1="134" y1="310" x2="156" y2="310"/>
    <line x1="156" y1="288" x2="178" y2="288"/>
    <line x1="156" y1="310" x2="178" y2="310"/>
    <line x1="178" y1="288" x2="200" y2="288"/>
    <line x1="178" y1="310" x2="200" y2="310"/>
    <line x1="200" y1="288" x2="222" y2="288"/>
    <line x1="200" y1="310" x2="222" y2="310"/>
    <line x1="222" y1="288" x2="222" y2="310"/>
    <line x1="222" y1="310" x2="244" y2="310"/>
    <line x1="244" y1="288" x2="244" y2="310"/>
    <line x1="222" y1="288" x2="222" y2="310"/>
    <line x1="266" y1="288" x2="266" y2="310"/>
    <line x1="244" y1="288" x2="244" y2="310"/>
    <line x1="288" y1="288" x2="288" y2="310"/>
    <line x1="266" y1="288" x2="266" y2="310"/>
    <line x1="310" y1="288" x2="310" y2="310"/>
    <line x1="288" y1="288" x2="288" y2="310"/>
    <line x1="310" y1="288" x2="310" y2="310"/>
    <line x1="332" y1="288" x2="354" y2="288"/>
    <line x1="332" y1="310" x2="354" y2="310"/>
    <line x1="354" y1="288" x2="354" y2="310"/>
    <line x1="354" y1="310" x2="376" y2="310"/>
    <line x1="376" y1="288" x2="376" y2="310"/>
    <line x1="354" y1="288" x2="354" y2="310"/>
    <line x1="376" y1="310" x2="398" y2="310"/>
    <line x1="398" y1="288" x2="398" y2="310"/>
    <line x1="376" y1="288" x2="376" y2="310"/>
    <line x1="398" y1="310" x2="420" y2="310"/>
    <line x1="420" y1="288" x2="420" y2="310"/>
    <line x1="398" y1="288" x2="398" y2="310"/>
    <line x1="420" y1="310" x2="442" y2="310"/>
    <line x1="442" y1="288" x2="442" y2="310"/>
    <line x1="420" y1="288" x2="420" y2="310"/>
    <line x1="2" y1="310" x2="24" y2="310"/>
    <line x1="2" y1="332" x2="24" y2="332"/>
    <line x1="2" y1="310" x2="2" y2="332"/>
    <line x1="46" y1="310" x2="46" y2="332"/>
    <line x1="68" y1="310" x2="68" y2="332"/>
    <line x1="46" y1="310" x2="46" y2="332"/>
    <line x1="68" y1="332" x2="90" y2="332"/>
    <line x1="90" y1="310" x2="90" y2="332"/>
    <line x1="68" y1="310" x2="68" y2="332"/>
    <line x1="112" y1="310" x2="112" y2="332"/>
    <line x1="90" y1="310" x2="90" y2="332"/>
    <line x1="112" y1="310" x2="112" y2="332"/>
    <line x1="134" y1="310" x2="156" y2="310"/>
    <line x1="156" y1="310" x2="178" y2="310"/>
    <line x1="178" y1="310" x2="178" y2="332"/>
    <line x1="178" y1="310" x2="200" y2="310"/>
    <line x1="178" y1="310" x2="178" y2="332"/>
    <line x1="200" y1="310" x2="222" y2="310"/>
    <line x1="200" y1="332" x2="222" y2="332"/>
    <line x1="222" y1="310" x2="244" y2="310"/>
    <line x1="222" y1="332" x2="244" y2="332"/>
    <line x1="244" y1="310" x2="244" y2="332"/>
    <line x1="266" y1="310" x2="266" y2="332"/>
    <line x1="244" y1="310" x2="244" y2="332"/>
    <line x1="288" y1="310" x2="288" y2="332"/>
    <line x1="266" y1="310" x2="266" y2="332"/>
    <line x1="288" y1="332" x2="310" y2="332"/>
    <line x1="310" y1="310" x2="310" y2="332"/>
    <line x1="288" y1="310" x2="288" y2="332"/>
    <line x1="310" y1="310" x2="310" y2="332"/>
    <line x1="332" y1="310" x2="354" y2="310"/>
    <line x1="332" y1="332" x2="354" y2="332"/>
    <line x1="354" y1="310" x2="376" y2="310"/>
    <line x1="354" y1="332" x2="376" y2="332"/>
    <line x1="376" y1="310" x2="398" y2="310"/>
    <line x1="376" y1="332" x2="398" y2="332"/>
    <line x1="398" y1="310" x2="420" y2="310"/>
    <line x1="420" y1="310" x2="442" y2="310"/>
    <line x1="420" y1="332" x2="442" y2="332"/>
    <line x1="442" y1="310" x2="442" y2="332"/>
    <line x1="2" y1="332" x2="24" y2="332"/>
    <line x1="2" y1="332" x2="2" y2="354"/>
    <line x1="46" y1="332" x2="46" y2="354"/>
    <line x1="46" y1="354" x2="68" y2="354"/>
    <line x1="46" y1="332" x2="46" y2="354"/>
    <line x1="68" y1="332" x2="90" y2="332"/>
    <line x1="68" y1="354" x2="90" y2="354"/>
    <line x1="90" y1="332" x2="90" y2="354"/>
    <line x1="112" y1="332" x2="112" y2="354"/>
    <line x1="90" y1="332" x2="90" y2="354"/>
    <line x1="134" y1="332" x2="134" y2="354"/>
    <line x1="112" y1="332" x2="112" y2="354"/>
    <line x1="134" y1="354" x2="156" y2="354"/>
    <line x1="156" y1="332" x2="156" y2="354"/>
    <line x1="134" y1="332" x2="134" y2="354"/>
    <line x1="156" y1="332" x2="156" y2="354"/>
    <line x1="200" y1="332" x2="222" y2="332"/>
    <line x1="200" y1="354" x2="222" y2="354"/>
    <line x1="222" y1="332" x2="244" y2="332"/>
    <line x1="244" y1="332" x2="244" y2="354"/>
    <line x1="244" y1="354" x2="266" y2="354"/>
    <line x1="266" y1="332" x2="266" y2="354"/>
    <line x1="244" y1="332" x2="244" y2="354"/>
    <line x1="266" y1="354" x2="288" y2="354"/>
    <line x1="266" y1="332" x2="266" y2="354"/>
    <line x1="288" y1="332" x2="310" y2="332"/>
    <line x1="310" y1="332" x2="310" y2="354"/>
    <line x1="310" y1="332" x2="310" y2="354"/>
    <line x1="332" y1="332" x2="354" y2="332"/>
    <line x1="332" y1="354" x2="354" y2="354"/>
    <line x1="354" y1="332" x2="376" y2="332"/>
    <line x1="354" y1="354" x2="376" y2="354"/>
    <line x1="376" y1="332" x2="398" y2="332"/>
    <line x1="376" y1="354" x2="398" y2="354"/>
    <line x1="398" y1="332" x2="398" y2="354"/>
    <line x1="398" y1="332" x2="398" y2="354"/>
    <line x1="420" y1="332" x2="442" y2="332"/>
    <line x1="420" y1="354" x2="442" y2="354"/>
    <line x1="442" y1="332" x2="442" y2="354"/>
    <line x1="24" y1="354" x2="24" y2="376"/>
    <line x1="2" y1="354" x2="2" y2="376"/>
    <line x1="24" y1="376" x2="46" y2="376"/>
    <line x1="24" y1="354" x2="24" y2="376"/>
    <line x1="46" y1="354" x2="68" y2="354"/>
    <line x1="68" y1="354" x2="68" y2="376"/>
    <line x1="68" y1="354" x2="90" y2="354"/>
    <line x1="68" y1="354" x2="68" y2="376"/>
    <line x1="90" y1="376" x2="112" y2="376"/>
    <line x1="112" y1="354" x2="112" y2="376"/>
    <line x1="112" y1="354" x2="112" y2="376"/>
    <line x1="134" y1="354" x2="156" y2="354"/>
    <line x1="156" y1="354" x2="156" y2="376"/>
    <line x1="178" y1="354" x2="178" y2="376"/>
    <line x1="156" y1="354" x2="156" y2="376"/>
    <line x1="178" y1="376" x2="200" y2="376"/>
    <line x1="178" y1="354" x2="178" y2="376"/>
    <line x1="200" y1="354" x2="222" y2="354"/>
    <line x1="222" y1="354" x2="222" y2="376"/>
    <line x1="222" y1="354" x2="222" y2="376"/>
    <line x1="244" y1="354" x2="266" y2="354"/>
    <line x1="244" y1="376" x2="266" y2="376"/>
    <line x1="266" y1="354" x2="288" y2="354"/>
    <line x1="288" y1="354" x2="288" y2="376"/>
    <line x1="310" y1="354" x2="310" y2="376"/>
    <line x1="288" y1="354" x2="288" y2="376"/>
    <line x1="310" y1="376" x2="332" y2="376"/>
    <line x1="310" y1="354" x2="310" y2="376"/>
    <line x1="332" y1="354" x2="354" y2="354"/>
    <line x1="332" y1="376" x2="354" y2="376"/>
    <line x1="354" y1="354" x2="376" y2="354"/>
    <line x1="376" y1="354" x2="398" y2="354"/>
    <line x1="398" y1="354" x2="398" y2="376"/>
    <line x1="398" y1="354" x2="398" y2="376"/>
    <line x1="420" y1="354" x2="442" y2="354"/>
    <line x1="442" y1="354" x2="442" y2="376"/>
    <line x1="2" y1="376" x2="2" y2="398"/>
    <line x1="24" y1="376" x2="46" y2="376"/>
    <line x1="24" y1="398" x2="46" y2="398"/>
    <line x1="46" y1="376" x2="46" y2="398"/>
    <line x1="46" y1="398" x2="68" y2="398"/>
    <line x1="68" y1="376" x2="68" y2="398"/>
    <line x1="46" y1="376" x2="46" y2="398"/>
    <line x1="90" y1="376" x2="90" y2="398"/>
    <line x1="68" y1="376" x2="68" y2="398"/>
    <line x1="90" y1="376" x2="112" y2="376"/>
    <line x1="90" y1="376" x2="90" y2="398"/>
    <line x1="134" y1="376" x2="134" y2="398"/>
    <line x1="134" y1="398" x2="156" y2="398"/>
    <line x1="156" y1="376" x2="156" y2="398"/>
    <line x1="134" y1="376" x2="134" y2="398"/>
    <line x1="156" y1="376" x2="156" y2="398"/>
    <line x1="178" y1="376" x2="200" y2="376"/>
    <line x1="200" y1="376" x2="200" y2="398"/>
    <line x1="200" y1="398" x2="222" y2="398"/>
    <line x1="222" y1="376" x2="222" y2="398"/>
    <line x1="200" y1="376" x2="200" y2="398"/>
    <line x1="222" y1="398" x2="244" y2="398"/>
    <line x1="222" y1="376" x2="222" y2="398"/>
    <line x1="244" y1="376" x2="266" y2="376"/>
    <line x1="244" y1="398" x2="266" y2="398"/>
    <line x1="266" y1="376" x2="266" y2="398"/>
    <line x1="288" y1="376" x2="288" y2="398"/>
    <line x1="266" y1="376" x2="266" y2="398"/>
    <line x1="288" y1="376" x2="288" y2="398"/>
    <line x1="310" y1="376" x2="332" y2="376"/>
    <line x1="310" y1="398" x2="332" y2="398"/>
    <line x1="332" y1="376" x2="354" y2="376"/>
    <line x1="332" y1="398" x2="354" y2="398"/>
    <line x1="354" y1="376" x2="354" y2="398"/>
    <line x1="354" y1="398" x2="376" y2="398"/>
    <line x1="376" y1="376" x2="376" y2="398"/>
    <line x1="354" y1="376" x2="354" y2="398"/>
    <line x1="398" y1="376" x2="398" y2="398"/>
    <line x1="376" y1="376" x2="376" y2="398"/>
    <line x1="398" y1="398" x2="420" y2="398"/>
    <line x1="420" y1="376" x2="420" y2="398"/>
    <line x1="398" y1="376" x2="398" y2="398"/>
    <line x1="442" y1="376" x2="442" y2="398"/>
    <line x1="420" y1="376" x2="420" y2="398"/>
    <line x1="2" y1="420" x2="24" y2="420"/>
    <line x1="2" y1="398" x2="2" y2="420"/>
    <line x1="24" y1="398" x2="46" y2="398"/>
    <line x1="24" y1="420" x2="46" y2="420"/>
    <line x1="46" y1="398" x2="46" y2="420"/>
    <line x1="46" y1="398" x2="68" y2="398"/>
    <line x1="46" y1="398" x2="46" y2="420"/>
    <line x1="90" y1="398" x2="90" y2="420"/>
    <line x1="112" y1="398" x2="112" y2="420"/>
    <line x1="90" y1="398" x2="90" y2="420"/>
    <line x1="112" y1="398" x2="112" y2="420"/>
    <line x1="134" y1="398" x2="156" y2="398"/>
    <line x1="134" y1="420" x2="156" y2="420"/>
    <line x1="156" y1="398" x2="156" y2="420"/>
    <line x1="178" y1="398" x2="178" y2="420"/>
    <line x1="156" y1="398" x2="156" y2="420"/>
    <line x1="178" y1="420" x2="200" y2="420"/>
    <line x1="178" y1="398" x2="178" y2="420"/>
    <line x1="200" y1="398" x2="222" y2="398"/>
    <line x1="200" y1="420" x2="222" y2="420"/>
    <line x1="222" y1="398" x2="222" y2="420"/>
    <line x1="222" y1="398" x2="244" y2="398"/>
    <line x1="244" y1="398" x2="244" y2="420"/>
    <line x1="222" y1="398" x2="222" y2="420"/>
    <line x1="244" y1="398" x2="266" y2="398"/>
    <line x1="266" y1="398" x2="266" y2="420"/>
    <line x1="244" y1="398" x2="244" y2="420"/>
    <line x1="266" y1="420" x2="288" y2="420"/>
    <line x1="288" y1="398" x2="288" y2="420"/>
    <line x1="266" y1="398" x2="266" y2="420"/>
    <line x1="310" y1="398" x2="310" y2="420"/>
    <line x1="288" y1="398" x2="288" y2="420"/>
    <line x1="310" y1="398" x2="332" y2="398"/>
    <line x1="332" y1="398" x2="332" y2="420"/>
    <line x1="310" y1="398" x2="310" y2="420"/>
    <line x1="332" y1="398" x2="354" y2="398"/>
    <line x1="354" y1="398" x2="354" y2="420"/>
    <line x1="332" y1="398" x2="332" y2="420"/>
    <line x1="354" y1="398" x2="376" y2="398"/>
    <line x1="376" y1="398" x2="376" y2="420"/>
    <line x1="354" y1="398" x2="354" y2="420"/>
    <line x1="376" y1="420" x2="398" y2="420"/>
    <line x1="376" y1="398" x2="376" y2="420"/>
    <line x1="398" y1="398" x2="420" y2="398"/>
    <line x1="420" y1="398" x2="420" y2="420"/>
    <line x1="442" y1="398" x2="442" y2="420"/>
    <line x1="420" y1="398" x2="420" y2="420"/>
    <line x1="2" y1="420" x2="24" y2="420"/>
    <line x1="2" y1="442" x2="24" y2="442"/>
    <line x1="2" y1="420" x2="2" y2="442"/>
    <line x1="24" y1="420" x2="46" y2="420"/>
    <line x1="24" y1="442" x2="46" y2="442"/>
    <line x1="46" y1="442" x2="68" y2="442"/>
    <line x1="68" y1="420" x2="68" y2="442"/>
    <line x1="68" y1="442" x2="90" y2="442"/>
    <line x1="90" y1="420" x2="90" y2="442"/>
    <line x1="68" y1="420" x2="68" y2="442"/>
    <line x1="90" y1="442" x2="112" y2="442"/>
    <line x1="112" y1="420" x2="112" y2="442"/>
    <line x1="90" y1="420" x2="90" y2="442"/>
    <line x1="112" y1="442" x2="134" y2="442"/>
    <line x1="112" y1="420" x2="112" y2="442"/>
    <line x1="134" y1="420" x2="156" y2="420"/>
    <line x1="134" y1="442" x2="156" y2="442"/>
    <line x1="156" y1="420" x2="156" y2="442"/>
    <line x1="156" y1="442" x2="178" y2="442"/>
    <line x1="156" y1="420" x2="156" y2="442"/>
    <line x1="178" y1="420" x2="200" y2="420"/>
    <line x1="178" y1="442" x2="200" y2="442"/>
    <line x1="200" y1="420" x2="222" y2="420"/>
    <line x1="200" y1="442" x2="222" y2="442"/>
    <line x1="222" y1="442" x2="244" y2="442"/>
    <line x1="244" y1="442" x2="266" y2="442"/>
    <line x1="266" y1="420" x2="288" y2="420"/>
    <line x1="266" y1="442" x2="288" y2="442"/>
    <line x1="288" y1="420" x2="288" y2="442"/>
    <line x1="288" y1="442" x2="310" y2="442"/>
    <line x1="288" y1="420" x2="288" y2="442"/>
    <line x1="310" y1="442" x2="332" y2="442"/>
    <line x1="332" y1="442" x2="354" y2="442"/>
    <line x1="354" y1="442" x2="376" y2="442"/>
    <line x1="376" y1="420" x2="376" y2="442"/>
    <line x1="376" y1="420" x2="398" y2="420"/>
    <line x1="376" y1="442" x2="398" y2="442"/>
    <line x1="376" y1="420" x2="376" y2="442"/>
    <line x1="398" y1="442" x2="420" y2="442"/>
    <line x1="420" y1="420" x2="420" y2="442"/>
    <line x1="442" y1="420" x2="442" y2="442"/>
    <line x1="420" y1="420" x2="420" y2="442"/>
  </g>
  <g stroke="red" stroke-width="3" stroke-linecap="round" fill="none">
    <path class="solution-path" d="M 13 13 L 35 13 L 57 13 L 57 35 L 57 57 L 57 79 L 57 101 L 79 101 L 101 101 L 101 123 L 101 145 L 101 167 L 101 189 L 101 211 L 123 211 L 123 233 L 145 233 L 167 233 L 189 233 L 211 233 L 211 255 L 233 255 L 255 255 L 255 277 L 277 277 L 299 277 L 321 277 L 321 299 L 321 321 L 343 321 L 365 321 L 387 321 L 409 321 L 409 343 L 409 365 L 431 365 L 431 387 L 431 409 L 431 431 "/>
  </g>
</svg>