<?xml version="1.0" encoding="UTF-8"?>
<svg xmlns="http://www.w3.org/2000/svg" width="210" height="357" viewBox="0 0 210 357">
  <rect width="210" height="357" fill="white"/>
  <g stroke="black" stroke-width="2" stroke-linecap="square" fill="none">
    <line x1="10" y1="0" x2="20" y2="17"/>
    <line x1="10" y1="0" x2="20" y2="17"/>
    <line x1="10" y1="0" x2="30" y2="0"/>
    <line x1="30" y1="0" x2="50" y2="0"/>
    <line x1="50" y1="0" x2="60" y2="17"/>
    <line x1="50" y1="0" x2="60" y2="17"/>
    <line x1="50" y1="0" x2="70" y2="0"/>
    <line x1="60" y1="17" x2="80" y2="17"/>
    <line x1="70" y1="0" x2="90" y2="0"/>
    <line x1="80" y1="17" x2="100" y2="17"/>
    <line x1="90" y1="0" x2="110" y2="0"/>
    <line x1="100" y1="17" x2="120" y2="17"/>
    <line x1="110" y1="0" x2="130" y2="0"/>
    <line x1="120" y1="17" x2="140" y2="17"/>
    <line x1="130" y1="0" x2="150" y2="0"/>
    <line x1="150" y1="0" x2="170" y2="0"/>
    <line x1="170" y1="0" x2="180" y2="17"/>
    <line x1="170" y1="0" x2="180" y2="17"/>
    <line x1="170" y1="0" x2="190" y2="0"/>
    <line x1="200" y1="17" x2="210" y2="0"/>
    <line x1="190" y1="0" x2="210" y2="0"/>
    <line x1="0" y1="17" x2="10" y2="34"/>
    <line x1="10" y1="34" x2="30" y2="34"/>
    <line x1="30" y1="34" x2="40" y2="17"/>
    <line x1="30" y1="34" x2="40" y2="17"/>
    <line x1="40" y1="17" x2="50" y2="34"/>
    <line x1="40" y1="17" x2="50" y2="34"/>
    <line x1="50" y1="34" x2="70" y2="34"/>
    <line x1="60" y1="17" x2="80" y2="17"/>
    <line x1="70" y1="34" x2="90" y2="34"/>
    <line x1="80" y1="17" x2="100" y2="17"/>
    <line x1="90" y1="34" x2="110" y2="34"/>
    <line x1="100" y1="17" x2="120" y2="17"/>
    <line x1="110" y1="34" x2="130" y2="34"/>
    <line x1="120" y1="17" x2="140" y2="17"/>
    <line x1="130" y1="34" x2="150" y2="34"/>
    <line x1="150" y1="34" x2="160" y2="17"/>
    <line x1="150" y1="34" x2="160" y2="17"/>
    <line x1="170" y1="34" x2="180" y2="17"/>
    <line x1="170" y1="34" x2="180" y2="17"/>
    <line x1="170" y1="34" x2="190" y2="34"/>
    <line x1="200" y1="17" x2="210" y2="34"/>
    <line x1="0" y1="51" x2="10" y2="34"/>
    <line x1="10" y1="34" x2="30" y2="34"/>
    <line x1="40" y1="51" x2="60" y2="51"/>
    <line x1="50" y1="34" x2="70" y2="34"/>
    <line x1="80" y1="51" x2="90" y2="34"/>
    <line x1="70" y1="34" x2="90" y2="34"/>
    <line x1="80" y1="51" x2="90" y2="34"/>
    <line x1="90" y1="34" x2="110" y2="34"/>
    <line x1="100" y1="51" x2="120" y2="51"/>
    <line x1="110" y1="34" x2="130" y2="34"/>
    <line x1="120" y1="51" x2="140" y2="51"/>
    <line x1="130" y1="34" x2="150" y2="34"/>
    <line x1="140" y1="51" x2="160" y2="51"/>
    <line x1="160" y1="51" x2="170" y2="34"/>
    <line x1="160" y1="51" x2="170" y2="34"/>
    <line x1="170" y1="34" x2="190" y2="34"/>
    <line x1="200" y1="51" x2="210" y2="34"/>
    <line x1="0" y1="51" x2="10" y2="68"/>
    <line x1="10" y1="68" x2="20" y2="51"/>
    <line x1="10" y1="68" x2="20" y2="51"/>
    <line x1="30" y1="68" x2="40" y2="51"/>
    <line x1="30" y1="68" x2="40" y2="51"/>
    <line x1="40" y1="51" x2="60" y2="51"/>
    <line x1="60" y1="51" x2="70" y2="68"/>
    <line x1="50" y1="68" x2="70" y2="68"/>
    <line x1="60" y1="51" x2="70" y2="68"/>
    <line x1="80" y1="51" x2="90" y2="68"/>
    <line x1="80" y1="51" x2="90" y2="68"/>
    <line x1="90" y1="68" x2="110" y2="68"/>
    <line x1="100" y1="51" x2="120" y2="51"/>
    <line x1="110" y1="68" x2="130" y2="68"/>
    <line x1="120" y1="51" x2="140" y2="51"/>
    <line x1="130" y1="68" x2="150" y2="68"/>
    <line x1="140" y1="51" x2="160" y2="51"/>
    <line x1="150" y1="68" x2="170" y2="68"/>
    <line x1="170" y1="68" x2="180" y2="51"/>
    <line x1="170" y1="68" x2="180" y2="51"/>
    <line x1="190" y1="68" x2="200" y2="51"/>
    <line x1="190" y1="68" x2="200" y2="51"/>
    <line x1="200" y1="51" x2="210" y2="68"/>
    <line x1="0" y1="85" x2="10" y2="68"/>
    <line x1="20" y1="85" x2="30" y2="68"/>
    <line x1="20" y1="85" x2="30" y2="68"/>
    <line x1="20" y1="85" x2="40" y2="85"/>
    <line x1="50" y1="68" x2="70" y2="68"/>
    <line x1="60" y1="85" x2="80" y2="85"/>
    <line x1="80" y1="85" x2="90" y2="68"/>
    <line x1="80" y1="85" x2="90" y2="68"/>
    <line x1="90" y1="68" x2="110" y2="68"/>
    <line x1="100" y1="85" x2="120" y2="85"/>
    <line x1="110" y1="68" x2="130" y2="68"/>
    <line x1="130" y1="68" x2="150" y2="68"/>
    <line x1="140" y1="85" x2="160" y2="85"/>
    <line x1="150" y1="68" x2="170" y2="68"/>
    <line x1="170" y1="68" x2="180" y2="85"/>
    <line x1="170" y1="68" x2="180" y2="85"/>
    <line x1="200" y1="85" x2="210" y2="68"/>
    <line x1="0" y1="85" x2="10" y2="102"/>
    <line x1="20" y1="85" x2="40" y2="85"/>
    <line x1="40" y1="85" x2="50" y2="102"/>
    <line x1="40" y1="85" x2="50" y2="102"/>
    <line x1="50" y1="102" x2="70" y2="102"/>
    <line x1="60" y1="85" x2="80" y2="85"/>
    <line x1="80" y1="85" x2="90" y2="102"/>
    <line x1="80" y1="85" x2="90" y2="102"/>
    <line x1="100" y1="85" x2="110" y2="102"/>
    <line x1="100" y1="85" x2="110" y2="102"/>
    <line x1="100" y1="85" x2="120" y2="85"/>
    <line x1="110" y1="102" x2="130" y2="102"/>
    <line x1="130" y1="102" x2="140" y2="85"/>
    <line x1="130" y1="102" x2="140" y2="85"/>
    <line x1="140" y1="85" x2="160" y2="85"/>
    <line x1="160" y1="85" x2="170" y2="102"/>
    <line x1="160" y1="85" x2="170" y2="102"/>
    <line x1="180" y1="85" x2="190" y2="102"/>
    <line x1="180" y1="85" x2="190" y2="102"/>
    <line x1="200" y1="85" x2="210" y2="102"/>
    <line x1="0" y1="119" x2="10" y2="102"/>
    <line x1="20" y1="119" x2="30" y2="102"/>
    <line x1="20" y1="119" x2="30" y2="102"/>
    <line x1="30" y1="102" x2="40" y2="119"/>
    <line x1="30" y1="102" x2="40" y2="119"/>
    <line x1="50" y1="102" x2="60" y2="119"/>
    <line x1="50" y1="102" x2="60" y2="119"/>
    <line x1="50" y1="102" x2="70" y2="102"/>
    <line x1="70" y1="102" x2="80" y2="119"/>
    <line x1="70" y1="102" x2="80" y2="119"/>
    <line x1="100" y1="119" x2="110" y2="102"/>
    <line x1="100" y1="119" x2="110" y2="102"/>
    <line x1="110" y1="102" x2="130" y2="102"/>
    <line x1="120" y1="119" x2="140" y2="119"/>
    <line x1="140" y1="119" x2="150" y2="102"/>
    <line x1="140" y1="119" x2="150" y2="102"/>
    <line x1="150" y1="102" x2="160" y2="119"/>
    <line x1="150" y1="102" x2="160" y2="119"/>
    <line x1="170" y1="102" x2="180" y2="119"/>
    <line x1="170" y1="102" x2="180" y2="119"/>
    <line x1="180" y1="119" x2="190" y2="102"/>
    <line x1="180" y1="119" x2="190" y2="102"/>
    <line x1="200" y1="119" x2="210" y2="102"/>
    <line x1="0" y1="119" x2="10" y2="136"/>
    <line x1="10" y1="136" x2="30" y2="136"/>
    <line x1="40" y1="119" x2="50" y2="136"/>
    <line x1="40" y1="119" x2="50" y2="136"/>
    <line x1="60" y1="119" x2="70" y2="136"/>
    <line x1="60" y1="119" x2="70" y2="136"/>
    <line x1="90" y1="136" x2="100" y2="119"/>
    <line x1="90" y1="136" x2="100" y2="119"/>
    <line x1="100" y1="119" x2="110" y2="136"/>
    <line x1="100" y1="119" x2="110" y2="136"/>
    <line x1="110" y1="136" x2="130" y2="136"/>
    <line x1="120" y1="119" x2="140" y2="119"/>
    <line x1="140" y1="119" x2="150" y2="136"/>
    <line x1="140" y1="119" x2="150" y2="136"/>
    <line x1="160" y1="119" x2="170" y2="136"/>
    <line x1="160" y1="119" x2="170" y2="136"/>
    <line x1="180" y1="119" x2="190" y2="136"/>
    <line x1="180" y1="119" x2="190" y2="136"/>
    <line x1="200" y1="119" x2="210" y2="136"/>
    <line x1="0" y1="153" x2="10" y2="136"/>
    <line x1="20" y1="153" x2="30" y2="136"/>
    <line x1="10" y1="136" x2="30" y2="136"/>
    <line x1="20" y1="153" x2="30" y2="136"/>
    <line x1="50" y1="136" x2="60" y2="153"/>
    <line x1="40" y1="153" x2="60" y2="153"/>
    <line x1="50" y1="136" x2="60" y2="153"/>
    <line x1="70" y1="136" x2="80" y2="153"/>
    <line x1="70" y1="136" x2="80" y2="153"/>
    <line x1="80" y1="153" x2="100" y2="153"/>
    <line x1="110" y1="136" x2="120" y2="153"/>
    <line x1="110" y1="136" x2="120" y2="153"/>
    <line x1="110" y1="136" x2="130" y2="136"/>
    <line x1="130" y1="136" x2="140" y2="153"/>
    <line x1="130" y1="136" x2="140" y2="153"/>
    <line x1="140" y1="153" x2="160" y2="153"/>
    <line x1="170" y1="136" x2="180" y2="153"/>
    <line x1="170" y1="136" x2="180" y2="153"/>
    <line x1="180" y1="153" x2="200" y2="153"/>
    <line x1="200" y1="153" x2="210" y2="136"/>
    <line x1="0" y1="153" x2="10" y2="170"/>
    <line x1="30" y1="170" x2="40" y2="153"/>
    <line x1="30" y1="170" x2="40" y2="153"/>
    <line x1="40" y1="153" x2="60" y2="153"/>
    <line x1="50" y1="170" x2="70" y2="170"/>
    <line x1="70" y1="170" x2="80" y2="153"/>
    <line x1="70" y1="170" x2="80" y2="153"/>
    <line x1="70" y1="170" x2="90" y2="170"/>
    <line x1="80" y1="153" x2="100" y2="153"/>
    <line x1="100" y1="153" x2="110" y2="170"/>
    <line x1="100" y1="153" x2="110" y2="170"/>
    <line x1="110" y1="170" x2="130" y2="170"/>
    <line x1="150" y1="170" x2="160" y2="153"/>
    <line x1="140" y1="153" x2="160" y2="153"/>
    <line x1="150" y1="170" x2="160" y2="153"/>
    <line x1="170" y1="170" x2="180" y2="153"/>
    <line x1="170" y1="170" x2="180" y2="153"/>
    <line x1="180" y1="153" x2="200" y2="153"/>
    <line x1="200" y1="153" x2="210" y2="170"/>
    <line x1="0" y1="187" x2="10" y2="170"/>
    <line x1="20" y1="187" x2="30" y2="170"/>
    <line x1="20" y1="187" x2="30" y2="170"/>
    <line x1="40" y1="187" x2="50" y2="170"/>
    <line x1="40" y1="187" x2="50" y2="170"/>
    <line x1="50" y1="170" x2="70" y2="170"/>
    <line x1="60" y1="187" x2="80" y2="187"/>
    <line x1="70" y1="170" x2="90" y2="170"/>
    <line x1="90" y1="170" x2="100" y2="187"/>
    <line x1="90" y1="170" x2="100" y2="187"/>
    <line x1="110" y1="170" x2="130" y2="170"/>
    <line x1="120" y1="187" x2="140" y2="187"/>
    <line x1="150" y1="170" x2="160" y2="187"/>
    <line x1="140" y1="187" x2="160" y2="187"/>
    <line x1="150" y1="170" x2="160" y2="187"/>
    <line x1="160" y1="187" x2="180" y2="187"/>
    <line x1="180" y1="187" x2="190" y2="170"/>
    <line x1="180" y1="187" x2="190" y2="170"/>
    <line x1="200" y1="187" x2="210" y2="170"/>
    <line x1="0" y1="187" x2="10" y2="204"/>
    <line x1="20" y1="187" x2="30" y2="204"/>
    <line x1="20" y1="187" x2="30" y2="204"/>
    <line x1="30" y1="204" x2="50" y2="204"/>
    <line x1="50" y1="204" x2="70" y2="204"/>
    <line x1="60" y1="187" x2="80" y2="187"/>
    <line x1="80" y1="187" x2="90" y2="204"/>
    <line x1="80" y1="187" x2="90" y2="204"/>
    <line x1="100" y1="187" x2="110" y2="204"/>
    <line x1="100" y1="187" x2="110" y2="204"/>
    <line x1="110" y1="204" x2="130" y2="204"/>
    <line x1="130" y1="204" x2="140" y2="187"/>
    <line x1="120" y1="187" x2="140" y2="187"/>
    <line x1="130" y1="204" x2="140" y2="187"/>
    <line x1="140" y1="187" x2="160" y2="187"/>
    <line x1="150" y1="204" x2="170" y2="204"/>
    <line x1="160" y1="187" x2="180" y2="187"/>
    <line x1="180" y1="187" x2="190" y2="204"/>
    <line x1="180" y1="187" x2="190" y2="204"/>
    <line x1="200" y1="187" x2="210" y2="204"/>
    <line x1="0" y1="221" x2="10" y2="204"/>
    <line x1="20" y1="221" x2="30" y2="204"/>
    <line x1="20" y1="221" x2="30" y2="204"/>
    <line x1="40" y1="221" x2="50" y2="204"/>
    <line x1="30" y1="204" x2="50" y2="204"/>
    <line x1="40" y1="221" x2="50" y2="204"/>
    <line x1="50" y1="204" x2="70" y2="204"/>
    <line x1="70" y1="204" x2="80" y2="221"/>
    <line x1="70" y1="204" x2="80" y2="221"/>
    <line x1="90" y1="204" x2="100" y2="221"/>
    <line x1="80" y1="221" x2="100" y2="221"/>
    <line x1="90" y1="204" x2="100" y2="221"/>
    <line x1="100" y1="221" x2="120" y2="221"/>
    <line x1="110" y1="204" x2="130" y2="204"/>
    <line x1="130" y1="204" x2="140" y2="221"/>
    <line x1="130" y1="204" x2="140" y2="221"/>
    <line x1="150" y1="204" x2="160" y2="221"/>
    <line x1="150" y1="204" x2="160" y2="221"/>
    <line x1="150" y1="204" x2="170" y2="204"/>
    <line x1="170" y1="204" x2="180" y2="221"/>
    <line x1="170" y1="204" x2="180" y2="221"/>
    <line x1="180" y1="221" x2="200" y2="221"/>
    <line x1="200" y1="221" x2="210" y2="204"/>
    <line x1="0" y1="221" x2="10" y2="238"/>
    <line x1="10" y1="238" x2="30" y2="238"/>
    <line x1="40" y1="221" x2="50" y2="238"/>
    <line x1="40" y1="221" x2="50" y2="238"/>
    <line x1="60" y1="221" x2="70" y2="238"/>
    <line x1="60" y1="221" x2="70" y2="238"/>
    <line x1="70" y1="238" x2="90" y2="238"/>
    <line x1="80" y1="221" x2="100" y2="221"/>
    <line x1="90" y1="238" x2="110" y2="238"/>
    <line x1="100" y1="221" x2="120" y2="221"/>
    <line x1="110" y1="238" x2="130" y2="238"/>
    <line x1="140" y1="221" x2="150" y2="238"/>
    <line x1="140" y1="221" x2="150" y2="238"/>
    <line x1="150" y1="238" x2="170" y2="238"/>
    <line x1="170" y1="238" x2="190" y2="238"/>
    <line x1="180" y1="221" x2="200" y2="221"/>
    <line x1="200" y1="221" x2="210" y2="238"/>
    <line x1="0" y1="255" x2="10" y2="238"/>
    <line x1="10" y1="238" x2="30" y2="238"/>
    <line x1="20" y1="255" x2="40" y2="255"/>
    <line x1="40" y1="255" x2="50" y2="238"/>
    <line x1="40" y1="255" x2="50" y2="238"/>
    <line x1="50" y1="238" x2="60" y2="255"/>
    <line x1="50" y1="238" x2="60" y2="255"/>
    <line x1="60" y1="255" x2="80" y2="255"/>
    <line x1="70" y1="238" x2="90" y2="238"/>
    <line x1="90" y1="238" x2="100" y2="255"/>
    <line x1="90" y1="238" x2="100" y2="255"/>
    <line x1="90" y1="238" x2="110" y2="238"/>
    <line x1="100" y1="255" x2="120" y2="255"/>
    <line x1="110" y1="238" x2="130" y2="238"/>
    <line x1="120" y1="255" x2="140" y2="255"/>
    <line x1="140" y1="255" x2="150" y2="238"/>
    <line x1="140" y1="255" x2="150" y2="238"/>
    <line x1="150" y1="238" x2="170" y2="238"/>
    <line x1="180" y1="255" x2="190" y2="238"/>
    <line x1="170" y1="238" x2="190" y2="238"/>
    <line x1="180" y1="255" x2="190" y2="238"/>
    <line x1="200" y1="255" x2="210" y2="238"/>
    <line x1="0" y1="255" x2="10" y2="272"/>
    <line x1="10" y1="272" x2="30" y2="272"/>
    <line x1="20" y1="255" x2="40" y2="255"/>
    <line x1="40" y1="255" x2="50" y2="272"/>
    <line x1="40" y1="255" x2="50" y2="272"/>
    <line x1="60" y1="255" x2="80" y2="255"/>
    <line x1="80" y1="255" x2="90" y2="272"/>
    <line x1="80" y1="255" x2="90" y2="272"/>
    <line x1="90" y1="272" x2="110" y2="272"/>
    <line x1="100" y1="255" x2="120" y2="255"/>
    <line x1="110" y1="272" x2="130" y2="272"/>
    <line x1="120" y1="255" x2="140" y2="255"/>
    <line x1="130" y1="272" x2="150" y2="272"/>
    <line x1="150" y1="272" x2="160" y2="255"/>
    <line x1="150" y1="272" x2="160" y2="255"/>
    <line x1="160" y1="255" x2="170" y2="272"/>
    <line x1="160" y1="255" x2="170" y2="272"/>
    <line x1="180" y1="255" x2="190" y2="272"/>
    <line x1="180" y1="255" x2="190" y2="272"/>
    <line x1="200" y1="255" x2="210" y2="272"/>
    <line x1="0" y1="289" x2="10" y2="272"/>
    <line x1="10" y1="272" x2="30" y2="272"/>
    <line x1="30" y1="272" x2="40" y2="289"/>
    <line x1="30" y1="272" x2="40" y2="289"/>
    <line x1="50" y1="272" x2="60" y2="289"/>
    <line x1="50" y1="272" x2="60" y2="289"/>
    <line x1="60" y1="289" x2="70" y2="272"/>
    <line x1="60" y1="289" x2="70" y2="272"/>
    <line x1="80" y1="289" x2="100" y2="289"/>
    <line x1="90" y1="272" x2="110" y2="272"/>
    <line x1="100" y1="289" x2="120" y2="289"/>
    <line x1="110" y1="272" x2="130" y2="272"/>
    <line x1="130" y1="272" x2="140" y2="289"/>
    <line x1="130" y1="272" x2="140" y2="289"/>
    <line x1="130" y1="272" x2="150" y2="272"/>
    <line x1="160" y1="289" x2="170" y2="272"/>
    <line x1="160" y1="289" x2="170" y2="272"/>
    <line x1="180" y1="289" x2="190" y2="272"/>
    <line x1="180" y1="289" x2="190" y2="272"/>
    <line x1="200" y1="289" x2="210" y2="272"/>
    <line x1="0" y1="289" x2="10" y2="306"/>
    <line x1="20" y1="289" x2="30" y2="306"/>
    <line x1="20" y1="289" x2="30" y2="306"/>
    <line x1="30" y1="306" x2="40" y2="289"/>
    <line x1="30" y1="306" x2="40" y2="289"/>
    <line x1="50" y1="306" x2="60" y2="289"/>
    <line x1="50" y1="306" x2="60" y2="289"/>
    <line x1="70" y1="306" x2="80" y2="289"/>
    <line x1="70" y1="306" x2="80" y2="289"/>
    <line x1="90" y1="306" x2="100" y2="289"/>
    <line x1="80" y1="289" x2="100" y2="289"/>
    <line x1="90" y1="306" x2="100" y2="289"/>
    <line x1="100" y1="289" x2="120" y2="289"/>
    <line x1="120" y1="289" x2="130" y2="306"/>
    <line x1="120" y1="289" x2="130" y2="306"/>
    <line x1="130" y1="306" x2="150" y2="306"/>
    <line x1="160" y1="289" x2="170" y2="306"/>
    <line x1="160" y1="289" x2="170" y2="306"/>
    <line x1="180" y1="289" x2="190" y2="306"/>
    <line x1="180" y1="289" x2="190" y2="306"/>
    <line x1="200" y1="289" x2="210" y2="306"/>
    <line x1="0" y1="323" x2="10" y2="306"/>
    <line x1="30" y1="306" x2="40" y2="323"/>
    <line x1="30" y1="306" x2="40" y2="323"/>
    <line x1="40" y1="323" x2="60" y2="323"/>
    <line x1="60" y1="323" x2="70" y2="306"/>
    <line x1="60" y1="323" x2="70" y2="306"/>
    <line x1="80" y1="323" x2="100" y2="323"/>
    <line x1="100" y1="323" x2="110" y2="306"/>
    <line x1="100" y1="323" x2="110" y2="306"/>
    <line x1="120" y1="323" x2="130" y2="306"/>
    <line x1="120" y1="323" x2="130" y2="306"/>
    <line x1="130" y1="306" x2="150" y2="306"/>
    <line x1="140" y1="323" x2="160" y2="323"/>
    <line x1="160" y1="323" x2="170" y2="306"/>
    <line x1="160" y1="323" x2="170" y2="306"/>
    <line x1="170" y1="306" x2="180" y2="323"/>
    <line x1="170" y1="306" x2="180" y2="323"/>
    <line x1="180" y1="323" x2="200" y2="323"/>
    <line x1="200" y1="323" x2="210" y2="306"/>
    <line x1="0" y1="323" x2="10" y2="340"/>
    <line x1="20" y1="323" x2="30" y2="340"/>
    <line x1="10" y1="340" x2="30" y2="340"/>
    <line x1="20" y1="323" x2="30" y2="340"/>
    <line x1="30" y1="340" x2="50" y2="340"/>
    <line x1="40" y1="323" x2="60" y2="323"/>
    <line x1="50" y1="340" x2="70" y2="340"/>
    <line x1="70" y1="340" x2="90" y2="340"/>
    <line x1="80" y1="323" x2="100" y2="323"/>
    <line x1="100" y1="323" x2="110" y2="340"/>
    <line x1="90" y1="340" x2="110" y2="340"/>
    <line x1="100" y1="323" x2="110" y2="340"/>
    <line x1="110" y1="340" x2="130" y2="340"/>
    <line x1="130" y1="340" x2="150" y2="340"/>
    <line x1="140" y1="323" x2="160" y2="323"/>
    <line x1="150" y1="340" x2="170" y2="340"/>
    <line x1="170" y1="340" x2="190" y2="340"/>
    <line x1="180" y1="323" x2="200" y2="323"/>
    <line x1="190" y1="340" x2="210" y2="340"/>
  </g>
  <g stroke="red" stroke-width="3" stroke-linecap="round" fill="none">
    <path class="solution-path" d="M 10 11 L 10 22 L 20 28 L 30 22 L 30 11 L 40 5 L 50 11 L 50 22 L 60 28 L 70 22 L 80 28 L 90 22 L 100 28 L 110 22 L 120 28 L 130 22 L 140 28 L 150 22 L 150 11 L 160 5 L 170 11 L 170 22 L 160 28 L 160 39 L 150 45 L 140 39 L 130 45 L 120 39 L 110 45 L 100 39 L 90 45 L 90 56 L 100 62 L 110 56 L 120 62 L 130 56 L 140 62 L 150 56 L 160 62 L 170 56 L 170 45 L 180 39 L 190 45 L 190 56 L 180 62 L 180 73 L 190 79 L 190 90 L 200 96 L 200 107 L 190 113 L 190 124 L 200 130 L 200 141 L 190 147 L 180 141 L 180 130 L 170 124 L 170 113 L 160 107 L 160 96 L 150 90 L 140 96 L 140 107 L 130 113 L 120 107 L 110 113 L 110 124 L 120 130 L 130 124 L 140 130 L 140 141 L 150 147 L 160 141 L 170 147 L 170 158 L 160 164 L 160 175 L 170 181 L 180 175 L 180 164 L 190 158 L 200 164 L 200 175 L 190 181 L 190 192 L 200 198 L 200 209 L 190 215 L 180 209 L 180 198 L 170 192 L 160 198 L 150 192 L 140 198 L 140 209 L 150 215 L 150 226 L 160 232 L 170 226 L 180 232 L 190 226 L 200 232 L 200 243 L 190 249 L 190 260 L 200 266 L 200 277 L 190 283 L 190 294 L 200 300 L 200 311 L 190 317 L 180 311 L 180 300 L 170 294 L 170 283 L 180 277 L 180 266 L 170 260 L 170 249 L 160 243 L 150 249 L 150 260 L 140 266 L 130 260 L 120 266 L 110 260 L 100 266 L 90 260 L 90 249 L 80 243 L 70 249 L 60 243 L 60 232 L 50 226 L 50 215 L 60 209 L 70 215 L 70 226 L 80 232 L 90 226 L 100 232 L 110 226 L 120 232 L 130 226 L 130 215 L 120 209 L 110 215 L 100 209 L 100 198 L 90 192 L 90 181 L 80 175 L 70 181 L 60 175 L 50 181 L 50 192 L 40 198 L 30 192 L 30 181 L 40 175 L 40 164 L 50 158 L 60 164 L 70 158 L 70 147 L 60 141 L 60 130 L 50 124 L 50 113 L 40 107 L 40 96 L 30 90 L 20 96 L 20 107 L 10 113 L 10 124 L 20 130 L 30 124 L 40 130 L 40 141 L 30 147 L 30 158 L 20 164 L 20 175 L 10 181 L 10 192 L 20 198 L 20 209 L 10 215 L 10 226 L 20 232 L 30 226 L 40 232 L 40 243 L 30 249 L 20 243 L 10 249 L 10 260 L 20 266 L 30 260 L 40 266 L 40 277 L 50 283 L 50 294 L 40 300 L 40 311 L 50 317 L 60 311 L 60 300 L 70 294 L 70 283 L 80 277 L 90 283 L 100 277 L 110 283 L 120 277 L 130 283 L 130 294 L 140 300 L 150 294 L 160 300 L 160 311 L 150 317 L 140 311 L 130 317 L 130 328 L 140 334 L 150 328 L 160 334 L 170 328 L 180 334 L 190 328 L 200 334 "/>
  </g>
</svg>