<?xml version="1.0" encoding="UTF-8"?>
<svg xmlns="http://www.w3.org/2000/svg" width="210" height="357" viewBox="0 0 210 357">
  <rect width="210" height="357" fill="white"/>
  <g stroke="black" stroke-width="2" stroke-linecap="square" fill="none">
    <line x1="10" y1="0" x2="20" y2="17"/>
    <line x1="10" y1="0" x2="20" y2="17"/>
    <line x1="10" y1="0" x2="30" y2="0"/>
    <line x1="30" y1="0" x2="50" y2="0"/>
    <line x1="40" y1="17" x2="60" y2="17"/>
    <line x1="50" y1="0" x2="70" y2="0"/>
    <line x1="60" y1="17" x2="80" y2="17"/>
    <line x1="70" y1="0" x2="90" y2="0"/>
    <line x1="80" y1="17" x2="100" y2="17"/>
    <line x1="90" y1="0" x2="110" y2="0"/>
    <line x1="100" y1="17" x2="120" y2="17"/>
    <line x1="110" y1="0" x2="130" y2="0"/>
    <line x1="120" y1="17" x2="140" y2="17"/>
    <line x1="130" y1="0" x2="150" y2="0"/>
    <line x1="150" y1="0" x2="160" y2="17"/>
    <line x1="150" y1="0" x2="160" y2="17"/>
    <line x1="150" y1="0" x2="170" y2="0"/>
    <line x1="170" y1="0" x2="190" y2="0"/>
    <line x1="200" y1="17" x2="210" y2="0"/>
    <line x1="190" y1="0" x2="210" y2="0"/>
    <line x1="0" y1="17" x2="10" y2="34"/>
    <line x1="10" y1="34" x2="30" y2="34"/>
    <line x1="30" y1="34" x2="40" y2="17"/>
    <line x1="30" y1="34" x2="40" y2="17"/>
    <line x1="40" y1="17" x2="60" y2="17"/>
    <line x1="50" y1="34" x2="70" y2="34"/>
    <line x1="60" y1="17" x2="80" y2="17"/>
    <line x1="90" y1="34" x2="100" y2="17"/>
    <line x1="80" y1="17" x2="100" y2="17"/>
    <line x1="90" y1="34" x2="100" y2="17"/>
    <line x1="100" y1="17" x2="120" y2="17"/>
    <line x1="130" y1="34" x2="140" y2="17"/>
    <line x1="120" y1="17" x2="140" y2="17"/>
    <line x1="130" y1="34" x2="140" y2="17"/>
    <line x1="150" y1="34" x2="160" y2="17"/>
    <line x1="150" y1="34" x2="160" y2="17"/>
    <line x1="170" y1="34" x2="180" y2="17"/>
    <line x1="170" y1="34" x2="180" y2="17"/>
    <line x1="180" y1="17" x2="190" y2="34"/>
    <line x1="180" y1="17" x2="190" y2="34"/>
    <line x1="200" y1="17" x2="210" y2="34"/>
    <line x1="0" y1="51" x2="10" y2="34"/>
    <line x1="10" y1="34" x2="30" y2="34"/>
    <line x1="40" y1="51" x2="50" y2="34"/>
    <line x1="40" y1="51" x2="50" y2="34"/>
    <line x1="50" y1="34" x2="70" y2="34"/>
    <line x1="60" y1="51" x2="80" y2="51"/>
    <line x1="90" y1="34" x2="100" y2="51"/>
    <line x1="80" y1="51" x2="100" y2="51"/>
    <line x1="90" y1="34" x2="100" y2="51"/>
    <line x1="110" y1="34" x2="120" y2="51"/>
    <line x1="110" y1="34" x2="120" y2="51"/>
    <line x1="120" y1="51" x2="140" y2="51"/>
    <line x1="140" y1="51" x2="150" y2="34"/>
    <line x1="140" y1="51" x2="150" y2="34"/>
    <line x1="160" y1="51" x2="170" y2="34"/>
    <line x1="160" y1="51" x2="170" y2="34"/>
    <line x1="180" y1="51" x2="200" y2="51"/>
    <line x1="200" y1="51" x2="210" y2="34"/>
    <line x1="0" y1="51" x2="10" y2="68"/>
    <line x1="20" y1="51" x2="30" y2="68"/>
    <line x1="20" y1="51" x2="30" y2="68"/>
    <line x1="40" y1="51" x2="50" y2="68"/>
    <line x1="40" y1="51" x2="50" y2="68"/>
    <line x1="50" y1="68" x2="60" y2="51"/>
    <line x1="50" y1="68" x2="60" y2="51"/>
    <line x1="60" y1="51" x2="80" y2="51"/>
    <line x1="70" y1="68" x2="90" y2="68"/>
    <line x1="80" y1="51" x2="100" y2="51"/>
    <line x1="90" y1="68" x2="110" y2="68"/>
    <line x1="110" y1="68" x2="120" y2="51"/>
    <line x1="110" y1="68" x2="120" y2="51"/>
    <line x1="110" y1="68" x2="130" y2="68"/>
    <line x1="120" y1="51" x2="140" y2="51"/>
    <line x1="150" y1="68" x2="160" y2="51"/>
    <line x1="150" y1="68" x2="160" y2="51"/>
    <line x1="150" y1="68" x2="170" y2="68"/>
    <line x1="180" y1="51" x2="190" y2="68"/>
    <line x1="180" y1="51" x2="190" y2="68"/>
    <line x1="180" y1="51" x2="200" y2="51"/>
    <line x1="200" y1="51" x2="210" y2="68"/>
    <line x1="0" y1="85" x2="10" y2="68"/>
    <line x1="20" y1="85" x2="30" y2="68"/>
    <line x1="20" y1="85" x2="30" y2="68"/>
    <line x1="30" y1="68" x2="40" y2="85"/>
    <line x1="30" y1="68" x2="40" y2="85"/>
    <line x1="40" y1="85" x2="60" y2="85"/>
    <line x1="60" y1="85" x2="70" y2="68"/>
    <line x1="60" y1="85" x2="70" y2="68"/>
    <line x1="70" y1="68" x2="90" y2="68"/>
    <line x1="80" y1="85" x2="100" y2="85"/>
    <line x1="90" y1="68" x2="110" y2="68"/>
    <line x1="110" y1="68" x2="130" y2="68"/>
    <line x1="120" y1="85" x2="140" y2="85"/>
    <line x1="140" y1="85" x2="150" y2="68"/>
    <line x1="140" y1="85" x2="150" y2="68"/>
    <line x1="150" y1="68" x2="170" y2="68"/>
    <line x1="170" y1="68" x2="180" y2="85"/>
    <line x1="170" y1="68" x2="180" y2="85"/>
    <line x1="180" y1="85" x2="200" y2="85"/>
    <line x1="200" y1="85" x2="210" y2="68"/>
    <line x1="0" y1="85" x2="10" y2="102"/>
    <line x1="10" y1="102" x2="30" y2="102"/>
    <line x1="30" y1="102" x2="50" y2="102"/>
    <line x1="40" y1="85" x2="60" y2="85"/>
    <line x1="60" y1="85" x2="70" y2="102"/>
    <line x1="60" y1="85" x2="70" y2="102"/>
    <line x1="70" y1="102" x2="90" y2="102"/>
    <line x1="80" y1="85" x2="100" y2="85"/>
    <line x1="100" y1="85" x2="110" y2="102"/>
    <line x1="100" y1="85" x2="110" y2="102"/>
    <line x1="110" y1="102" x2="120" y2="85"/>
    <line x1="110" y1="102" x2="120" y2="85"/>
    <line x1="120" y1="85" x2="140" y2="85"/>
    <line x1="140" y1="85" x2="150" y2="102"/>
    <line x1="140" y1="85" x2="150" y2="102"/>
    <line x1="160" y1="85" x2="170" y2="102"/>
    <line x1="160" y1="85" x2="170" y2="102"/>
    <line x1="170" y1="102" x2="190" y2="102"/>
    <line x1="180" y1="85" x2="200" y2="85"/>
    <line x1="200" y1="85" x2="210" y2="102"/>
    <line x1="0" y1="119" x2="10" y2="102"/>
    <line x1="10" y1="102" x2="30" y2="102"/>
    <line x1="40" y1="119" x2="50" y2="102"/>
    <line x1="30" y1="102" x2="50" y2="102"/>
    <line x1="40" y1="119" x2="50" y2="102"/>
    <line x1="60" y1="119" x2="70" y2="102"/>
    <line x1="60" y1="119" x2="70" y2="102"/>
    <line x1="70" y1="102" x2="90" y2="102"/>
    <line x1="90" y1="102" x2="100" y2="119"/>
    <line x1="90" y1="102" x2="100" y2="119"/>
    <line x1="110" y1="102" x2="120" y2="119"/>
    <line x1="110" y1="102" x2="120" y2="119"/>
    <line x1="130" y1="102" x2="140" y2="119"/>
    <line x1="130" y1="102" x2="140" y2="119"/>
    <line x1="150" y1="102" x2="160" y2="119"/>
    <line x1="150" y1="102" x2="160" y2="119"/>
    <line x1="180" y1="119" x2="190" y2="102"/>
    <line x1="170" y1="102" x2="190" y2="102"/>
    <line x1="180" y1="119" x2="190" y2="102"/>
    <line x1="200" y1="119" x2="210" y2="102"/>
    <line x1="0" y1="119" x2="10" y2="136"/>
    <line x1="20" y1="119" x2="30" y2="136"/>
    <line x1="20" y1="119" x2="30" y2="136"/>
    <line x1="30" y1="136" x2="50" y2="136"/>
    <line x1="50" y1="136" x2="60" y2="119"/>
    <line x1="50" y1="136" x2="60" y2="119"/>
    <line x1="70" y1="136" x2="80" y2="119"/>
    <line x1="70" y1="136" x2="80" y2="119"/>
    <line x1="80" y1="119" x2="90" y2="136"/>
    <line x1="80" y1="119" x2="90" y2="136"/>
    <line x1="100" y1="119" x2="110" y2="136"/>
    <line x1="100" y1="119" x2="110" y2="136"/>
    <line x1="130" y1="136" x2="140" y2="119"/>
    <line x1="130" y1="136" x2="140" y2="119"/>
    <line x1="140" y1="119" x2="150" y2="136"/>
    <line x1="140" y1="119" x2="150" y2="136"/>
    <line x1="150" y1="136" x2="170" y2="136"/>
    <line x1="170" y1="136" x2="180" y2="119"/>
    <line x1="170" y1="136" x2="180" y2="119"/>
    <line x1="180" y1="119" x2="190" y2="136"/>
    <line x1="180" y1="119" x2="190" y2="136"/>
    <line x1="200" y1="119" x2="210" y2="136"/>
    <line x1="0" y1="153" x2="10" y2="136"/>
    <line x1="20" y1="153" x2="30" y2="136"/>
    <line x1="20" y1="153" x2="30" y2="136"/>
    <line x1="30" y1="136" x2="50" y2="136"/>
    <line x1="40" y1="153" x2="60" y2="153"/>
    <line x1="60" y1="153" x2="70" y2="136"/>
    <line x1="60" y1="153" x2="70" y2="136"/>
    <line x1="60" y1="153" x2="80" y2="153"/>
    <line x1="90" y1="136" x2="100" y2="153"/>
    <line x1="90" y1="136" x2="100" y2="153"/>
    <line x1="110" y1="136" x2="120" y2="153"/>
    <line x1="110" y1="136" x2="120" y2="153"/>
    <line x1="120" y1="153" x2="140" y2="153"/>
    <line x1="140" y1="153" x2="160" y2="153"/>
    <line x1="150" y1="136" x2="170" y2="136"/>
    <line x1="180" y1="153" x2="190" y2="136"/>
    <line x1="180" y1="153" x2="190" y2="136"/>
    <line x1="200" y1="153" x2="210" y2="136"/>
    <line x1="0" y1="153" x2="10" y2="170"/>
    <line x1="20" y1="153" x2="30" y2="170"/>
    <line x1="20" y1="153" x2="30" y2="170"/>
    <line x1="40" y1="153" x2="50" y2="170"/>
    <line x1="40" y1="153" x2="50" y2="170"/>
    <line x1="40" y1="153" x2="60" y2="153"/>
    <line x1="60" y1="153" x2="80" y2="153"/>
    <line x1="90" y1="170" x2="100" y2="153"/>
    <line x1="90" y1="170" x2="100" y2="153"/>
    <line x1="110" y1="170" x2="120" y2="153"/>
    <line x1="110" y1="170" x2="120" y2="153"/>
    <line x1="110" y1="170" x2="130" y2="170"/>
    <line x1="120" y1="153" x2="140" y2="153"/>
    <line x1="150" y1="170" x2="160" y2="153"/>
    <line x1="140" y1="153" x2="160" y2="153"/>
    <line x1="150" y1="170" x2="160" y2="153"/>
    <line x1="170" y1="170" x2="180" y2="153"/>
    <line x1="170" y1="170" x2="180" y2="153"/>
    <line x1="200" y1="153" x2="210" y2="170"/>
    <line x1="0" y1="187" x2="10" y2="170"/>
    <line x1="20" y1="187" x2="30" y2="170"/>
    <line x1="20" y1="187" x2="30" y2="170"/>
    <line x1="20" y1="187" x2="40" y2="187"/>
    <line x1="50" y1="170" x2="60" y2="187"/>
    <line x1="50" y1="170" x2="60" y2="187"/>
    <line x1="70" y1="170" x2="80" y2="187"/>
    <line x1="70" y1="170" x2="80" y2="187"/>
    <line x1="90" y1="170" x2="100" y2="187"/>
    <line x1="80" y1="187" x2="100" y2="187"/>
    <line x1="90" y1="170" x2="100" y2="187"/>
    <line x1="100" y1="187" x2="120" y2="187"/>
    <line x1="110" y1="170" x2="130" y2="170"/>
    <line x1="130" y1="170" x2="140" y2="187"/>
    <line x1="130" y1="170" x2="140" y2="187"/>
    <line x1="150" y1="170" x2="160" y2="187"/>
    <line x1="150" y1="170" x2="160" y2="187"/>
    <line x1="170" y1="170" x2="180" y2="187"/>
    <line x1="170" y1="170" x2="180" y2="187"/>
    <line x1="190" y1="170" x2="200" y2="187"/>
    <line x1="190" y1="170" x2="200" y2="187"/>
    <line x1="200" y1="187" x2="210" y2="170"/>
    <line x1="0" y1="187" x2="10" y2="204"/>
    <line x1="10" y1="204" x2="30" y2="204"/>
    <line x1="20" y1="187" x2="40" y2="187"/>
    <line x1="30" y1="204" x2="50" y2="204"/>
    <line x1="50" y1="204" x2="60" y2="187"/>
    <line x1="50" y1="204" x2="60" y2="187"/>
    <line x1="70" y1="204" x2="80" y2="187"/>
    <line x1="70" y1="204" x2="80" y2="187"/>
    <line x1="80" y1="187" x2="100" y2="187"/>
    <line x1="90" y1="204" x2="110" y2="204"/>
    <line x1="100" y1="187" x2="120" y2="187"/>
    <line x1="110" y1="204" x2="130" y2="204"/>
    <line x1="130" y1="204" x2="140" y2="187"/>
    <line x1="130" y1="204" x2="140" y2="187"/>
    <line x1="130" y1="204" x2="150" y2="204"/>
    <line x1="150" y1="204" x2="170" y2="204"/>
    <line x1="180" y1="187" x2="190" y2="204"/>
    <line x1="170" y1="204" x2="190" y2="204"/>
    <line x1="180" y1="187" x2="190" y2="204"/>
    <line x1="200" y1="187" x2="210" y2="204"/>
    <line x1="0" y1="221" x2="10" y2="204"/>
    <line x1="20" y1="221" x2="30" y2="204"/>
    <line x1="10" y1="204" x2="30" y2="204"/>
    <line x1="20" y1="221" x2="30" y2="204"/>
    <line x1="30" y1="204" x2="50" y2="204"/>
    <line x1="60" y1="221" x2="70" y2="204"/>
    <line x1="60" y1="221" x2="70" y2="204"/>
    <line x1="80" y1="221" x2="90" y2="204"/>
    <line x1="80" y1="221" x2="90" y2="204"/>
    <line x1="80" y1="221" x2="100" y2="221"/>
    <line x1="90" y1="204" x2="110" y2="204"/>
    <line x1="100" y1="221" x2="120" y2="221"/>
    <line x1="110" y1="204" x2="130" y2="204"/>
    <line x1="130" y1="204" x2="150" y2="204"/>
    <line x1="140" y1="221" x2="160" y2="221"/>
    <line x1="150" y1="204" x2="170" y2="204"/>
    <line x1="160" y1="221" x2="180" y2="221"/>
    <line x1="170" y1="204" x2="190" y2="204"/>
    <line x1="200" y1="221" x2="210" y2="204"/>
    <line x1="0" y1="221" x2="10" y2="238"/>
    <line x1="30" y1="238" x2="40" y2="221"/>
    <line x1="30" y1="238" x2="40" y2="221"/>
    <line x1="40" y1="221" x2="50" y2="238"/>
    <line x1="40" y1="221" x2="50" y2="238"/>
    <line x1="60" y1="221" x2="70" y2="238"/>
    <line x1="60" y1="221" x2="70" y2="238"/>
    <line x1="70" y1="238" x2="90" y2="238"/>
    <line x1="80" y1="221" x2="100" y2="221"/>
    <line x1="90" y1="238" x2="110" y2="238"/>
    <line x1="100" y1="221" x2="120" y2="221"/>
    <line x1="110" y1="238" x2="130" y2="238"/>
    <line x1="130" y1="238" x2="140" y2="221"/>
    <line x1="130" y1="238" x2="140" y2="221"/>
    <line x1="140" y1="221" x2="160" y2="221"/>
    <line x1="160" y1="221" x2="170" y2="238"/>
    <line x1="160" y1="221" x2="170" y2="238"/>
    <line x1="160" y1="221" x2="180" y2="221"/>
    <line x1="180" y1="221" x2="190" y2="238"/>
    <line x1="180" y1="221" x2="190" y2="238"/>
    <line x1="200" y1="221" x2="210" y2="238"/>
    <line x1="0" y1="255" x2="10" y2="238"/>
    <line x1="10" y1="238" x2="20" y2="255"/>
    <line x1="10" y1="238" x2="20" y2="255"/>
    <line x1="30" y1="238" x2="40" y2="255"/>
    <line x1="30" y1="238" x2="40" y2="255"/>
    <line x1="50" y1="238" x2="60" y2="255"/>
    <line x1="50" y1="238" x2="60" y2="255"/>
    <line x1="60" y1="255" x2="80" y2="255"/>
    <line x1="70" y1="238" x2="90" y2="238"/>
    <line x1="90" y1="238" x2="110" y2="238"/>
    <line x1="100" y1="255" x2="120" y2="255"/>
    <line x1="120" y1="255" x2="130" y2="238"/>
    <line x1="110" y1="238" x2="130" y2="238"/>
    <line x1="120" y1="255" x2="130" y2="238"/>
    <line x1="150" y1="238" x2="160" y2="255"/>
    <line x1="150" y1="238" x2="160" y2="255"/>
    <line x1="160" y1="255" x2="180" y2="255"/>
    <line x1="180" y1="255" x2="190" y2="238"/>
    <line x1="180" y1="255" x2="190" y2="238"/>
    <line x1="200" y1="255" x2="210" y2="238"/>
    <line x1="0" y1="255" x2="10" y2="272"/>
    <line x1="30" y1="272" x2="40" y2="255"/>
    <line x1="30" y1="272" x2="40" y2="255"/>
    <line x1="50" y1="272" x2="60" y2="255"/>
    <line x1="50" y1="272" x2="60" y2="255"/>
    <line x1="60" y1="255" x2="80" y2="255"/>
    <line x1="70" y1="272" x2="90" y2="272"/>
    <line x1="90" y1="272" x2="100" y2="255"/>
    <line x1="90" y1="272" x2="100" y2="255"/>
    <line x1="100" y1="255" x2="120" y2="255"/>
    <line x1="110" y1="272" x2="130" y2="272"/>
    <line x1="130" y1="272" x2="140" y2="255"/>
    <line x1="130" y1="272" x2="140" y2="255"/>
    <line x1="140" y1="255" x2="150" y2="272"/>
    <line x1="140" y1="255" x2="150" y2="272"/>
    <line x1="150" y1="272" x2="170" y2="272"/>
    <line x1="160" y1="255" x2="180" y2="255"/>
    <line x1="170" y1="272" x2="190" y2="272"/>
    <line x1="190" y1="272" x2="200" y2="255"/>
    <line x1="190" y1="272" x2="200" y2="255"/>
    <line x1="200" y1="255" x2="210" y2="272"/>
    <line x1="0" y1="289" x2="10" y2="272"/>
    <line x1="10" y1="272" x2="20" y2="289"/>
    <line x1="10" y1="272" x2="20" y2="289"/>
    <line x1="40" y1="289" x2="50" y2="272"/>
    <line x1="40" y1="289" x2="50" y2="272"/>
    <line x1="60" y1="289" x2="70" y2="272"/>
    <line x1="60" y1="289" x2="70" y2="272"/>
    <line x1="70" y1="272" x2="90" y2="272"/>
    <line x1="80" y1="289" x2="100" y2="289"/>
    <line x1="100" y1="289" x2="110" y2="272"/>
    <line x1="100" y1="289" x2="110" y2="272"/>
    <line x1="110" y1="272" x2="130" y2="272"/>
    <line x1="130" y1="272" x2="140" y2="289"/>
    <line x1="130" y1="272" x2="140" y2="289"/>
    <line x1="140" y1="289" x2="160" y2="289"/>
    <line x1="150" y1="272" x2="170" y2="272"/>
    <line x1="160" y1="289" x2="180" y2="289"/>
    <line x1="170" y1="272" x2="190" y2="272"/>
    <line x1="200" y1="289" x2="210" y2="272"/>
    <line x1="0" y1="289" x2="10" y2="306"/>
    <line x1="30" y1="306" x2="40" y2="289"/>
    <line x1="30" y1="306" x2="40" y2="289"/>
    <line x1="40" y1="289" x2="50" y2="306"/>
    <line x1="40" y1="289" x2="50" y2="306"/>
    <line x1="50" y1="306" x2="70" y2="306"/>
    <line x1="70" y1="306" x2="80" y2="289"/>
    <line x1="70" y1="306" x2="80" y2="289"/>
    <line x1="80" y1="289" x2="100" y2="289"/>
    <line x1="110" y1="306" x2="120" y2="289"/>
    <line x1="110" y1="306" x2="120" y2="289"/>
    <line x1="130" y1="306" x2="140" y2="289"/>
    <line x1="130" y1="306" x2="140" y2="289"/>
    <line x1="140" y1="289" x2="160" y2="289"/>
    <line x1="150" y1="306" x2="170" y2="306"/>
    <line x1="160" y1="289" x2="180" y2="289"/>
    <line x1="180" y1="289" x2="190" y2="306"/>
    <line x1="180" y1="289" x2="190" y2="306"/>
    <line x1="200" y1="289" x2="210" y2="306"/>
    <line x1="0" y1="323" x2="10" y2="306"/>
    <line x1="20" y1="323" x2="30" y2="306"/>
    <line x1="20" y1="323" x2="30" y2="306"/>
    <line x1="20" y1="323" x2="40" y2="323"/>
    <line x1="40" y1="323" x2="60" y2="323"/>
    <line x1="50" y1="306" x2="70" y2="306"/>
    <line x1="60" y1="323" x2="80" y2="323"/>
    <line x1="80" y1="323" x2="90" y2="306"/>
    <line x1="80" y1="323" x2="90" y2="306"/>
    <line x1="100" y1="323" x2="110" y2="306"/>
    <line x1="100" y1="323" x2="110" y2="306"/>
    <line x1="110" y1="306" x2="120" y2="323"/>
    <line x1="110" y1="306" x2="120" y2="323"/>
    <line x1="130" y1="306" x2="140" y2="323"/>
    <line x1="130" y1="306" x2="140" y2="323"/>
    <line x1="150" y1="306" x2="160" y2="323"/>
    <line x1="150" y1="306" x2="160" y2="323"/>
    <line x1="150" y1="306" x2="170" y2="306"/>
    <line x1="170" y1="306" x2="180" y2="323"/>
    <line x1="170" y1="306" x2="180" y2="323"/>
    <line x1="200" y1="323" x2="210" y2="306"/>
    <line x1="0" y1="323" x2="10" y2="340"/>
    <line x1="10" y1="340" x2="30" y2="340"/>
    <line x1="20" y1="323" x2="40" y2="323"/>
    <line x1="30" y1="340" x2="50" y2="340"/>
    <line x1="40" y1="323" x2="60" y2="323"/>
    <line x1="50" y1="340" x2="70" y2="340"/>
    <line x1="60" y1="323" x2="80" y2="323"/>
    <line x1="70" y1="340" x2="90" y2="340"/>
    <line x1="90" y1="340" x2="100" y2="323"/>
    <line x1="90" y1="340" x2="100" y2="323"/>
    <line x1="90" y1="340" x2="110" y2="340"/>
    <line x1="110" y1="340" x2="130" y2="340"/>
    <line x1="130" y1="340" x2="150" y2="340"/>
    <line x1="150" y1="340" x2="160" y2="323"/>
    <line x1="150" y1="340" x2="160" y2="323"/>
    <line x1="150" y1="340" x2="170" y2="340"/>
    <line x1="170" y1="340" x2="190" y2="340"/>
    <line x1="190" y1="340" x2="210" y2="340"/>
  </g>
  <g stroke="red" stroke-width="3" stroke-linecap="round" fill="none">
    <path class="solution-path" d="M 10 11 L 10 22 L 20 28 L 30 22 L 30 11 L 40 5 L 50 11 L 60 5 L 70 11 L 80 5 L 90 11 L 100 5 L 110 11 L 120 5 L 130 11 L 140 5 L 150 11 L 150 22 L 140 28 L 140 39 L 130 45 L 120 39 L 120 28 L 110 22 L 100 28 L 100 39 L 110 45 L 110 56 L 100 62 L 90 56 L 80 62 L 70 56 L 60 62 L 60 73 L 50 79 L 40 73 L 40 62 L 30 56 L 30 45 L 20 39 L 10 45 L 10 56 L 20 62 L 20 73 L 10 79 L 10 90 L 20 96 L 30 90 L 40 96 L 50 90 L 60 96 L 60 107 L 50 113 L 50 124 L 40 130 L 30 124 L 30 113 L 20 107 L 10 113 L 10 124 L 20 130 L 20 141 L 10 147 L 10 158 L 20 164 L 20 175 L 10 181 L 10 192 L 20 198 L 30 192 L 40 198 L 50 192 L 50 181 L 40 175 L 40 164 L 30 158 L 30 147 L 40 141 L 50 147 L 60 141 L 60 130 L 70 124 L 70 113 L 80 107 L 90 113 L 90 124 L 100 130 L 100 141 L 110 147 L 110 158 L 100 164 L 100 175 L 110 181 L 120 175 L 130 181 L 130 192 L 120 198 L 110 192 L 100 198 L 90 192 L 80 198 L 80 209 L 70 215 L 70 226 L 80 232 L 90 226 L 100 232 L 110 226 L 120 232 L 130 226 L 130 215 L 140 209 L 150 215 L 160 209 L 170 215 L 180 209 L 190 215 L 190 226 L 200 232 L 200 243 L 190 249 L 190 260 L 180 266 L 170 260 L 160 266 L 150 260 L 150 249 L 140 243 L 130 249 L 130 260 L 120 266 L 110 260 L 100 266 L 100 277 L 90 283 L 80 277 L 70 283 L 70 294 L 60 300 L 50 294 L 50 283 L 60 277 L 60 266 L 70 260 L 80 266 L 90 260 L 90 249 L 80 243 L 70 249 L 60 243 L 60 232 L 50 226 L 50 215 L 40 209 L 30 215 L 30 226 L 20 232 L 20 243 L 30 249 L 30 260 L 20 266 L 20 277 L 30 283 L 30 294 L 20 300 L 20 311 L 10 317 L 10 328 L 20 334 L 30 328 L 40 334 L 50 328 L 60 334 L 70 328 L 80 334 L 90 328 L 90 317 L 100 311 L 100 300 L 110 294 L 110 283 L 120 277 L 130 283 L 130 294 L 120 300 L 120 311 L 130 317 L 130 328 L 140 334 L 150 328 L 150 317 L 140 311 L 140 300 L 150 294 L 160 300 L 170 294 L 180 300 L 180 311 L 190 317 L 190 328 L 200 334 "/>
  </g>
</svg>