<?xml version="1.0" encoding="UTF-8"?>
<svg xmlns="http://www.w3.org/2000/svg" width="210" height="357" viewBox="0 0 210 357">
  <rect width="210" height="357" fill="white"/>
  <g stroke="black" stroke-width="2" stroke-linecap="square" fill="none">
    <line x1="10" y1="0" x2="30" y2="0"/>
    <line x1="20" y1="17" x2="40" y2="17"/>
    <line x1="30" y1="0" x2="50" y2="0"/>
    <line x1="40" y1="17" x2="60" y2="17"/>
    <line x1="60" y1="17" x2="70" y2="0"/>
    <line x1="50" y1="0" x2="70" y2="0"/>
    <line x1="60" y1="17" x2="70" y2="0"/>
    <line x1="70" y1="0" x2="90" y2="0"/>
    <line x1="90" y1="0" x2="100" y2="17"/>
    <line x1="90" y1="0" x2="100" y2="17"/>
    <line x1="90" y1="0" x2="110" y2="0"/>
    <line x1="110" y1="0" x2="130" y2="0"/>
    <line x1="120" y1="17" x2="140" y2="17"/>
    <line x1="140" y1="17" x2="150" y2="0"/>
    <line x1="130" y1="0" x2="150" y2="0"/>
    <line x1="140" y1="17" x2="150" y2="0"/>
    <line x1="160" y1="17" x2="170" y2="0"/>
    <line x1="150" y1="0" x2="170" y2="0"/>
    <line x1="160" y1="17" x2="170" y2="0"/>
    <line x1="180" y1="17" x2="190" y2="0"/>
    <line x1="170" y1="0" x2="190" y2="0"/>
    <line x1="180" y1="17" x2="190" y2="0"/>
    <line x1="200" y1="17" x2="210" y2="0"/>
    <line x1="190" y1="0" x2="210" y2="0"/>
    <line x1="0" y1="17" x2="10" y2="34"/>
    <line x1="20" y1="17" x2="40" y2="17"/>
    <line x1="40" y1="17" x2="60" y2="17"/>
    <line x1="50" y1="34" x2="70" y2="34"/>
    <line x1="80" y1="17" x2="90" y2="34"/>
    <line x1="80" y1="17" x2="90" y2="34"/>
    <line x1="110" y1="34" x2="130" y2="34"/>
    <line x1="130" y1="34" x2="140" y2="17"/>
    <line x1="120" y1="17" x2="140" y2="17"/>
    <line x1="130" y1="34" x2="140" y2="17"/>
    <line x1="150" y1="34" x2="160" y2="17"/>
    <line x1="150" y1="34" x2="160" y2="17"/>
    <line x1="170" y1="34" x2="180" y2="17"/>
    <line x1="170" y1="34" x2="180" y2="17"/>
    <line x1="190" y1="34" x2="200" y2="17"/>
    <line x1="190" y1="34" x2="200" y2="17"/>
    <line x1="200" y1="17" x2="210" y2="34"/>
    <line x1="0" y1="51" x2="10" y2="34"/>
    <line x1="20" y1="51" x2="30" y2="34"/>
    <line x1="20" y1="51" x2="30" y2="34"/>
    <line x1="50" y1="34" x2="70" y2="34"/>
    <line x1="70" y1="34" x2="80" y2="51"/>
    <line x1="70" y1="34" x2="80" y2="51"/>
    <line x1="90" y1="34" x2="100" y2="51"/>
    <line x1="80" y1="51" x2="100" y2="51"/>
    <line x1="90" y1="34" x2="100" y2="51"/>
    <line x1="110" y1="34" x2="130" y2="34"/>
    <line x1="120" y1="51" x2="140" y2="51"/>
    <line x1="140" y1="51" x2="150" y2="34"/>
    <line x1="140" y1="51" x2="150" y2="34"/>
    <line x1="160" y1="51" x2="170" y2="34"/>
    <line x1="160" y1="51" x2="170" y2="34"/>
    <line x1="170" y1="34" x2="180" y2="51"/>
    <line x1="170" y1="34" x2="180" y2="51"/>
    <line x1="200" y1="51" x2="210" y2="34"/>
    <line x1="0" y1="51" x2="10" y2="68"/>
    <line x1="10" y1="68" x2="20" y2="51"/>
    <line x1="10" y1="68" x2="20" y2="51"/>
    <line x1="40" y1="51" x2="50" y2="68"/>
    <line x1="40" y1="51" x2="50" y2="68"/>
    <line x1="60" y1="51" x2="70" y2="68"/>
    <line x1="60" y1="51" x2="70" y2="68"/>
    <line x1="80" y1="51" x2="100" y2="51"/>
    <line x1="100" y1="51" x2="110" y2="68"/>
    <line x1="100" y1="51" x2="110" y2="68"/>
    <line x1="120" y1="51" x2="140" y2="51"/>
    <line x1="130" y1="68" x2="150" y2="68"/>
    <line x1="170" y1="68" x2="190" y2="68"/>
    <line x1="200" y1="51" x2="210" y2="68"/>
    <line x1="0" y1="85" x2="10" y2="68"/>
    <line x1="30" y1="68" x2="40" y2="85"/>
    <line x1="30" y1="68" x2="40" y2="85"/>
    <line x1="40" y1="85" x2="50" y2="68"/>
    <line x1="40" y1="85" x2="50" y2="68"/>
    <line x1="70" y1="68" x2="80" y2="85"/>
    <line x1="70" y1="68" x2="80" y2="85"/>
    <line x1="80" y1="85" x2="90" y2="68"/>
    <line x1="80" y1="85" x2="90" y2="68"/>
    <line x1="90" y1="68" x2="100" y2="85"/>
    <line x1="90" y1="68" x2="100" y2="85"/>
    <line x1="110" y1="68" x2="120" y2="85"/>
    <line x1="100" y1="85" x2="120" y2="85"/>
    <line x1="110" y1="68" x2="120" y2="85"/>
    <line x1="130" y1="68" x2="150" y2="68"/>
    <line x1="150" y1="68" x2="160" y2="85"/>
    <line x1="140" y1="85" x2="160" y2="85"/>
    <line x1="150" y1="68" x2="160" y2="85"/>
    <line x1="170" y1="68" x2="190" y2="68"/>
    <line x1="190" y1="68" x2="200" y2="85"/>
    <line x1="180" y1="85" x2="200" y2="85"/>
    <line x1="190" y1="68" x2="200" y2="85"/>
    <line x1="200" y1="85" x2="210" y2="68"/>
    <line x1="0" y1="85" x2="10" y2="102"/>
    <line x1="20" y1="85" x2="30" y2="102"/>
    <line x1="20" y1="85" x2="30" y2="102"/>
    <line x1="40" y1="85" x2="50" y2="102"/>
    <line x1="40" y1="85" x2="50" y2="102"/>
    <line x1="60" y1="85" x2="70" y2="102"/>
    <line x1="50" y1="102" x2="70" y2="102"/>
    <line x1="60" y1="85" x2="70" y2="102"/>
    <line x1="90" y1="102" x2="100" y2="85"/>
    <line x1="90" y1="102" x2="100" y2="85"/>
    <line x1="100" y1="85" x2="120" y2="85"/>
    <line x1="120" y1="85" x2="130" y2="102"/>
    <line x1="120" y1="85" x2="130" y2="102"/>
    <line x1="130" y1="102" x2="150" y2="102"/>
    <line x1="140" y1="85" x2="160" y2="85"/>
    <line x1="160" y1="85" x2="170" y2="102"/>
    <line x1="160" y1="85" x2="170" y2="102"/>
    <line x1="180" y1="85" x2="200" y2="85"/>
    <line x1="200" y1="85" x2="210" y2="102"/>
    <line x1="0" y1="119" x2="10" y2="102"/>
    <line x1="30" y1="102" x2="40" y2="119"/>
    <line x1="30" y1="102" x2="40" y2="119"/>
    <line x1="40" y1="119" x2="50" y2="102"/>
    <line x1="40" y1="119" x2="50" y2="102"/>
    <line x1="50" y1="102" x2="70" y2="102"/>
    <line x1="110" y1="102" x2="120" y2="119"/>
    <line x1="100" y1="119" x2="120" y2="119"/>
    <line x1="110" y1="102" x2="120" y2="119"/>
    <line x1="120" y1="119" x2="130" y2="102"/>
    <line x1="120" y1="119" x2="130" y2="102"/>
    <line x1="140" y1="119" x2="150" y2="102"/>
    <line x1="130" y1="102" x2="150" y2="102"/>
    <line x1="140" y1="119" x2="150" y2="102"/>
    <line x1="150" y1="102" x2="160" y2="119"/>
    <line x1="150" y1="102" x2="160" y2="119"/>
    <line x1="160" y1="119" x2="170" y2="102"/>
    <line x1="160" y1="119" x2="170" y2="102"/>
    <line x1="180" y1="119" x2="190" y2="102"/>
    <line x1="180" y1="119" x2="190" y2="102"/>
    <line x1="180" y1="119" x2="200" y2="119"/>
    <line x1="200" y1="119" x2="210" y2="102"/>
    <line x1="0" y1="119" x2="10" y2="136"/>
    <line x1="20" y1="119" x2="30" y2="136"/>
    <line x1="20" y1="119" x2="30" y2="136"/>
    <line x1="30" y1="136" x2="40" y2="119"/>
    <line x1="30" y1="136" x2="40" y2="119"/>
    <line x1="50" y1="136" x2="60" y2="119"/>
    <line x1="50" y1="136" x2="60" y2="119"/>
    <line x1="80" y1="119" x2="90" y2="136"/>
    <line x1="80" y1="119" x2="90" y2="136"/>
    <line x1="90" y1="136" x2="110" y2="136"/>
    <line x1="100" y1="119" x2="120" y2="119"/>
    <line x1="150" y1="136" x2="160" y2="119"/>
    <line x1="150" y1="136" x2="160" y2="119"/>
    <line x1="180" y1="119" x2="200" y2="119"/>
    <line x1="200" y1="119" x2="210" y2="136"/>
    <line x1="0" y1="153" x2="10" y2="136"/>
    <line x1="20" y1="153" x2="30" y2="136"/>
    <line x1="20" y1="153" x2="30" y2="136"/>
    <line x1="20" y1="153" x2="40" y2="153"/>
    <line x1="50" y1="136" x2="60" y2="153"/>
    <line x1="50" y1="136" x2="60" y2="153"/>
    <line x1="70" y1="136" x2="80" y2="153"/>
    <line x1="70" y1="136" x2="80" y2="153"/>
    <line x1="100" y1="153" x2="110" y2="136"/>
    <line x1="90" y1="136" x2="110" y2="136"/>
    <line x1="100" y1="153" x2="110" y2="136"/>
    <line x1="130" y1="136" x2="140" y2="153"/>
    <line x1="130" y1="136" x2="140" y2="153"/>
    <line x1="150" y1="136" x2="160" y2="153"/>
    <line x1="150" y1="136" x2="160" y2="153"/>
    <line x1="160" y1="153" x2="170" y2="136"/>
    <line x1="160" y1="153" x2="170" y2="136"/>
    <line x1="160" y1="153" x2="180" y2="153"/>
    <line x1="190" y1="136" x2="200" y2="153"/>
    <line x1="190" y1="136" x2="200" y2="153"/>
    <line x1="200" y1="153" x2="210" y2="136"/>
    <line x1="0" y1="153" x2="10" y2="170"/>
    <line x1="20" y1="153" x2="40" y2="153"/>
    <line x1="40" y1="153" x2="50" y2="170"/>
    <line x1="30" y1="170" x2="50" y2="170"/>
    <line x1="40" y1="153" x2="50" y2="170"/>
    <line x1="60" y1="153" x2="70" y2="170"/>
    <line x1="60" y1="153" x2="70" y2="170"/>
    <line x1="80" y1="153" x2="90" y2="170"/>
    <line x1="80" y1="153" x2="90" y2="170"/>
    <line x1="100" y1="153" x2="110" y2="170"/>
    <line x1="100" y1="153" x2="110" y2="170"/>
    <line x1="120" y1="153" x2="130" y2="170"/>
    <line x1="120" y1="153" x2="130" y2="170"/>
    <line x1="130" y1="170" x2="140" y2="153"/>
    <line x1="130" y1="170" x2="140" y2="153"/>
    <line x1="160" y1="153" x2="180" y2="153"/>
    <line x1="180" y1="153" x2="190" y2="170"/>
    <line x1="170" y1="170" x2="190" y2="170"/>
    <line x1="180" y1="153" x2="190" y2="170"/>
    <line x1="200" y1="153" x2="210" y2="170"/>
    <line x1="0" y1="187" x2="10" y2="170"/>
    <line x1="30" y1="170" x2="40" y2="187"/>
    <line x1="30" y1="170" x2="40" y2="187"/>
    <line x1="30" y1="170" x2="50" y2="170"/>
    <line x1="70" y1="170" x2="80" y2="187"/>
    <line x1="70" y1="170" x2="80" y2="187"/>
    <line x1="90" y1="170" x2="100" y2="187"/>
    <line x1="80" y1="187" x2="100" y2="187"/>
    <line x1="90" y1="170" x2="100" y2="187"/>
    <line x1="110" y1="170" x2="120" y2="187"/>
    <line x1="110" y1="170" x2="120" y2="187"/>
    <line x1="130" y1="170" x2="140" y2="187"/>
    <line x1="130" y1="170" x2="140" y2="187"/>
    <line x1="140" y1="187" x2="150" y2="170"/>
    <line x1="140" y1="187" x2="150" y2="170"/>
    <line x1="170" y1="170" x2="180" y2="187"/>
    <line x1="160" y1="187" x2="180" y2="187"/>
    <line x1="170" y1="170" x2="180" y2="187"/>
    <line x1="170" y1="170" x2="190" y2="170"/>
    <line x1="200" y1="187" x2="210" y2="170"/>
    <line x1="0" y1="187" x2="10" y2="204"/>
    <line x1="20" y1="187" x2="30" y2="204"/>
    <line x1="20" y1="187" x2="30" y2="204"/>
    <line x1="40" y1="187" x2="50" y2="204"/>
    <line x1="40" y1="187" x2="50" y2="204"/>
    <line x1="60" y1="187" x2="70" y2="204"/>
    <line x1="60" y1="187" x2="70" y2="204"/>
    <line x1="80" y1="187" x2="100" y2="187"/>
    <line x1="100" y1="187" x2="110" y2="204"/>
    <line x1="100" y1="187" x2="110" y2="204"/>
    <line x1="110" y1="204" x2="120" y2="187"/>
    <line x1="110" y1="204" x2="120" y2="187"/>
    <line x1="140" y1="187" x2="150" y2="204"/>
    <line x1="140" y1="187" x2="150" y2="204"/>
    <line x1="160" y1="187" x2="180" y2="187"/>
    <line x1="180" y1="187" x2="190" y2="204"/>
    <line x1="170" y1="204" x2="190" y2="204"/>
    <line x1="180" y1="187" x2="190" y2="204"/>
    <line x1="200" y1="187" x2="210" y2="204"/>
    <line x1="0" y1="221" x2="10" y2="204"/>
    <line x1="30" y1="204" x2="40" y2="221"/>
    <line x1="30" y1="204" x2="40" y2="221"/>
    <line x1="40" y1="221" x2="50" y2="204"/>
    <line x1="40" y1="221" x2="50" y2="204"/>
    <line x1="40" y1="221" x2="60" y2="221"/>
    <line x1="70" y1="204" x2="80" y2="221"/>
    <line x1="70" y1="204" x2="80" y2="221"/>
    <line x1="90" y1="204" x2="100" y2="221"/>
    <line x1="90" y1="204" x2="100" y2="221"/>
    <line x1="110" y1="204" x2="120" y2="221"/>
    <line x1="110" y1="204" x2="120" y2="221"/>
    <line x1="120" y1="221" x2="130" y2="204"/>
    <line x1="120" y1="221" x2="130" y2="204"/>
    <line x1="120" y1="221" x2="140" y2="221"/>
    <line x1="150" y1="204" x2="160" y2="221"/>
    <line x1="150" y1="204" x2="160" y2="221"/>
    <line x1="180" y1="221" x2="190" y2="204"/>
    <line x1="170" y1="204" x2="190" y2="204"/>
    <line x1="180" y1="221" x2="190" y2="204"/>
    <line x1="200" y1="221" x2="210" y2="204"/>
    <line x1="0" y1="221" x2="10" y2="238"/>
    <line x1="10" y1="238" x2="20" y2="221"/>
    <line x1="10" y1="238" x2="20" y2="221"/>
    <line x1="40" y1="221" x2="60" y2="221"/>
    <line x1="60" y1="221" x2="70" y2="238"/>
    <line x1="60" y1="221" x2="70" y2="238"/>
    <line x1="80" y1="221" x2="90" y2="238"/>
    <line x1="80" y1="221" x2="90" y2="238"/>
    <line x1="90" y1="238" x2="100" y2="221"/>
    <line x1="90" y1="238" x2="100" y2="221"/>
    <line x1="120" y1="221" x2="140" y2="221"/>
    <line x1="140" y1="221" x2="150" y2="238"/>
    <line x1="140" y1="221" x2="150" y2="238"/>
    <line x1="160" y1="221" x2="170" y2="238"/>
    <line x1="150" y1="238" x2="170" y2="238"/>
    <line x1="160" y1="221" x2="170" y2="238"/>
    <line x1="180" y1="221" x2="190" y2="238"/>
    <line x1="180" y1="221" x2="190" y2="238"/>
    <line x1="200" y1="221" x2="210" y2="238"/>
    <line x1="0" y1="255" x2="10" y2="238"/>
    <line x1="30" y1="238" x2="40" y2="255"/>
    <line x1="30" y1="238" x2="40" y2="255"/>
    <line x1="50" y1="238" x2="60" y2="255"/>
    <line x1="50" y1="238" x2="60" y2="255"/>
    <line x1="70" y1="238" x2="80" y2="255"/>
    <line x1="70" y1="238" x2="80" y2="255"/>
    <line x1="90" y1="238" x2="100" y2="255"/>
    <line x1="90" y1="238" x2="100" y2="255"/>
    <line x1="100" y1="255" x2="110" y2="238"/>
    <line x1="100" y1="255" x2="110" y2="238"/>
    <line x1="100" y1="255" x2="120" y2="255"/>
    <line x1="130" y1="238" x2="140" y2="255"/>
    <line x1="130" y1="238" x2="140" y2="255"/>
    <line x1="140" y1="255" x2="160" y2="255"/>
    <line x1="150" y1="238" x2="170" y2="238"/>
    <line x1="170" y1="238" x2="180" y2="255"/>
    <line x1="160" y1="255" x2="180" y2="255"/>
    <line x1="170" y1="238" x2="180" y2="255"/>
    <line x1="180" y1="255" x2="190" y2="238"/>
    <line x1="180" y1="255" x2="190" y2="238"/>
    <line x1="200" y1="255" x2="210" y2="238"/>
    <line x1="0" y1="255" x2="10" y2="272"/>
    <line x1="10" y1="272" x2="20" y2="255"/>
    <line x1="10" y1="272" x2="20" y2="255"/>
    <line x1="40" y1="255" x2="50" y2="272"/>
    <line x1="30" y1="272" x2="50" y2="272"/>
    <line x1="40" y1="255" x2="50" y2="272"/>
    <line x1="60" y1="255" x2="70" y2="272"/>
    <line x1="60" y1="255" x2="70" y2="272"/>
    <line x1="80" y1="255" x2="90" y2="272"/>
    <line x1="80" y1="255" x2="90" y2="272"/>
    <line x1="110" y1="272" x2="120" y2="255"/>
    <line x1="100" y1="255" x2="120" y2="255"/>
    <line x1="110" y1="272" x2="120" y2="255"/>
    <line x1="140" y1="255" x2="160" y2="255"/>
    <line x1="150" y1="272" x2="170" y2="272"/>
    <line x1="160" y1="255" x2="180" y2="255"/>
    <line x1="180" y1="255" x2="190" y2="272"/>
    <line x1="180" y1="255" x2="190" y2="272"/>
    <line x1="200" y1="255" x2="210" y2="272"/>
    <line x1="0" y1="289" x2="10" y2="272"/>
    <line x1="40" y1="289" x2="50" y2="272"/>
    <line x1="30" y1="272" x2="50" y2="272"/>
    <line x1="40" y1="289" x2="50" y2="272"/>
    <line x1="60" y1="289" x2="70" y2="272"/>
    <line x1="60" y1="289" x2="70" y2="272"/>
    <line x1="80" y1="289" x2="90" y2="272"/>
    <line x1="80" y1="289" x2="90" y2="272"/>
    <line x1="100" y1="289" x2="110" y2="272"/>
    <line x1="100" y1="289" x2="110" y2="272"/>
    <line x1="120" y1="289" x2="130" y2="272"/>
    <line x1="120" y1="289" x2="130" y2="272"/>
    <line x1="160" y1="289" x2="170" y2="272"/>
    <line x1="150" y1="272" x2="170" y2="272"/>
    <line x1="160" y1="289" x2="170" y2="272"/>
    <line x1="170" y1="272" x2="180" y2="289"/>
    <line x1="170" y1="272" x2="180" y2="289"/>
    <line x1="180" y1="289" x2="190" y2="272"/>
    <line x1="180" y1="289" x2="190" y2="272"/>
    <line x1="200" y1="289" x2="210" y2="272"/>
    <line x1="0" y1="289" x2="10" y2="306"/>
    <line x1="10" y1="306" x2="20" y2="289"/>
    <line x1="10" y1="306" x2="20" y2="289"/>
    <line x1="40" y1="289" x2="50" y2="306"/>
    <line x1="40" y1="289" x2="50" y2="306"/>
    <line x1="50" y1="306" x2="60" y2="289"/>
    <line x1="50" y1="306" x2="60" y2="289"/>
    <line x1="50" y1="306" x2="70" y2="306"/>
    <line x1="80" y1="289" x2="90" y2="306"/>
    <line x1="80" y1="289" x2="90" y2="306"/>
    <line x1="90" y1="306" x2="100" y2="289"/>
    <line x1="90" y1="306" x2="100" y2="289"/>
    <line x1="110" y1="306" x2="120" y2="289"/>
    <line x1="110" y1="306" x2="120" y2="289"/>
    <line x1="140" y1="289" x2="150" y2="306"/>
    <line x1="130" y1="306" x2="150" y2="306"/>
    <line x1="140" y1="289" x2="150" y2="306"/>
    <line x1="180" y1="289" x2="190" y2="306"/>
    <line x1="170" y1="306" x2="190" y2="306"/>
    <line x1="180" y1="289" x2="190" y2="306"/>
    <line x1="200" y1="289" x2="210" y2="306"/>
    <line x1="0" y1="323" x2="10" y2="306"/>
    <line x1="30" y1="306" x2="40" y2="323"/>
    <line x1="30" y1="306" x2="40" y2="323"/>
    <line x1="40" y1="323" x2="60" y2="323"/>
    <line x1="60" y1="323" x2="70" y2="306"/>
    <line x1="50" y1="306" x2="70" y2="306"/>
    <line x1="60" y1="323" x2="70" y2="306"/>
    <line x1="60" y1="323" x2="80" y2="323"/>
    <line x1="80" y1="323" x2="90" y2="306"/>
    <line x1="80" y1="323" x2="90" y2="306"/>
    <line x1="80" y1="323" x2="100" y2="323"/>
    <line x1="100" y1="323" x2="110" y2="306"/>
    <line x1="100" y1="323" x2="110" y2="306"/>
    <line x1="120" y1="323" x2="130" y2="306"/>
    <line x1="120" y1="323" x2="130" y2="306"/>
    <line x1="130" y1="306" x2="150" y2="306"/>
    <line x1="170" y1="306" x2="190" y2="306"/>
    <line x1="190" y1="306" x2="200" y2="323"/>
    <line x1="190" y1="306" x2="200" y2="323"/>
    <line x1="200" y1="323" x2="210" y2="306"/>
    <line x1="0" y1="323" x2="10" y2="340"/>
    <line x1="10" y1="340" x2="20" y2="323"/>
    <line x1="10" y1="340" x2="20" y2="323"/>
    <line x1="10" y1="340" x2="30" y2="340"/>
    <line x1="30" y1="340" x2="50" y2="340"/>
    <line x1="50" y1="340" x2="60" y2="323"/>
    <line x1="40" y1="323" x2="60" y2="323"/>
    <line x1="50" y1="340" x2="60" y2="323"/>
    <line x1="50" y1="340" x2="70" y2="340"/>
    <line x1="60" y1="323" x2="80" y2="323"/>
    <line x1="70" y1="340" x2="90" y2="340"/>
    <line x1="80" y1="323" x2="100" y2="323"/>
    <line x1="90" y1="340" x2="110" y2="340"/>
    <line x1="120" y1="323" x2="130" y2="340"/>
    <line x1="110" y1="340" x2="130" y2="340"/>
    <line x1="120" y1="323" x2="130" y2="340"/>
    <line x1="130" y1="340" x2="140" y2="323"/>
    <line x1="130" y1="340" x2="140" y2="323"/>
    <line x1="130" y1="340" x2="150" y2="340"/>
    <line x1="160" y1="323" x2="170" y2="340"/>
    <line x1="150" y1="340" x2="170" y2="340"/>
    <line x1="160" y1="323" x2="170" y2="340"/>
    <line x1="180" y1="323" x2="190" y2="340"/>
    <line x1="170" y1="340" x2="190" y2="340"/>
    <line x1="180" y1="323" x2="190" y2="340"/>
    <line x1="190" y1="340" x2="210" y2="340"/>
  </g>
</svg>